<?xml version="1.0" encoding="utf-8" standalone="no"?>
<!DOCTYPE svg PUBLIC "-//W3C//DTD SVG 1.1//EN"
  "http://www.w3.org/Graphics/SVG/1.1/DTD/svg11.dtd">
<svg xmlns:xlink="http://www.w3.org/1999/xlink" width="482.542187pt" height="324.915938pt" viewBox="0 0 482.542187 324.915938" xmlns="http://www.w3.org/2000/svg" version="1.1">
 <metadata>
  <rdf:RDF xmlns:dc="http://purl.org/dc/elements/1.1/" xmlns:cc="http://creativecommons.org/ns#" xmlns:rdf="http://www.w3.org/1999/02/22-rdf-syntax-ns#">
   <cc:Work>
    <dc:type rdf:resource="http://purl.org/dc/dcmitype/StillImage"/>
    <dc:date>2026-07-06T19:02:01.066423</dc:date>
    <dc:format>image/svg+xml</dc:format>
    <dc:creator>
     <cc:Agent>
      <dc:title>Matplotlib v3.10.9, https://matplotlib.org/</dc:title>
     </cc:Agent>
    </dc:creator>
   </cc:Work>
  </rdf:RDF>
 </metadata>
 <defs>
  <style type="text/css">*{stroke-linejoin: round; stroke-linecap: butt}</style>
 </defs>
 <g id="figure_1">
  <g id="patch_1">
   <path d="M 0 324.915938 
L 482.542187 324.915938 
L 482.542187 0 
L 0 0 
z
" style="fill: #ffffff"/>
  </g>
  <g id="axes_1">
   <g id="patch_2">
    <path d="M 28.942188 301.037813 
L 475.342187 301.037813 
L 475.342187 23.837813 
L 28.942188 23.837813 
z
" style="fill: #ffffff"/>
   </g>
   <g id="matplotlib.axis_1">
    <g id="xtick_1">
     <g id="line2d_1">
      <path d="M 49.233097 301.037813 
L 49.233097 23.837813 
" clip-path="url(#p7f1ac987df)" style="fill: none; stroke: #b0b0b0; stroke-opacity: 0.3; stroke-width: 0.8; stroke-linecap: square"/>
     </g>
     <g id="line2d_2">
      <defs>
       <path id="mab36e7877a" d="M 0 0 
L 0 3.5 
" style="stroke: #000000; stroke-width: 0.8"/>
      </defs>
      <g>
       <use xlink:href="#mab36e7877a" x="49.233097" y="301.037813" style="stroke: #000000; stroke-width: 0.8"/>
      </g>
     </g>
     <g id="text_1">
      <!-- 0 -->
      <g transform="translate(46.051847 315.63625) scale(0.1 -0.1)">
       <defs>
        <path id="DejaVuSans-30" d="M 2034 4250 
Q 1547 4250 1301 3770 
Q 1056 3291 1056 2328 
Q 1056 1369 1301 889 
Q 1547 409 2034 409 
Q 2525 409 2770 889 
Q 3016 1369 3016 2328 
Q 3016 3291 2770 3770 
Q 2525 4250 2034 4250 
z
M 2034 4750 
Q 2819 4750 3233 4129 
Q 3647 3509 3647 2328 
Q 3647 1150 3233 529 
Q 2819 -91 2034 -91 
Q 1250 -91 836 529 
Q 422 1150 422 2328 
Q 422 3509 836 4129 
Q 1250 4750 2034 4750 
z
" transform="scale(0.015625)"/>
       </defs>
       <use xlink:href="#DejaVuSans-30"/>
      </g>
     </g>
    </g>
    <g id="xtick_2">
     <g id="line2d_3">
      <path d="M 130.477978 301.037813 
L 130.477978 23.837813 
" clip-path="url(#p7f1ac987df)" style="fill: none; stroke: #b0b0b0; stroke-opacity: 0.3; stroke-width: 0.8; stroke-linecap: square"/>
     </g>
     <g id="line2d_4">
      <g>
       <use xlink:href="#mab36e7877a" x="130.477978" y="301.037813" style="stroke: #000000; stroke-width: 0.8"/>
      </g>
     </g>
     <g id="text_2">
      <!-- 200 -->
      <g transform="translate(120.934228 315.63625) scale(0.1 -0.1)">
       <defs>
        <path id="DejaVuSans-32" d="M 1228 531 
L 3431 531 
L 3431 0 
L 469 0 
L 469 531 
Q 828 903 1448 1529 
Q 2069 2156 2228 2338 
Q 2531 2678 2651 2914 
Q 2772 3150 2772 3378 
Q 2772 3750 2511 3984 
Q 2250 4219 1831 4219 
Q 1534 4219 1204 4116 
Q 875 4013 500 3803 
L 500 4441 
Q 881 4594 1212 4672 
Q 1544 4750 1819 4750 
Q 2544 4750 2975 4387 
Q 3406 4025 3406 3419 
Q 3406 3131 3298 2873 
Q 3191 2616 2906 2266 
Q 2828 2175 2409 1742 
Q 1991 1309 1228 531 
z
" transform="scale(0.015625)"/>
       </defs>
       <use xlink:href="#DejaVuSans-32"/>
       <use xlink:href="#DejaVuSans-30" transform="translate(63.623047 0)"/>
       <use xlink:href="#DejaVuSans-30" transform="translate(127.246094 0)"/>
      </g>
     </g>
    </g>
    <g id="xtick_3">
     <g id="line2d_5">
      <path d="M 211.722859 301.037813 
L 211.722859 23.837813 
" clip-path="url(#p7f1ac987df)" style="fill: none; stroke: #b0b0b0; stroke-opacity: 0.3; stroke-width: 0.8; stroke-linecap: square"/>
     </g>
     <g id="line2d_6">
      <g>
       <use xlink:href="#mab36e7877a" x="211.722859" y="301.037813" style="stroke: #000000; stroke-width: 0.8"/>
      </g>
     </g>
     <g id="text_3">
      <!-- 400 -->
      <g transform="translate(202.179109 315.63625) scale(0.1 -0.1)">
       <defs>
        <path id="DejaVuSans-34" d="M 2419 4116 
L 825 1625 
L 2419 1625 
L 2419 4116 
z
M 2253 4666 
L 3047 4666 
L 3047 1625 
L 3713 1625 
L 3713 1100 
L 3047 1100 
L 3047 0 
L 2419 0 
L 2419 1100 
L 313 1100 
L 313 1709 
L 2253 4666 
z
" transform="scale(0.015625)"/>
       </defs>
       <use xlink:href="#DejaVuSans-34"/>
       <use xlink:href="#DejaVuSans-30" transform="translate(63.623047 0)"/>
       <use xlink:href="#DejaVuSans-30" transform="translate(127.246094 0)"/>
      </g>
     </g>
    </g>
    <g id="xtick_4">
     <g id="line2d_7">
      <path d="M 292.96774 301.037813 
L 292.96774 23.837813 
" clip-path="url(#p7f1ac987df)" style="fill: none; stroke: #b0b0b0; stroke-opacity: 0.3; stroke-width: 0.8; stroke-linecap: square"/>
     </g>
     <g id="line2d_8">
      <g>
       <use xlink:href="#mab36e7877a" x="292.96774" y="301.037813" style="stroke: #000000; stroke-width: 0.8"/>
      </g>
     </g>
     <g id="text_4">
      <!-- 600 -->
      <g transform="translate(283.42399 315.63625) scale(0.1 -0.1)">
       <defs>
        <path id="DejaVuSans-36" d="M 2113 2584 
Q 1688 2584 1439 2293 
Q 1191 2003 1191 1497 
Q 1191 994 1439 701 
Q 1688 409 2113 409 
Q 2538 409 2786 701 
Q 3034 994 3034 1497 
Q 3034 2003 2786 2293 
Q 2538 2584 2113 2584 
z
M 3366 4563 
L 3366 3988 
Q 3128 4100 2886 4159 
Q 2644 4219 2406 4219 
Q 1781 4219 1451 3797 
Q 1122 3375 1075 2522 
Q 1259 2794 1537 2939 
Q 1816 3084 2150 3084 
Q 2853 3084 3261 2657 
Q 3669 2231 3669 1497 
Q 3669 778 3244 343 
Q 2819 -91 2113 -91 
Q 1303 -91 875 529 
Q 447 1150 447 2328 
Q 447 3434 972 4092 
Q 1497 4750 2381 4750 
Q 2619 4750 2861 4703 
Q 3103 4656 3366 4563 
z
" transform="scale(0.015625)"/>
       </defs>
       <use xlink:href="#DejaVuSans-36"/>
       <use xlink:href="#DejaVuSans-30" transform="translate(63.623047 0)"/>
       <use xlink:href="#DejaVuSans-30" transform="translate(127.246094 0)"/>
      </g>
     </g>
    </g>
    <g id="xtick_5">
     <g id="line2d_9">
      <path d="M 374.212622 301.037813 
L 374.212622 23.837813 
" clip-path="url(#p7f1ac987df)" style="fill: none; stroke: #b0b0b0; stroke-opacity: 0.3; stroke-width: 0.8; stroke-linecap: square"/>
     </g>
     <g id="line2d_10">
      <g>
       <use xlink:href="#mab36e7877a" x="374.212622" y="301.037813" style="stroke: #000000; stroke-width: 0.8"/>
      </g>
     </g>
     <g id="text_5">
      <!-- 800 -->
      <g transform="translate(364.668872 315.63625) scale(0.1 -0.1)">
       <defs>
        <path id="DejaVuSans-38" d="M 2034 2216 
Q 1584 2216 1326 1975 
Q 1069 1734 1069 1313 
Q 1069 891 1326 650 
Q 1584 409 2034 409 
Q 2484 409 2743 651 
Q 3003 894 3003 1313 
Q 3003 1734 2745 1975 
Q 2488 2216 2034 2216 
z
M 1403 2484 
Q 997 2584 770 2862 
Q 544 3141 544 3541 
Q 544 4100 942 4425 
Q 1341 4750 2034 4750 
Q 2731 4750 3128 4425 
Q 3525 4100 3525 3541 
Q 3525 3141 3298 2862 
Q 3072 2584 2669 2484 
Q 3125 2378 3379 2068 
Q 3634 1759 3634 1313 
Q 3634 634 3220 271 
Q 2806 -91 2034 -91 
Q 1263 -91 848 271 
Q 434 634 434 1313 
Q 434 1759 690 2068 
Q 947 2378 1403 2484 
z
M 1172 3481 
Q 1172 3119 1398 2916 
Q 1625 2713 2034 2713 
Q 2441 2713 2670 2916 
Q 2900 3119 2900 3481 
Q 2900 3844 2670 4047 
Q 2441 4250 2034 4250 
Q 1625 4250 1398 4047 
Q 1172 3844 1172 3481 
z
" transform="scale(0.015625)"/>
       </defs>
       <use xlink:href="#DejaVuSans-38"/>
       <use xlink:href="#DejaVuSans-30" transform="translate(63.623047 0)"/>
       <use xlink:href="#DejaVuSans-30" transform="translate(127.246094 0)"/>
      </g>
     </g>
    </g>
    <g id="xtick_6">
     <g id="line2d_11">
      <path d="M 455.457503 301.037813 
L 455.457503 23.837813 
" clip-path="url(#p7f1ac987df)" style="fill: none; stroke: #b0b0b0; stroke-opacity: 0.3; stroke-width: 0.8; stroke-linecap: square"/>
     </g>
     <g id="line2d_12">
      <g>
       <use xlink:href="#mab36e7877a" x="455.457503" y="301.037813" style="stroke: #000000; stroke-width: 0.8"/>
      </g>
     </g>
     <g id="text_6">
      <!-- 1000 -->
      <g transform="translate(442.732503 315.63625) scale(0.1 -0.1)">
       <defs>
        <path id="DejaVuSans-31" d="M 794 531 
L 1825 531 
L 1825 4091 
L 703 3866 
L 703 4441 
L 1819 4666 
L 2450 4666 
L 2450 531 
L 3481 531 
L 3481 0 
L 794 0 
L 794 531 
z
" transform="scale(0.015625)"/>
       </defs>
       <use xlink:href="#DejaVuSans-31"/>
       <use xlink:href="#DejaVuSans-30" transform="translate(63.623047 0)"/>
       <use xlink:href="#DejaVuSans-30" transform="translate(127.246094 0)"/>
       <use xlink:href="#DejaVuSans-30" transform="translate(190.869141 0)"/>
      </g>
     </g>
    </g>
   </g>
   <g id="matplotlib.axis_2">
    <g id="ytick_1">
     <g id="line2d_13">
      <path d="M 28.942188 269.128823 
L 475.342187 269.128823 
" clip-path="url(#p7f1ac987df)" style="fill: none; stroke: #b0b0b0; stroke-opacity: 0.3; stroke-width: 0.8; stroke-linecap: square"/>
     </g>
     <g id="line2d_14">
      <defs>
       <path id="m2ee6dd3cfe" d="M 0 0 
L -3.5 0 
" style="stroke: #000000; stroke-width: 0.8"/>
      </defs>
      <g>
       <use xlink:href="#m2ee6dd3cfe" x="28.942188" y="269.128823" style="stroke: #000000; stroke-width: 0.8"/>
      </g>
     </g>
     <g id="text_7">
      <!-- −6 -->
      <g transform="translate(7.2 272.928042) scale(0.1 -0.1)">
       <defs>
        <path id="DejaVuSans-2212" d="M 678 2272 
L 4684 2272 
L 4684 1741 
L 678 1741 
L 678 2272 
z
" transform="scale(0.015625)"/>
       </defs>
       <use xlink:href="#DejaVuSans-2212"/>
       <use xlink:href="#DejaVuSans-36" transform="translate(83.789062 0)"/>
      </g>
     </g>
    </g>
    <g id="ytick_2">
     <g id="line2d_15">
      <path d="M 28.942188 235.88725 
L 475.342187 235.88725 
" clip-path="url(#p7f1ac987df)" style="fill: none; stroke: #b0b0b0; stroke-opacity: 0.3; stroke-width: 0.8; stroke-linecap: square"/>
     </g>
     <g id="line2d_16">
      <g>
       <use xlink:href="#m2ee6dd3cfe" x="28.942188" y="235.88725" style="stroke: #000000; stroke-width: 0.8"/>
      </g>
     </g>
     <g id="text_8">
      <!-- −5 -->
      <g transform="translate(7.2 239.686469) scale(0.1 -0.1)">
       <defs>
        <path id="DejaVuSans-35" d="M 691 4666 
L 3169 4666 
L 3169 4134 
L 1269 4134 
L 1269 2991 
Q 1406 3038 1543 3061 
Q 1681 3084 1819 3084 
Q 2600 3084 3056 2656 
Q 3513 2228 3513 1497 
Q 3513 744 3044 326 
Q 2575 -91 1722 -91 
Q 1428 -91 1123 -41 
Q 819 9 494 109 
L 494 744 
Q 775 591 1075 516 
Q 1375 441 1709 441 
Q 2250 441 2565 725 
Q 2881 1009 2881 1497 
Q 2881 1984 2565 2268 
Q 2250 2553 1709 2553 
Q 1456 2553 1204 2497 
Q 953 2441 691 2322 
L 691 4666 
z
" transform="scale(0.015625)"/>
       </defs>
       <use xlink:href="#DejaVuSans-2212"/>
       <use xlink:href="#DejaVuSans-35" transform="translate(83.789062 0)"/>
      </g>
     </g>
    </g>
    <g id="ytick_3">
     <g id="line2d_17">
      <path d="M 28.942188 202.645677 
L 475.342187 202.645677 
" clip-path="url(#p7f1ac987df)" style="fill: none; stroke: #b0b0b0; stroke-opacity: 0.3; stroke-width: 0.8; stroke-linecap: square"/>
     </g>
     <g id="line2d_18">
      <g>
       <use xlink:href="#m2ee6dd3cfe" x="28.942188" y="202.645677" style="stroke: #000000; stroke-width: 0.8"/>
      </g>
     </g>
     <g id="text_9">
      <!-- −4 -->
      <g transform="translate(7.2 206.444896) scale(0.1 -0.1)">
       <use xlink:href="#DejaVuSans-2212"/>
       <use xlink:href="#DejaVuSans-34" transform="translate(83.789062 0)"/>
      </g>
     </g>
    </g>
    <g id="ytick_4">
     <g id="line2d_19">
      <path d="M 28.942188 169.404104 
L 475.342187 169.404104 
" clip-path="url(#p7f1ac987df)" style="fill: none; stroke: #b0b0b0; stroke-opacity: 0.3; stroke-width: 0.8; stroke-linecap: square"/>
     </g>
     <g id="line2d_20">
      <g>
       <use xlink:href="#m2ee6dd3cfe" x="28.942188" y="169.404104" style="stroke: #000000; stroke-width: 0.8"/>
      </g>
     </g>
     <g id="text_10">
      <!-- −3 -->
      <g transform="translate(7.2 173.203323) scale(0.1 -0.1)">
       <defs>
        <path id="DejaVuSans-33" d="M 2597 2516 
Q 3050 2419 3304 2112 
Q 3559 1806 3559 1356 
Q 3559 666 3084 287 
Q 2609 -91 1734 -91 
Q 1441 -91 1130 -33 
Q 819 25 488 141 
L 488 750 
Q 750 597 1062 519 
Q 1375 441 1716 441 
Q 2309 441 2620 675 
Q 2931 909 2931 1356 
Q 2931 1769 2642 2001 
Q 2353 2234 1838 2234 
L 1294 2234 
L 1294 2753 
L 1863 2753 
Q 2328 2753 2575 2939 
Q 2822 3125 2822 3475 
Q 2822 3834 2567 4026 
Q 2313 4219 1838 4219 
Q 1578 4219 1281 4162 
Q 984 4106 628 3988 
L 628 4550 
Q 988 4650 1302 4700 
Q 1616 4750 1894 4750 
Q 2613 4750 3031 4423 
Q 3450 4097 3450 3541 
Q 3450 3153 3228 2886 
Q 3006 2619 2597 2516 
z
" transform="scale(0.015625)"/>
       </defs>
       <use xlink:href="#DejaVuSans-2212"/>
       <use xlink:href="#DejaVuSans-33" transform="translate(83.789062 0)"/>
      </g>
     </g>
    </g>
    <g id="ytick_5">
     <g id="line2d_21">
      <path d="M 28.942188 136.162531 
L 475.342187 136.162531 
" clip-path="url(#p7f1ac987df)" style="fill: none; stroke: #b0b0b0; stroke-opacity: 0.3; stroke-width: 0.8; stroke-linecap: square"/>
     </g>
     <g id="line2d_22">
      <g>
       <use xlink:href="#m2ee6dd3cfe" x="28.942188" y="136.162531" style="stroke: #000000; stroke-width: 0.8"/>
      </g>
     </g>
     <g id="text_11">
      <!-- −2 -->
      <g transform="translate(7.2 139.96175) scale(0.1 -0.1)">
       <use xlink:href="#DejaVuSans-2212"/>
       <use xlink:href="#DejaVuSans-32" transform="translate(83.789062 0)"/>
      </g>
     </g>
    </g>
    <g id="ytick_6">
     <g id="line2d_23">
      <path d="M 28.942188 102.920958 
L 475.342187 102.920958 
" clip-path="url(#p7f1ac987df)" style="fill: none; stroke: #b0b0b0; stroke-opacity: 0.3; stroke-width: 0.8; stroke-linecap: square"/>
     </g>
     <g id="line2d_24">
      <g>
       <use xlink:href="#m2ee6dd3cfe" x="28.942188" y="102.920958" style="stroke: #000000; stroke-width: 0.8"/>
      </g>
     </g>
     <g id="text_12">
      <!-- −1 -->
      <g transform="translate(7.2 106.720177) scale(0.1 -0.1)">
       <use xlink:href="#DejaVuSans-2212"/>
       <use xlink:href="#DejaVuSans-31" transform="translate(83.789062 0)"/>
      </g>
     </g>
    </g>
    <g id="ytick_7">
     <g id="line2d_25">
      <path d="M 28.942188 69.679385 
L 475.342187 69.679385 
" clip-path="url(#p7f1ac987df)" style="fill: none; stroke: #b0b0b0; stroke-opacity: 0.3; stroke-width: 0.8; stroke-linecap: square"/>
     </g>
     <g id="line2d_26">
      <g>
       <use xlink:href="#m2ee6dd3cfe" x="28.942188" y="69.679385" style="stroke: #000000; stroke-width: 0.8"/>
      </g>
     </g>
     <g id="text_13">
      <!-- 0 -->
      <g transform="translate(15.579688 73.478604) scale(0.1 -0.1)">
       <use xlink:href="#DejaVuSans-30"/>
      </g>
     </g>
    </g>
    <g id="ytick_8">
     <g id="line2d_27">
      <path d="M 28.942188 36.437813 
L 475.342187 36.437813 
" clip-path="url(#p7f1ac987df)" style="fill: none; stroke: #b0b0b0; stroke-opacity: 0.3; stroke-width: 0.8; stroke-linecap: square"/>
     </g>
     <g id="line2d_28">
      <g>
       <use xlink:href="#m2ee6dd3cfe" x="28.942188" y="36.437813" style="stroke: #000000; stroke-width: 0.8"/>
      </g>
     </g>
     <g id="text_14">
      <!-- 1 -->
      <g transform="translate(15.579688 40.237031) scale(0.1 -0.1)">
       <use xlink:href="#DejaVuSans-31"/>
      </g>
     </g>
    </g>
   </g>
   <g id="line2d_29">
    <path d="M 49.233097 164.536291 
L 49.639321 269.895457 
L 50.045545 164.654714 
L 50.45177 164.891561 
L 50.857994 285.965679 
L 51.264219 36.437813 
L 51.670443 248.15339 
L 52.076667 265.879398 
L 52.482892 176.970717 
L 52.889116 159.546593 
L 53.295341 287.328021 
L 53.701565 171.760101 
L 54.107789 176.378602 
L 54.514014 221.495726 
L 54.920238 177.799679 
L 55.326463 266.492351 
L 55.732687 178.792704 
L 56.138911 252.189019 
L 56.545136 287.328021 
L 56.95136 171.523254 
L 57.357585 287.708201 
L 57.763809 287.667232 
L 58.170034 240.779994 
L 58.576258 241.278429 
L 58.982482 177.325986 
L 59.388707 284.467571 
L 59.794931 151.630251 
L 60.201156 178.628641 
L 60.60738 177.08914 
L 61.013604 177.221807 
L 61.419829 265.879398 
L 61.826053 166.007231 
L 62.232278 177.221807 
L 62.638502 36.850746 
L 63.044726 223.069602 
L 63.450951 287.680203 
L 63.857175 243.994038 
L 64.2634 37.25855 
L 64.669624 37.661288 
L 65.075848 249.665882 
L 65.482073 176.452233 
L 65.888297 36.437813 
L 66.294522 178.391794 
L 66.700746 242.048459 
L 67.10697 282.186528 
L 67.513195 178.792704 
L 67.919419 275.920534 
L 68.731868 36.850746 
L 69.138092 177.863816 
L 69.544317 176.494156 
L 69.950541 249.665882 
L 70.356766 250.982066 
L 70.76299 267.626719 
L 71.169215 179.102333 
L 71.575439 240.21281 
L 71.981663 177.799679 
L 72.387888 176.378602 
L 72.794112 238.302071 
L 73.200337 164.876799 
L 73.606561 176.378602 
L 74.012785 239.735125 
L 74.41901 167.260023 
L 74.825234 165.833405 
L 75.231459 165.643273 
L 75.637683 284.49477 
L 76.043907 271.761063 
L 76.450132 247.435601 
L 76.856356 36.437813 
L 77.262581 174.129503 
L 77.668805 267.626719 
L 78.075029 166.431061 
L 78.481254 264.625719 
L 78.887478 246.144205 
L 79.293703 265.263394 
L 79.699927 36.437813 
L 80.106151 287.518114 
L 80.512376 174.154543 
L 80.9186 240.590932 
L 81.324825 175.038173 
L 81.731049 175.460842 
L 82.137273 252.501804 
L 82.543498 144.940384 
L 82.949722 164.536291 
L 83.355947 241.278429 
L 83.762171 246.651859 
L 84.168396 176.007925 
L 84.57462 287.856294 
L 84.980844 177.705916 
L 85.387069 177.375307 
L 85.793293 135.085391 
L 86.199518 177.325986 
L 86.605742 247.964329 
L 87.011966 239.735125 
L 87.418191 278.017522 
L 87.824415 278.592283 
L 88.23064 165.009984 
L 88.636864 239.904138 
L 89.043088 221.117604 
L 89.449313 36.437813 
L 89.855537 287.504112 
L 90.261762 165.128407 
L 90.667986 177.923415 
L 91.07421 247.019022 
L 91.480435 38.451818 
L 91.886659 242.481547 
L 92.292884 176.539756 
L 92.699108 152.295082 
L 93.105332 37.661288 
L 93.511557 37.25855 
L 93.917781 288.437813 
L 94.324006 265.015648 
L 94.73023 36.850746 
L 95.542679 253.497924 
L 95.948903 265.736105 
L 96.355128 179.102333 
L 96.761352 240.983157 
L 97.167577 168.634008 
L 97.573801 267.626719 
L 97.980025 258.616901 
L 98.38625 261.89169 
L 98.792474 36.850746 
L 99.198699 264.17077 
L 99.604923 176.413165 
L 100.011147 210.827259 
L 100.417372 177.08914 
L 100.823596 285.2366 
L 101.229821 177.325986 
L 101.636045 286.975838 
L 102.042269 240.121395 
L 102.448494 165.460769 
L 102.854718 176.413165 
L 103.260943 176.852294 
L 103.667167 220.008166 
L 104.073391 242.103424 
L 104.479616 179.220756 
L 104.88584 177.799679 
L 105.292065 179.102333 
L 106.104513 161.658062 
L 106.510738 243.177576 
L 106.916962 147.992376 
L 107.323187 241.22371 
L 107.729411 271.905385 
L 108.135635 253.71334 
L 108.54186 249.287759 
L 108.948084 287.667232 
L 109.354309 287.504112 
L 109.760533 174.885136 
L 110.166758 176.714089 
L 110.572982 162.657009 
L 110.979206 176.186245 
L 111.385431 170.102177 
L 111.791655 242.103424 
L 112.19788 221.873849 
L 112.604104 271.975132 
L 113.010328 178.551463 
L 113.416553 167.237358 
L 113.822777 177.826831 
L 114.635226 276.062461 
L 115.04145 249.394477 
L 115.447675 171.404831 
L 115.853899 287.039995 
L 116.260124 41.774514 
L 116.666348 165.24683 
L 117.072572 247.919314 
L 117.478797 288.437813 
L 117.885021 177.325986 
L 118.291246 164.536291 
L 118.69747 176.970717 
L 119.103694 286.934841 
L 119.916143 166.431061 
L 120.322368 177.098754 
L 120.728592 266.406767 
L 121.134816 174.80586 
L 121.541041 162.98017 
L 121.947265 284.103832 
L 122.35349 242.292485 
L 122.759714 177.826831 
L 123.165939 36.437813 
L 123.572163 177.799679 
L 123.978387 231.095019 
L 124.384612 177.128228 
L 124.790836 252.951318 
L 125.197061 177.44441 
L 125.603285 38.059023 
L 126.009509 263.165969 
L 126.415734 176.15953 
L 126.821958 266.54251 
L 127.228183 251.617101 
L 127.634407 248.603537 
L 128.040631 255.904335 
L 128.446856 170.201437 
L 128.85308 277.836037 
L 129.259305 179.102333 
L 129.665529 223.197279 
L 130.071753 153.996041 
L 130.477978 176.121053 
L 130.884202 238.779756 
L 131.290427 196.831801 
L 131.696651 276.311603 
L 132.102875 264.783795 
L 132.5091 274.003454 
L 132.915324 36.437813 
L 134.133997 36.437813 
L 134.540222 285.596612 
L 134.946446 221.117604 
L 135.352671 179.220756 
L 135.758895 269.139211 
L 136.571344 208.576528 
L 136.977568 264.168446 
L 137.383793 285.642178 
L 137.790017 164.536291 
L 138.196242 250.603245 
L 138.602466 38.059023 
L 139.00869 284.887841 
L 139.414915 253.097514 
L 139.821139 287.314359 
L 140.227364 214.959602 
L 140.633588 252.531325 
L 141.039812 176.31567 
L 141.446037 177.207563 
L 141.852261 150.875786 
L 142.258486 175.593384 
L 142.66471 264.94008 
L 143.070934 177.375849 
L 143.477159 164.891561 
L 143.883383 176.71725 
L 144.289608 165.128407 
L 144.695832 287.723217 
L 145.102056 175.381921 
L 145.508281 177.799679 
L 145.914505 178.298302 
L 146.32073 36.850746 
L 146.726954 164.536291 
L 147.133178 158.013556 
L 147.539403 176.970717 
L 147.945627 36.437813 
L 148.351852 246.651859 
L 148.758076 175.113877 
L 149.164301 175.939904 
L 149.570525 245.394381 
L 149.976749 140.184762 
L 150.382974 262.920738 
L 150.789198 176.353296 
L 151.195423 36.437813 
L 151.601647 36.850746 
L 152.007871 168.142469 
L 152.414096 203.095383 
L 152.82032 222.819157 
L 153.226545 177.295367 
L 153.632769 240.590932 
L 154.038993 168.22372 
L 154.445218 230.806038 
L 154.851442 164.536291 
L 155.257667 223.197279 
L 155.663891 173.774352 
L 156.070115 271.118854 
L 156.882564 38.451818 
L 157.288789 263.061445 
L 157.695013 37.25855 
L 158.101237 178.483075 
L 158.507462 170.927676 
L 158.913686 260.442384 
L 159.319911 38.839733 
L 159.726135 242.292485 
L 160.132359 135.085391 
L 160.538584 276.635254 
L 160.944808 176.736919 
L 161.351033 192.578328 
L 161.757257 36.437813 
L 162.163482 176.452233 
L 162.569706 42.121154 
L 163.382155 284.649441 
L 163.788379 265.357982 
L 164.194604 165.602099 
L 164.600828 38.059023 
L 165.007052 171.533642 
L 165.413277 248.603537 
L 165.819501 167.13845 
L 166.225726 164.536291 
L 166.63195 253.681985 
L 167.038174 247.919314 
L 167.444399 175.785328 
L 167.850623 288.423478 
L 168.256848 277.230969 
L 168.663072 37.25855 
L 169.069296 285.067481 
L 169.475521 177.683333 
L 169.881745 36.437813 
L 170.28797 267.96703 
L 170.694194 165.24683 
L 171.100418 177.990818 
L 171.506643 177.799679 
L 171.912867 254.094253 
L 172.319092 223.458364 
L 172.725316 176.384698 
L 173.13154 250.101881 
L 173.537765 148.059348 
L 173.943989 252.031124 
L 174.350214 242.361114 
L 174.756438 177.128228 
L 175.162663 167.165838 
L 175.975111 263.136196 
L 176.381336 153.46647 
L 176.78756 173.41319 
L 177.193785 151.630251 
L 177.600009 169.663742 
L 178.006233 240.121395 
L 178.412458 156.539615 
L 178.818682 36.437813 
L 179.224907 276.870791 
L 179.631131 281.438945 
L 180.037355 176.76088 
L 180.44358 255.046268 
L 180.849804 175.010849 
L 181.256029 285.037005 
L 181.662253 38.451818 
L 182.068477 176.19873 
L 182.474702 271.500978 
L 182.880926 168.631238 
L 183.693375 287.738904 
L 184.099599 273.497546 
L 184.505824 285.965679 
L 184.912048 268.468758 
L 185.318273 285.24712 
L 186.130721 38.451818 
L 186.536946 169.771297 
L 186.94317 166.405763 
L 187.349395 36.850746 
L 187.755619 36.850746 
L 188.161844 164.536291 
L 188.568068 222.062911 
L 188.974292 155.716886 
L 189.380517 148.18767 
L 189.786741 285.292723 
L 190.192966 271.737236 
L 190.59919 285.6064 
L 191.005414 149.468064 
L 191.411639 158.586132 
L 191.817863 228.711335 
L 192.630312 260.744275 
L 193.036536 178.173445 
L 193.442761 283.318819 
L 193.848985 264.625719 
L 194.25521 178.792704 
L 194.661434 36.437813 
L 195.067658 175.223457 
L 195.473883 36.850746 
L 195.880107 286.322695 
L 196.286332 164.859391 
L 196.692556 178.483075 
L 197.09878 177.498714 
L 197.505005 261.718065 
L 197.911229 261.993628 
L 198.317454 175.266572 
L 198.723678 265.835137 
L 199.129902 139.971408 
L 199.536127 247.777751 
L 199.942351 284.881905 
L 200.348576 36.437813 
L 200.7548 249.157242 
L 201.161025 169.070824 
L 201.567249 165.990508 
L 201.973473 177.098754 
L 202.379698 39.601166 
L 202.785922 237.304172 
L 203.192147 264.235592 
L 203.598371 164.773137 
L 204.004595 143.345481 
L 204.41082 244.939346 
L 204.817044 283.749924 
L 205.223269 259.572702 
L 205.629493 163.846529 
L 206.035717 175.838426 
L 206.441942 177.498714 
L 206.848166 267.024184 
L 207.254391 174.399825 
L 207.660615 282.57356 
L 208.066839 166.316166 
L 208.473064 267.359245 
L 208.879288 152.139262 
L 209.285513 262.589309 
L 209.691737 175.449603 
L 210.097961 136.504741 
L 210.504186 262.920738 
L 210.91041 253.604054 
L 211.316635 41.068098 
L 211.722859 265.263394 
L 212.129083 175.858127 
L 212.535308 253.52286 
L 212.941532 193.649676 
L 213.347757 189.112202 
L 214.160206 286.49776 
L 214.56643 281.064625 
L 214.972654 231.894106 
L 215.378879 263.454725 
L 215.785103 251.806941 
L 216.191328 174.189412 
L 216.597552 266.51892 
L 217.003776 280.503673 
L 217.410001 274.286818 
L 218.22245 49.767809 
L 218.628674 151.630251 
L 219.034898 177.295367 
L 219.441123 171.26871 
L 219.847347 50.738908 
L 220.253572 270.732013 
L 220.659796 220.731537 
L 221.06602 283.806198 
L 221.472245 239.044066 
L 221.878469 286.271474 
L 222.284694 232.254303 
L 222.690918 254.371411 
L 223.097142 243.206018 
L 223.503367 40.708213 
L 223.909591 256.093971 
L 224.315816 174.069216 
L 224.72204 38.059023 
L 225.128264 261.257649 
L 225.534489 42.463487 
L 225.940713 172.474699 
L 226.346938 164.654714 
L 226.753162 189.706395 
L 227.159387 170.919366 
L 227.565611 141.295089 
L 227.971835 266.121114 
L 228.37806 36.437813 
L 228.784284 242.361114 
L 229.190509 267.513282 
L 229.596733 176.71725 
L 230.002957 237.054111 
L 230.409182 229.835164 
L 230.815406 284.491367 
L 231.221631 244.75401 
L 231.627855 149.078593 
L 232.034079 178.551463 
L 232.440304 164.536291 
L 232.846528 264.081618 
L 233.252753 40.708213 
L 233.658977 43.790822 
L 234.065201 235.435963 
L 234.471426 237.105626 
L 234.87765 38.451818 
L 235.283875 204.669258 
L 235.690099 233.330716 
L 236.096323 177.044698 
L 236.502548 166.754427 
L 236.908772 264.859048 
L 237.314997 36.850746 
L 237.721221 41.423514 
L 238.127445 236.851401 
L 238.53367 51.436023 
L 238.939894 151.222755 
L 239.346119 177.422014 
L 239.752343 281.315502 
L 240.564792 37.661288 
L 240.971016 278.739899 
L 241.377241 281.239143 
L 241.783465 254.324277 
L 242.18969 249.287759 
L 242.595914 170.401295 
L 243.002138 286.785048 
L 243.408363 287.389449 
L 243.814587 38.451818 
L 244.220812 236.208892 
L 244.627036 278.959728 
L 245.03326 270.190582 
L 245.439485 43.465184 
L 245.845709 158.885979 
L 246.251934 159.503473 
L 246.658158 280.670689 
L 247.064382 273.300959 
L 247.470607 174.703464 
L 247.876831 40.3438 
L 248.283056 271.74268 
L 248.68928 177.44441 
L 249.095504 269.261321 
L 249.501729 41.068098 
L 249.907953 176.453395 
L 250.314178 252.501804 
L 250.720402 238.364501 
L 251.126626 177.826831 
L 251.532851 262.059101 
L 251.939075 36.850746 
L 252.3453 266.406767 
L 253.157749 172.085561 
L 253.563973 280.924544 
L 253.970197 251.930022 
L 254.376422 38.451818 
L 254.782646 277.92026 
L 255.595095 39.222829 
L 256.001319 239.503497 
L 256.407544 161.039522 
L 256.813768 43.790822 
L 257.219993 246.247113 
L 257.626217 40.3438 
L 258.032441 39.222829 
L 258.438666 167.056473 
L 258.84489 46.254445 
L 259.251115 151.898261 
L 259.657339 163.021722 
L 260.063563 229.385291 
L 260.469788 162.032596 
L 260.876012 177.068364 
L 261.282237 171.435137 
L 261.688461 176.66732 
L 262.094685 156.590496 
L 262.50091 40.708213 
L 262.907134 245.12186 
L 263.313359 223.087958 
L 263.719583 150.61645 
L 264.125807 41.423514 
L 264.532032 36.850746 
L 264.938256 39.974804 
L 265.344481 276.556364 
L 265.750705 243.756489 
L 266.15693 174.512672 
L 266.563154 39.222829 
L 266.969378 168.088984 
L 267.375603 38.059023 
L 268.188052 272.12034 
L 268.594276 175.593384 
L 269.0005 266.339331 
L 269.406725 168.447076 
L 269.812949 225.91098 
L 270.219174 251.103866 
L 270.625398 165.248907 
L 271.031622 166.930371 
L 271.437847 166.204603 
L 271.844071 41.068098 
L 272.250296 248.052031 
L 272.65652 37.661288 
L 273.062744 277.190958 
L 273.468969 160.34197 
L 273.875193 171.226158 
L 274.281418 177.422014 
L 274.687642 172.24985 
L 275.093866 36.850746 
L 275.500091 216.644534 
L 275.906315 278.420809 
L 276.31254 159.306919 
L 276.718764 281.623453 
L 277.124988 267.815781 
L 277.531213 159.546593 
L 277.937437 155.246898 
L 278.343662 281.209027 
L 278.749886 36.850746 
L 279.156111 43.790822 
L 279.562335 262.317362 
L 279.968559 274.084759 
L 280.374784 277.836037 
L 280.781008 151.381073 
L 281.187233 140.941331 
L 281.593457 165.999661 
L 281.999681 280.812649 
L 282.405906 255.487501 
L 282.81213 279.204206 
L 283.218355 235.205546 
L 283.624579 266.850106 
L 284.030803 178.913272 
L 284.437028 40.3438 
L 284.843252 143.073316 
L 285.249477 178.483075 
L 285.655701 261.664934 
L 286.061925 238.256719 
L 286.46815 61.482114 
L 286.874374 149.702428 
L 287.280599 49.263745 
L 287.686823 41.774514 
L 288.093047 174.835932 
L 288.499272 240.602204 
L 288.905496 270.965095 
L 289.311721 282.726998 
L 289.717945 48.483623 
L 290.530394 241.278429 
L 290.936618 64.769251 
L 291.342843 177.207563 
L 291.749067 204.813305 
L 292.155292 164.859391 
L 292.561516 287.490796 
L 292.96774 43.465184 
L 293.373965 47.116613 
L 293.780189 253.401235 
L 294.186414 244.289251 
L 294.592638 205.317468 
L 294.998862 36.850746 
L 295.811311 285.214927 
L 296.217536 278.580846 
L 296.62376 284.361984 
L 297.029984 229.028044 
L 297.436209 47.947049 
L 297.842433 188.545017 
L 298.248658 46.832809 
L 298.654882 176.71725 
L 299.061106 173.1295 
L 299.467331 252.615737 
L 299.873555 286.432174 
L 300.27978 240.734979 
L 300.686004 37.25855 
L 301.092228 251.646142 
L 301.498453 47.116613 
L 301.904677 285.416606 
L 302.310902 44.112415 
L 302.717126 260.739481 
L 303.12335 43.790822 
L 303.529575 174.442427 
L 303.935799 166.523168 
L 304.342024 155.897561 
L 304.748248 257.087197 
L 305.154473 38.839733 
L 305.560697 245.406968 
L 305.966921 169.335749 
L 306.373146 199.523375 
L 306.77937 172.270985 
L 307.185595 265.499749 
L 307.591819 266.446174 
L 307.998043 37.661288 
L 308.404268 174.207302 
L 308.810492 244.612239 
L 309.216717 237.84618 
L 309.622941 174.189412 
L 310.029165 47.116613 
L 310.43539 176.129575 
L 310.841614 159.698161 
L 311.247839 240.384684 
L 311.654063 170.396944 
L 312.060287 47.947049 
L 312.466512 55.292727 
L 312.872736 42.121154 
L 313.278961 148.181437 
L 313.685185 155.76358 
L 314.091409 237.194656 
L 314.497634 210.071013 
L 314.903858 169.708818 
L 315.310083 235.329201 
L 315.716307 173.099526 
L 316.122531 244.150774 
L 316.528756 168.22745 
L 316.93498 283.150846 
L 317.341205 254.284686 
L 317.747429 165.643273 
L 318.153654 285.416606 
L 318.559878 36.437813 
L 318.966102 172.092351 
L 319.372327 52.964473 
L 319.778551 43.13545 
L 320.184776 235.054133 
L 320.591 229.33301 
L 320.997224 46.832809 
L 321.403449 170.604688 
L 321.809673 42.121154 
L 322.215898 286.690541 
L 322.622122 261.684561 
L 323.028346 284.314025 
L 323.434571 189.112202 
L 323.840795 224.763789 
L 324.24702 275.659774 
L 324.653244 172.290491 
L 325.059468 38.451818 
L 325.465693 36.437813 
L 325.871917 45.359331 
L 326.278142 174.895896 
L 326.684366 53.172109 
L 327.09059 283.101833 
L 327.496815 149.984496 
L 327.903039 276.67176 
L 328.309264 284.572042 
L 328.715488 246.246118 
L 329.121712 162.792593 
L 329.527937 41.423514 
L 329.934161 282.506576 
L 330.340386 233.04754 
L 330.74661 210.339784 
L 331.152835 285.776618 
L 331.559059 140.745243 
L 331.965283 250.625098 
L 332.371508 242.845878 
L 332.777732 257.660367 
L 333.183957 164.034947 
L 333.590181 275.461036 
L 333.996405 251.789631 
L 334.40263 276.381637 
L 334.808854 284.85626 
L 335.621303 239.044066 
L 336.027527 274.482417 
L 336.433752 156.788235 
L 336.839976 259.93636 
L 337.246201 233.232541 
L 337.652425 175.194959 
L 338.058649 275.017496 
L 338.464874 285.642178 
L 338.871098 43.790822 
L 339.277323 41.068098 
L 339.683547 185.610063 
L 340.089771 51.436023 
L 340.495996 268.273074 
L 340.90222 239.655203 
L 341.308445 37.661288 
L 341.714669 39.601166 
L 342.120893 236.889299 
L 342.527118 280.664549 
L 342.933342 259.754114 
L 343.339567 281.099271 
L 343.745791 37.25855 
L 344.152016 160.677695 
L 344.55824 54.364867 
L 344.964464 267.861518 
L 345.776913 48.217013 
L 346.183138 224.630166 
L 346.589362 275.477573 
L 346.995586 44.112415 
L 347.401811 52.107481 
L 348.21426 262.84397 
L 348.620484 56.823505 
L 349.026708 171.453606 
L 349.432933 163.233791 
L 349.839157 48.217013 
L 350.245382 154.449429 
L 350.651606 40.3438 
L 351.05783 144.61984 
L 351.464055 165.567473 
L 351.870279 166.841733 
L 352.276504 45.053423 
L 352.682728 36.437813 
L 353.088952 39.222829 
L 353.495177 158.999069 
L 353.901401 38.839733 
L 354.307626 145.165401 
L 354.71385 40.708213 
L 355.120074 173.213057 
L 355.526299 143.433587 
L 355.932523 160.440245 
L 356.338748 163.465165 
L 356.744972 36.850746 
L 357.151197 259.829267 
L 357.557421 275.264588 
L 357.963645 163.583135 
L 358.36987 176.494156 
L 358.776094 270.140682 
L 359.182319 37.661288 
L 359.588543 169.663769 
L 359.994767 48.217013 
L 360.400992 46.832809 
L 360.807216 239.869105 
L 361.213441 64.045489 
L 361.619665 287.856294 
L 362.025889 139.338256 
L 362.432114 252.724743 
L 362.838338 273.504006 
L 363.244563 273.127008 
L 363.650787 174.915972 
L 364.057011 241.180448 
L 364.463236 164.980513 
L 364.86946 178.391794 
L 365.275685 239.095266 
L 365.681909 266.623393 
L 366.088133 170.047665 
L 366.494358 245.32047 
L 366.900582 151.630251 
L 367.306807 285.037005 
L 367.713031 62.535182 
L 368.119255 260.054678 
L 368.52548 275.114511 
L 368.931704 280.466437 
L 369.337929 250.590006 
L 369.744153 166.370337 
L 370.150378 220.178298 
L 370.556602 46.832809 
L 370.962826 279.193348 
L 371.369051 256.838566 
L 371.775275 40.3438 
L 372.1815 173.663181 
L 372.587724 229.390853 
L 372.993948 142.788586 
L 373.400173 239.058152 
L 373.806397 260.874328 
L 374.212622 176.6253 
L 374.618846 38.451818 
L 375.431295 251.559298 
L 375.837519 261.196016 
L 376.243744 42.121154 
L 376.649968 43.465184 
L 377.056192 165.258308 
L 377.462417 201.857996 
L 377.868641 142.528985 
L 378.274866 249.711994 
L 378.68109 249.649442 
L 379.087314 220.997371 
L 379.493539 65.12404 
L 379.899763 151.884457 
L 380.305988 177.463954 
L 380.712212 254.842414 
L 381.118436 264.320089 
L 381.524661 241.867138 
L 381.930885 176.121053 
L 382.33711 44.743666 
L 382.743334 240.410091 
L 383.149559 279.028223 
L 383.555783 285.46745 
L 383.962007 273.095537 
L 384.368232 251.90761 
L 384.774456 237.875323 
L 385.180681 161.120367 
L 385.586905 286.961485 
L 385.993129 277.809471 
L 386.399354 165.377847 
L 386.805578 276.829041 
L 387.211803 45.053423 
L 387.618027 166.204603 
L 388.024251 157.920837 
L 388.430476 219.524086 
L 388.8367 175.696412 
L 389.242925 39.601166 
L 390.055373 278.347373 
L 390.461598 38.451818 
L 390.867822 173.015432 
L 391.274047 270.262576 
L 391.680271 42.121154 
L 392.086495 44.430013 
L 392.49272 273.969653 
L 392.898944 212.796899 
L 393.305169 274.038722 
L 393.711393 203.965689 
L 394.117617 167.026469 
L 394.523842 171.4209 
L 394.930066 52.541333 
L 395.336291 163.601174 
L 395.742515 154.951311 
L 396.14874 48.217013 
L 396.554964 39.222829 
L 396.961188 259.725811 
L 397.367413 271.127637 
L 397.773637 39.222829 
L 398.179862 275.074808 
L 398.586086 240.362858 
L 398.99231 277.290826 
L 399.398535 286.341086 
L 399.804759 169.813458 
L 400.210984 244.702205 
L 400.617208 177.554187 
L 401.023432 155.842975 
L 401.429657 51.662646 
L 401.835881 247.256168 
L 402.242106 36.850746 
L 402.64833 176.934929 
L 403.054554 45.053423 
L 403.460779 286.990872 
L 403.867003 172.290491 
L 404.273228 176.15953 
L 404.679452 60.273823 
L 405.085676 246.714923 
L 405.491901 168.256973 
L 405.898125 52.754225 
L 406.30435 53.172109 
L 406.710574 40.708213 
L 407.116798 286.432174 
L 407.523023 40.3438 
L 407.929247 173.470525 
L 408.335472 239.044066 
L 408.741696 242.481547 
L 409.147921 167.327079 
L 409.554145 286.166359 
L 409.960369 173.924877 
L 410.366594 169.706425 
L 410.772818 45.053423 
L 411.179043 166.820957 
L 411.585267 67.982488 
L 411.991491 40.3438 
L 412.397716 279.557088 
L 412.80394 275.936028 
L 413.210165 282.130433 
L 413.616389 165.756975 
L 414.022613 160.633738 
L 414.428838 42.463487 
L 414.835062 169.172644 
L 415.241287 168.399374 
L 415.647511 48.746921 
L 416.053735 275.462663 
L 416.866184 182.630095 
L 417.272409 259.069344 
L 417.678633 253.293357 
L 418.084857 146.085437 
L 418.491082 233.833827 
L 418.897306 222.278981 
L 419.303531 275.490982 
L 419.709755 64.64495 
L 420.115979 267.869431 
L 420.522204 168.399374 
L 420.928428 176.31567 
L 421.334653 162.425604 
L 421.740877 61.061831 
L 422.553326 259.304173 
L 422.95955 283.323068 
L 423.365775 280.576486 
L 423.771999 245.524536 
L 424.178224 275.670999 
L 424.584448 281.81256 
L 424.990672 271.735477 
L 425.396897 251.09264 
L 425.803121 172.896371 
L 426.209346 175.725669 
L 426.61557 219.70543 
L 427.021794 153.691041 
L 427.428019 245.737119 
L 427.834243 45.053423 
L 428.240468 252.513741 
L 428.646692 141.946833 
L 429.052916 168.693988 
L 429.459141 51.662646 
L 429.865365 49.767809 
L 430.27159 173.924877 
L 430.677814 231.669279 
L 431.084038 244.949227 
L 431.490263 45.959795 
L 431.896487 277.852014 
L 432.302712 38.059023 
L 432.708936 49.767809 
L 433.11516 282.002845 
L 433.521385 142.042134 
L 433.927609 229.366653 
L 434.333834 260.223207 
L 434.740058 158.215456 
L 435.146283 175.905262 
L 435.552507 50.738908 
L 435.958731 221.691219 
L 436.364956 165.756975 
L 436.77118 40.3438 
L 437.177405 254.203357 
L 437.583629 200.721712 
L 437.989853 251.837039 
L 438.396078 260.937545 
L 438.802302 46.545434 
L 439.208527 255.904335 
L 439.614751 36.437813 
L 440.020975 230.973869 
L 440.4272 275.682728 
L 440.833424 38.839733 
L 441.239649 280.196431 
L 442.052097 166.049298 
L 442.458322 277.080546 
L 442.864546 41.423514 
L 443.270771 38.839733 
L 443.676995 226.433422 
L 444.083219 153.902059 
L 444.489444 166.741014 
L 444.895668 264.159061 
L 445.301893 210.414761 
L 445.708117 265.409739 
L 446.114341 62.354326 
L 446.520566 158.672921 
L 446.92679 281.946062 
L 447.333015 279.177272 
L 447.739239 232.021136 
L 448.145464 283.091443 
L 448.551688 282.687321 
L 448.957912 264.58811 
L 449.364137 150.270214 
L 449.770361 162.691987 
L 450.176586 38.451818 
L 450.58281 44.743666 
L 450.989034 174.835932 
L 451.395259 175.482452 
L 451.801483 38.839733 
L 452.207708 250.34703 
L 452.613932 37.661288 
L 453.020156 36.850746 
L 453.426381 36.850746 
L 453.832605 246.895688 
L 454.23883 262.13909 
L 454.645054 136.504741 
L 455.051278 160.852578 
L 455.051278 160.852578 
" clip-path="url(#p7f1ac987df)" style="fill: none; stroke: #808080; stroke-opacity: 0.3; stroke-width: 1.5; stroke-linecap: square"/>
   </g>
   <g id="line2d_30">
    <path d="M 49.233097 200.449459 
L 49.639321 201.679137 
L 50.045545 200.631467 
L 50.45177 200.764154 
L 50.857994 201.585428 
L 51.264219 199.11029 
L 51.670443 201.170727 
L 52.076667 200.454591 
L 52.889116 197.925653 
L 53.295341 196.702773 
L 53.701565 196.713871 
L 54.107789 197.646426 
L 54.514014 196.251148 
L 54.920238 195.655126 
L 55.326463 196.412109 
L 56.545136 196.295584 
L 56.95136 195.108644 
L 57.357585 196.069678 
L 58.170034 195.52101 
L 58.576258 193.481717 
L 58.982482 193.710641 
L 59.388707 193.701513 
L 59.794931 192.965109 
L 60.201156 193.219698 
L 60.60738 194.285778 
L 61.013604 194.288146 
L 61.419829 195.385687 
L 61.826053 195.128107 
L 62.638502 195.114556 
L 63.044726 196.514571 
L 63.450951 196.483957 
L 63.857175 196.028189 
L 64.2634 195.380456 
L 65.075848 198.200278 
L 65.482073 197.405825 
L 65.888297 197.257883 
L 66.294522 199.325281 
L 66.700746 199.021287 
L 67.513195 198.910228 
L 67.919419 199.659434 
L 68.325644 199.393107 
L 68.731868 200.619679 
L 69.138092 203.126213 
L 69.950541 203.098625 
L 71.169215 200.505333 
L 71.575439 201.135344 
L 71.981663 200.951954 
L 72.387888 201.893709 
L 72.794112 201.915437 
L 73.200337 201.20479 
L 73.606561 201.334291 
L 74.41901 202.148735 
L 74.825234 202.97008 
L 75.231459 203.025794 
L 75.637683 204.239761 
L 76.043907 201.812559 
L 76.450132 200.747416 
L 76.856356 200.752253 
L 77.262581 203.272253 
L 77.668805 203.304218 
L 78.075029 202.273314 
L 78.481254 202.37871 
L 78.887478 202.601802 
L 79.293703 202.36477 
L 79.699927 201.376447 
L 80.106151 202.783056 
L 80.512376 202.571943 
L 80.9186 202.578456 
L 81.324825 201.802348 
L 81.731049 202.893005 
L 82.137273 203.561321 
L 82.543498 202.814571 
L 82.949722 201.729546 
L 83.355947 201.86218 
L 83.762171 201.760345 
L 84.168396 201.065109 
L 84.57462 201.834543 
L 85.387069 199.333955 
L 85.793293 200.191862 
L 86.199518 200.602603 
L 86.605742 201.494769 
L 87.418191 201.61998 
L 87.824415 201.398849 
L 88.23064 200.31494 
L 88.636864 201.443201 
L 89.043088 200.835183 
L 89.449313 200.855979 
L 89.855537 202.031562 
L 90.261762 200.917731 
L 90.667986 201.654245 
L 91.480435 202.136254 
L 91.886659 204.399574 
L 92.292884 204.714793 
L 93.105332 202.155201 
L 94.324006 202.106347 
L 94.73023 201.667366 
L 95.542679 204.163523 
L 95.948903 204.051468 
L 96.355128 203.479873 
L 96.761352 204.330534 
L 97.167577 204.777124 
L 97.573801 204.736147 
L 97.980025 204.565912 
L 98.38625 202.360333 
L 98.792474 202.590295 
L 99.198699 204.752762 
L 99.604923 204.984198 
L 100.417372 205.786703 
L 100.823596 205.778969 
L 101.229821 204.698678 
L 101.636045 204.434176 
L 102.042269 203.320352 
L 102.854718 203.687689 
L 103.667167 203.571123 
L 104.073391 203.022325 
L 104.479616 203.478523 
L 105.698289 203.432095 
L 106.104513 202.098396 
L 106.510738 202.127178 
L 106.916962 201.275538 
L 107.323187 201.565321 
L 107.729411 199.517463 
L 108.135635 199.264927 
L 108.948084 197.745454 
L 109.354309 197.322726 
L 109.760533 195.849532 
L 110.166758 196.729888 
L 110.572982 196.72628 
L 111.385431 194.070733 
L 111.791655 194.051136 
L 112.19788 193.661056 
L 112.604104 193.670509 
L 113.010328 192.723711 
L 113.416553 193.344106 
L 113.822777 193.353969 
L 114.229002 193.883762 
L 115.447675 192.029314 
L 115.853899 193.026454 
L 116.260124 191.554412 
L 116.666348 191.521185 
L 117.072572 192.499331 
L 117.478797 190.392723 
L 117.885021 189.293176 
L 118.291246 189.229193 
L 118.69747 190.188254 
L 119.103694 188.806944 
L 119.509919 188.36052 
L 119.916143 187.486964 
L 120.322368 188.589006 
L 120.728592 188.585387 
L 121.134816 187.847103 
L 121.541041 186.463423 
L 121.947265 186.598143 
L 122.35349 184.178316 
L 122.759714 183.517254 
L 123.165939 184.58548 
L 123.572163 186.874682 
L 123.978387 186.752706 
L 124.384612 184.822346 
L 125.603285 184.619863 
L 126.009509 185.884635 
L 126.415734 185.789796 
L 126.821958 186.507393 
L 127.228183 185.599822 
L 128.040631 186.25416 
L 128.446856 184.067702 
L 128.85308 185.216362 
L 129.259305 184.214835 
L 129.665529 182.78819 
L 130.071753 183.235888 
L 130.884202 183.367093 
L 131.290427 182.757292 
L 131.696651 183.329917 
L 132.102875 182.801384 
L 132.5091 181.917393 
L 132.915324 181.678378 
L 133.321549 182.794593 
L 134.133997 187.009759 
L 134.540222 188.416663 
L 134.946446 187.232356 
L 135.352671 187.24613 
L 135.758895 188.085285 
L 136.16512 186.928557 
L 137.790017 184.270047 
L 138.196242 184.19008 
L 138.602466 182.048425 
L 139.00869 184.436543 
L 139.414915 184.402054 
L 139.821139 183.638688 
L 140.633588 182.916519 
L 141.039812 183.241576 
L 141.446037 181.862938 
L 141.852261 181.852849 
L 142.258486 183.059101 
L 142.66471 182.98948 
L 143.070934 182.596283 
L 144.695832 186.911861 
L 145.102056 186.8871 
L 145.508281 186.566802 
L 145.914505 185.173324 
L 146.32073 185.088054 
L 146.726954 186.383604 
L 147.539403 183.89512 
L 147.945627 183.770776 
L 148.351852 185.627027 
L 148.758076 184.717677 
L 149.164301 184.448415 
L 149.570525 185.541944 
L 149.976749 185.805372 
L 150.382974 187.259588 
L 150.789198 186.125062 
L 151.195423 185.94739 
L 152.007871 189.947068 
L 152.414096 190.873087 
L 152.82032 190.623867 
L 153.226545 191.228864 
L 153.632769 192.102167 
L 154.038993 191.484185 
L 154.445218 190.166326 
L 154.851442 189.6105 
L 155.257667 188.333645 
L 155.663891 188.964899 
L 156.070115 188.875749 
L 156.47634 187.949391 
L 156.882564 188.326021 
L 157.288789 190.558684 
L 157.695013 190.548006 
L 158.101237 191.928086 
L 158.507462 192.801606 
L 158.913686 192.492044 
L 159.319911 192.365397 
L 159.726135 194.825819 
L 160.132359 192.767272 
L 160.538584 193.907991 
L 160.944808 192.832347 
L 162.163482 192.60172 
L 162.569706 193.21024 
L 162.97593 195.431384 
L 163.382155 195.317253 
L 163.788379 193.904213 
L 164.194604 193.700027 
L 164.600828 194.881505 
L 165.007052 197.096642 
L 165.413277 197.019771 
L 165.819501 196.29212 
L 166.225726 196.395723 
L 166.63195 197.420601 
L 167.038174 196.62778 
L 167.444399 196.974322 
L 167.850623 196.879631 
L 168.256848 196.668988 
L 168.663072 195.418071 
L 169.069296 197.671379 
L 169.475521 196.5752 
L 169.881745 196.163414 
L 170.28797 198.428243 
L 170.694194 198.284614 
L 171.100418 197.042826 
L 171.506643 197.915552 
L 172.319092 197.890423 
L 172.725316 197.592336 
L 173.13154 197.719611 
L 173.537765 197.66233 
L 173.943989 199.046714 
L 174.350214 199.337049 
L 174.756438 199.232379 
L 175.568887 200.942055 
L 175.975111 200.458998 
L 176.381336 200.492826 
L 177.193785 202.771934 
L 177.600009 202.801554 
L 178.412458 200.717683 
L 178.818682 200.92524 
L 179.224907 202.273549 
L 179.631131 200.01223 
L 180.037355 199.905161 
L 181.256029 201.272799 
L 181.662253 201.285144 
L 182.068477 203.223169 
L 182.474702 204.004895 
L 182.880926 203.721946 
L 183.287151 202.442716 
L 183.693375 202.747452 
L 184.099599 201.610755 
L 184.505824 199.25637 
L 184.912048 199.009289 
L 185.318273 196.749237 
L 185.724497 195.621512 
L 186.130721 195.834538 
L 186.536946 197.347083 
L 186.94317 197.358564 
L 187.349395 197.107457 
L 187.755619 199.400161 
L 188.161844 199.396032 
L 188.568068 200.17428 
L 188.974292 200.628784 
L 189.380517 200.838787 
L 189.786741 201.727452 
L 190.192966 201.172876 
L 190.59919 201.300417 
L 191.005414 200.891894 
L 191.411639 200.887999 
L 191.817863 201.087652 
L 192.224088 200.445902 
L 192.630312 200.641267 
L 193.036536 198.440907 
L 193.442761 197.09708 
L 193.848985 196.618252 
L 194.25521 196.343051 
L 194.661434 194.939642 
L 195.067658 196.621957 
L 195.473883 197.203029 
L 195.880107 198.604969 
L 196.286332 197.409286 
L 196.692556 198.409283 
L 197.505005 195.632207 
L 197.911229 195.383541 
L 198.317454 193.277965 
L 198.723678 193.037526 
L 199.129902 192.153395 
L 199.536127 193.566836 
L 199.942351 192.508497 
L 200.348576 190.036291 
L 200.7548 192.459312 
L 201.161025 192.780131 
L 201.973473 194.465638 
L 202.379698 194.398664 
L 202.785922 196.870502 
L 203.192147 197.371355 
L 203.598371 195.113517 
L 204.004595 195.827875 
L 204.41082 197.184017 
L 204.817044 197.43653 
L 205.223269 195.033682 
L 205.629493 194.026815 
L 206.035717 193.983385 
L 206.848166 195.98973 
L 207.254391 195.066522 
L 207.660615 193.725962 
L 208.066839 193.617653 
L 208.879288 193.747957 
L 209.691737 191.775886 
L 210.097961 192.546408 
L 210.504186 193.565005 
L 210.91041 192.714066 
L 211.316635 192.798617 
L 212.129083 192.767877 
L 212.535308 193.158442 
L 212.941532 192.344069 
L 213.753981 193.844996 
L 214.160206 191.785776 
L 214.56643 191.700001 
L 214.972654 190.473894 
L 215.378879 188.547181 
L 215.785103 188.307669 
L 216.191328 187.399995 
L 216.597552 186.096009 
L 217.003776 185.893291 
L 217.816225 181.141052 
L 218.22245 181.265695 
L 219.441123 181.090505 
L 219.847347 181.671671 
L 220.253572 182.784608 
L 220.659796 181.847971 
L 221.06602 181.355007 
L 221.878469 179.459083 
L 222.284694 177.00345 
L 222.690918 177.132126 
L 223.097142 176.819291 
L 223.503367 175.893395 
L 223.909591 175.900548 
L 224.315816 173.708116 
L 224.72204 172.367172 
L 225.128264 174.752145 
L 225.534489 174.577134 
L 225.940713 175.897626 
L 226.346938 174.565107 
L 226.753162 174.59945 
L 227.159387 173.082976 
L 227.565611 172.914103 
L 227.971835 174.222355 
L 228.37806 173.317078 
L 228.784284 175.616093 
L 229.190509 174.876953 
L 229.596733 174.46093 
L 230.002957 175.204796 
L 230.815406 173.857696 
L 231.221631 172.674828 
L 231.627855 170.637969 
L 232.034079 171.627704 
L 232.440304 170.218802 
L 232.846528 171.345349 
L 233.252753 170.307952 
L 234.065201 172.949444 
L 234.471426 172.317582 
L 234.87765 170.315034 
L 235.283875 172.096961 
L 235.690099 172.834476 
L 236.096323 172.094238 
L 236.908772 174.150639 
L 237.314997 173.097515 
L 237.721221 174.281476 
L 238.127445 176.679332 
L 238.53367 174.679325 
L 238.939894 174.602873 
L 239.752343 176.680446 
L 240.158568 176.645652 
L 240.564792 176.740024 
L 240.971016 177.772824 
L 241.377241 176.645422 
L 242.18969 176.652789 
L 242.595914 176.951954 
L 243.002138 177.599996 
L 243.408363 177.400647 
L 243.814587 176.315885 
L 244.220812 176.334805 
L 245.03326 174.398682 
L 245.439485 174.313426 
L 245.845709 176.261341 
L 246.251934 175.287303 
L 246.658158 175.189292 
L 247.470607 170.559958 
L 247.876831 170.561283 
L 248.283056 172.563867 
L 248.68928 172.556091 
L 249.095504 173.608917 
L 249.501729 171.40114 
L 249.907953 172.454736 
L 250.314178 173.102986 
L 250.720402 171.225661 
L 251.126626 170.614091 
L 251.532851 170.883956 
L 251.939075 169.911959 
L 252.3453 172.418359 
L 253.157749 168.510964 
L 253.563973 169.324121 
L 254.376422 168.491642 
L 254.782646 168.475631 
L 255.188871 167.312423 
L 255.595095 168.580033 
L 256.001319 170.973614 
L 256.407544 171.422198 
L 256.813768 172.102084 
L 257.219993 172.143646 
L 257.626217 171.566625 
L 258.032441 171.631515 
L 258.438666 173.006459 
L 258.84489 173.06719 
L 259.251115 175.130802 
L 259.657339 176.476142 
L 260.063563 177.253274 
L 260.469788 175.332007 
L 260.876012 176.228142 
L 261.282237 174.928625 
L 261.688461 176.068439 
L 262.094685 174.74289 
L 262.50091 175.78438 
L 262.907134 175.815206 
L 263.719583 174.542764 
L 264.125807 174.595575 
L 264.532032 176.752212 
L 264.938256 176.772102 
L 265.344481 178.826424 
L 265.750705 177.754217 
L 266.15693 177.311886 
L 266.563154 177.289469 
L 266.969378 179.552239 
L 267.375603 180.53581 
L 267.781827 180.531833 
L 268.188052 180.733585 
L 268.594276 180.458504 
L 269.0005 181.081032 
L 269.406725 180.159533 
L 269.812949 178.946229 
L 270.219174 178.448415 
L 270.625398 177.534357 
L 271.031622 178.285715 
L 271.437847 178.320381 
L 271.844071 177.137805 
L 272.250296 177.280052 
L 272.65652 175.220743 
L 273.062744 176.325944 
L 273.468969 175.111671 
L 273.875193 175.880198 
L 274.281418 176.268646 
L 274.687642 176.191514 
L 275.093866 176.822308 
L 275.500091 178.184795 
L 275.906315 178.459858 
L 276.31254 177.357924 
L 276.718764 178.596364 
L 277.124988 178.322976 
L 277.531213 177.301251 
L 277.937437 178.559951 
L 278.749886 176.280693 
L 279.156111 176.441831 
L 279.562335 176.435277 
L 279.968559 176.162645 
L 280.374784 175.715127 
L 280.781008 173.405095 
L 281.187233 173.597331 
L 281.593457 172.609129 
L 281.999681 173.816038 
L 282.405906 173.624757 
L 282.81213 173.913022 
L 283.218355 173.012102 
L 283.624579 172.907685 
L 284.030803 172.995781 
L 284.843252 172.910634 
L 286.061925 169.645351 
L 286.46815 167.794505 
L 286.874374 170.010702 
L 287.280599 170.013523 
L 288.093047 174.715578 
L 288.499272 175.42968 
L 288.905496 174.651584 
L 289.311721 172.356168 
L 289.717945 172.353964 
L 290.124169 174.199603 
L 291.749067 176.777641 
L 292.155292 177.157967 
L 292.561516 178.085977 
L 292.96774 176.851418 
L 293.780189 181.218107 
L 294.186414 181.447911 
L 294.592638 181.853581 
L 294.998862 182.429405 
L 295.405087 184.451338 
L 295.811311 185.580167 
L 296.217536 184.295901 
L 296.62376 184.109456 
L 297.436209 183.05983 
L 297.842433 185.330535 
L 298.248658 186.301506 
L 298.654882 186.271087 
L 299.061106 184.914595 
L 299.467331 185.039401 
L 299.873555 183.027604 
L 300.27978 182.846013 
L 301.092228 182.839242 
L 301.498453 180.718792 
L 301.904677 182.616519 
L 302.310902 182.568999 
L 302.717126 184.725416 
L 303.12335 184.929014 
L 303.935799 184.726044 
L 304.342024 183.604461 
L 304.748248 184.7241 
L 305.154473 183.746089 
L 305.560697 183.839862 
L 305.966921 183.632094 
L 306.373146 184.693512 
L 307.185595 181.937767 
L 307.591819 180.8197 
L 307.998043 180.783678 
L 308.404268 180.9753 
L 308.810492 180.947763 
L 309.216717 180.133979 
L 309.622941 178.237687 
L 310.029165 178.040287 
L 310.43539 177.972559 
L 310.841614 177.657462 
L 311.247839 177.716155 
L 311.654063 176.980725 
L 312.060287 175.72729 
L 312.872736 175.451499 
L 313.278961 176.620278 
L 313.685185 175.526861 
L 314.091409 175.420879 
L 314.497634 173.456014 
L 315.310083 172.824683 
L 315.716307 172.075793 
L 316.122531 171.979449 
L 316.528756 169.906449 
L 316.93498 170.822467 
L 317.341205 170.743605 
L 317.747429 169.836589 
L 318.153654 169.945098 
L 318.559878 169.792339 
L 320.591 169.817936 
L 320.997224 168.165061 
L 321.403449 170.575296 
L 321.809673 170.262632 
L 322.215898 172.368668 
L 322.622122 172.236802 
L 323.028346 172.351227 
L 323.434571 171.257246 
L 323.840795 171.777929 
L 324.24702 171.180096 
L 324.653244 170.207416 
L 325.059468 170.875464 
L 325.465693 173.15718 
L 325.871917 174.493278 
L 326.278142 176.49289 
L 326.684366 176.260233 
L 327.09059 178.578882 
L 327.496815 176.373216 
L 327.903039 177.473917 
L 329.527937 177.496505 
L 329.934161 179.284053 
L 330.340386 176.927315 
L 331.152835 177.853761 
L 331.559059 175.399433 
L 331.965283 175.728612 
L 332.371508 175.51627 
L 332.777732 174.515697 
L 333.183957 174.329675 
L 333.590181 175.298069 
L 333.996405 174.309711 
L 334.40263 172.176333 
L 334.808854 170.953093 
L 335.215079 170.620123 
L 335.621303 170.603085 
L 336.433752 166.323684 
L 336.839976 166.408384 
L 337.246201 165.827601 
L 337.652425 164.920565 
L 338.058649 165.665735 
L 338.464874 165.412055 
L 338.871098 164.765607 
L 339.277323 164.978939 
L 339.683547 166.087103 
L 340.089771 166.005642 
L 340.495996 168.039705 
L 341.308445 168.022295 
L 341.714669 169.406893 
L 342.933342 169.477162 
L 343.339567 169.734296 
L 343.745791 169.654258 
L 344.152016 171.800749 
L 344.55824 172.572725 
L 344.964464 173.64028 
L 345.370689 173.83128 
L 346.183138 176.188122 
L 346.589362 176.710111 
L 346.995586 174.405869 
L 347.808035 176.684925 
L 348.21426 177.343236 
L 348.620484 176.47176 
L 349.432933 176.037639 
L 349.839157 177.188774 
L 350.245382 177.091122 
L 350.651606 177.276782 
L 351.05783 179.57597 
L 351.870279 177.339609 
L 352.276504 178.410888 
L 352.682728 180.088323 
L 353.088952 182.464332 
L 353.495177 184.11176 
L 353.901401 184.192034 
L 354.307626 185.517846 
L 354.71385 184.591605 
L 355.120074 185.820535 
L 355.526299 185.637918 
L 356.338748 183.473578 
L 356.744972 184.436184 
L 357.151197 186.778953 
L 357.557421 184.572889 
L 357.963645 184.570991 
L 358.36987 185.338788 
L 358.776094 186.346755 
L 359.182319 186.508759 
L 359.588543 187.830281 
L 359.994767 188.580665 
L 360.807216 190.964138 
L 361.213441 189.082074 
L 361.619665 190.914181 
L 362.025889 188.404125 
L 362.432114 188.780092 
L 362.838338 186.703379 
L 363.244563 186.838247 
L 363.650787 185.829882 
L 364.057011 185.842318 
L 364.463236 184.033251 
L 364.86946 184.850595 
L 365.275685 184.749247 
L 366.494358 179.45793 
L 366.900582 179.869047 
L 367.713031 177.640517 
L 368.119255 179.405606 
L 368.52548 179.229875 
L 368.931704 178.152 
L 369.337929 178.209 
L 369.744153 177.442348 
L 370.150378 177.475709 
L 370.556602 175.724461 
L 370.962826 176.924342 
L 371.775275 172.647286 
L 372.1815 175.039419 
L 372.587724 176.062147 
L 372.993948 176.589543 
L 373.400173 176.819227 
L 373.806397 176.034983 
L 374.212622 173.850874 
L 374.618846 173.776348 
L 375.02507 175.075823 
L 375.431295 174.022716 
L 375.837519 174.26175 
L 376.243744 173.892926 
L 376.649968 175.298016 
L 377.056192 177.454057 
L 377.462417 178.334408 
L 377.868641 177.776682 
L 378.274866 178.689731 
L 378.68109 178.415401 
L 379.087314 178.673816 
L 379.493539 177.110292 
L 379.899763 179.137746 
L 380.305988 179.302895 
L 380.712212 179.291412 
L 381.118436 178.367244 
L 381.524661 176.334661 
L 381.930885 175.549497 
L 382.33711 176.381329 
L 382.743334 178.767123 
L 383.149559 179.168786 
L 383.555783 178.83375 
L 383.962007 178.735785 
L 384.774456 179.021234 
L 385.586905 179.271167 
L 385.993129 178.158809 
L 386.399354 177.577769 
L 386.805578 177.460901 
L 387.211803 177.149981 
L 387.618027 177.149981 
L 388.024251 178.013073 
L 388.430476 177.853333 
L 388.8367 177.345032 
L 389.242925 176.104694 
L 389.649149 176.206361 
L 390.055373 176.492971 
L 390.461598 176.02619 
L 390.867822 178.091164 
L 391.274047 176.820608 
L 391.680271 176.896502 
L 392.49272 176.909259 
L 392.898944 176.989591 
L 393.305169 176.282043 
L 393.711393 175.835323 
L 394.117617 176.397898 
L 394.523842 176.309788 
L 395.336291 176.336607 
L 395.742515 176.917508 
L 396.14874 177.025564 
L 396.554964 176.946832 
L 396.961188 179.096637 
L 397.367413 178.506596 
L 397.773637 178.31369 
L 398.179862 180.530838 
L 398.586086 178.245544 
L 398.99231 178.400959 
L 399.398535 175.992428 
L 399.804759 175.438756 
L 400.210984 176.497449 
L 400.617208 174.438824 
L 401.023432 175.465247 
L 401.429657 176.062009 
L 401.835881 177.205875 
L 402.242106 177.504119 
L 402.64833 177.549847 
L 403.054554 176.168895 
L 403.460779 177.982695 
L 403.867003 176.651807 
L 404.273228 176.596312 
L 404.679452 177.476307 
L 405.085676 178.977716 
L 405.491901 179.164665 
L 405.898125 178.105638 
L 406.30435 179.164825 
L 407.116798 183.837255 
L 407.523023 183.293145 
L 407.929247 185.720621 
L 408.335472 186.812789 
L 408.741696 187.06823 
L 409.147921 186.146116 
L 409.554145 186.099765 
L 409.960369 183.62262 
L 410.366594 182.330808 
L 410.772818 182.382103 
L 411.179043 183.686393 
L 411.585267 182.406581 
L 411.991491 184.230226 
L 412.397716 184.203401 
L 413.210165 179.385485 
L 413.616389 179.033138 
L 414.022613 179.996959 
L 414.428838 179.755669 
L 414.835062 180.93956 
L 414.835062 180.93956 
" clip-path="url(#p7f1ac987df)" style="fill: none; stroke: #0000ff; stroke-width: 1.5; stroke-linecap: square"/>
   </g>
   <g id="patch_3">
    <path d="M 28.942188 301.037812 
L 28.942188 23.837813 
" style="fill: none; stroke: #000000; stroke-width: 0.8; stroke-linejoin: miter; stroke-linecap: square"/>
   </g>
   <g id="patch_4">
    <path d="M 475.342187 301.037812 
L 475.342187 23.837813 
" style="fill: none; stroke: #000000; stroke-width: 0.8; stroke-linejoin: miter; stroke-linecap: square"/>
   </g>
   <g id="patch_5">
    <path d="M 28.942188 301.037813 
L 475.342187 301.037813 
" style="fill: none; stroke: #000000; stroke-width: 0.8; stroke-linejoin: miter; stroke-linecap: square"/>
   </g>
   <g id="patch_6">
    <path d="M 28.942188 23.837813 
L 475.342187 23.837813 
" style="fill: none; stroke: #000000; stroke-width: 0.8; stroke-linejoin: miter; stroke-linecap: square"/>
   </g>
   <g id="text_15">
    <!-- Training Rewards -->
    <g transform="translate(192.585312 17.837813) scale(0.14 -0.14)">
     <defs>
      <path id="DejaVuSans-54" d="M -19 4666 
L 3928 4666 
L 3928 4134 
L 2272 4134 
L 2272 0 
L 1638 0 
L 1638 4134 
L -19 4134 
L -19 4666 
z
" transform="scale(0.015625)"/>
      <path id="DejaVuSans-72" d="M 2631 2963 
Q 2534 3019 2420 3045 
Q 2306 3072 2169 3072 
Q 1681 3072 1420 2755 
Q 1159 2438 1159 1844 
L 1159 0 
L 581 0 
L 581 3500 
L 1159 3500 
L 1159 2956 
Q 1341 3275 1631 3429 
Q 1922 3584 2338 3584 
Q 2397 3584 2469 3576 
Q 2541 3569 2628 3553 
L 2631 2963 
z
" transform="scale(0.015625)"/>
      <path id="DejaVuSans-61" d="M 2194 1759 
Q 1497 1759 1228 1600 
Q 959 1441 959 1056 
Q 959 750 1161 570 
Q 1363 391 1709 391 
Q 2188 391 2477 730 
Q 2766 1069 2766 1631 
L 2766 1759 
L 2194 1759 
z
M 3341 1997 
L 3341 0 
L 2766 0 
L 2766 531 
Q 2569 213 2275 61 
Q 1981 -91 1556 -91 
Q 1019 -91 701 211 
Q 384 513 384 1019 
Q 384 1609 779 1909 
Q 1175 2209 1959 2209 
L 2766 2209 
L 2766 2266 
Q 2766 2663 2505 2880 
Q 2244 3097 1772 3097 
Q 1472 3097 1187 3025 
Q 903 2953 641 2809 
L 641 3341 
Q 956 3463 1253 3523 
Q 1550 3584 1831 3584 
Q 2591 3584 2966 3190 
Q 3341 2797 3341 1997 
z
" transform="scale(0.015625)"/>
      <path id="DejaVuSans-69" d="M 603 3500 
L 1178 3500 
L 1178 0 
L 603 0 
L 603 3500 
z
M 603 4863 
L 1178 4863 
L 1178 4134 
L 603 4134 
L 603 4863 
z
" transform="scale(0.015625)"/>
      <path id="DejaVuSans-6e" d="M 3513 2113 
L 3513 0 
L 2938 0 
L 2938 2094 
Q 2938 2591 2744 2837 
Q 2550 3084 2163 3084 
Q 1697 3084 1428 2787 
Q 1159 2491 1159 1978 
L 1159 0 
L 581 0 
L 581 3500 
L 1159 3500 
L 1159 2956 
Q 1366 3272 1645 3428 
Q 1925 3584 2291 3584 
Q 2894 3584 3203 3211 
Q 3513 2838 3513 2113 
z
" transform="scale(0.015625)"/>
      <path id="DejaVuSans-67" d="M 2906 1791 
Q 2906 2416 2648 2759 
Q 2391 3103 1925 3103 
Q 1463 3103 1205 2759 
Q 947 2416 947 1791 
Q 947 1169 1205 825 
Q 1463 481 1925 481 
Q 2391 481 2648 825 
Q 2906 1169 2906 1791 
z
M 3481 434 
Q 3481 -459 3084 -895 
Q 2688 -1331 1869 -1331 
Q 1566 -1331 1297 -1286 
Q 1028 -1241 775 -1147 
L 775 -588 
Q 1028 -725 1275 -790 
Q 1522 -856 1778 -856 
Q 2344 -856 2625 -561 
Q 2906 -266 2906 331 
L 2906 616 
Q 2728 306 2450 153 
Q 2172 0 1784 0 
Q 1141 0 747 490 
Q 353 981 353 1791 
Q 353 2603 747 3093 
Q 1141 3584 1784 3584 
Q 2172 3584 2450 3431 
Q 2728 3278 2906 2969 
L 2906 3500 
L 3481 3500 
L 3481 434 
z
" transform="scale(0.015625)"/>
      <path id="DejaVuSans-20" transform="scale(0.015625)"/>
      <path id="DejaVuSans-52" d="M 2841 2188 
Q 3044 2119 3236 1894 
Q 3428 1669 3622 1275 
L 4263 0 
L 3584 0 
L 2988 1197 
Q 2756 1666 2539 1819 
Q 2322 1972 1947 1972 
L 1259 1972 
L 1259 0 
L 628 0 
L 628 4666 
L 2053 4666 
Q 2853 4666 3247 4331 
Q 3641 3997 3641 3322 
Q 3641 2881 3436 2590 
Q 3231 2300 2841 2188 
z
M 1259 4147 
L 1259 2491 
L 2053 2491 
Q 2509 2491 2742 2702 
Q 2975 2913 2975 3322 
Q 2975 3731 2742 3939 
Q 2509 4147 2053 4147 
L 1259 4147 
z
" transform="scale(0.015625)"/>
      <path id="DejaVuSans-65" d="M 3597 1894 
L 3597 1613 
L 953 1613 
Q 991 1019 1311 708 
Q 1631 397 2203 397 
Q 2534 397 2845 478 
Q 3156 559 3463 722 
L 3463 178 
Q 3153 47 2828 -22 
Q 2503 -91 2169 -91 
Q 1331 -91 842 396 
Q 353 884 353 1716 
Q 353 2575 817 3079 
Q 1281 3584 2069 3584 
Q 2775 3584 3186 3129 
Q 3597 2675 3597 1894 
z
M 3022 2063 
Q 3016 2534 2758 2815 
Q 2500 3097 2075 3097 
Q 1594 3097 1305 2825 
Q 1016 2553 972 2059 
L 3022 2063 
z
" transform="scale(0.015625)"/>
      <path id="DejaVuSans-77" d="M 269 3500 
L 844 3500 
L 1563 769 
L 2278 3500 
L 2956 3500 
L 3675 769 
L 4391 3500 
L 4966 3500 
L 4050 0 
L 3372 0 
L 2619 2869 
L 1863 0 
L 1184 0 
L 269 3500 
z
" transform="scale(0.015625)"/>
      <path id="DejaVuSans-64" d="M 2906 2969 
L 2906 4863 
L 3481 4863 
L 3481 0 
L 2906 0 
L 2906 525 
Q 2725 213 2448 61 
Q 2172 -91 1784 -91 
Q 1150 -91 751 415 
Q 353 922 353 1747 
Q 353 2572 751 3078 
Q 1150 3584 1784 3584 
Q 2172 3584 2448 3432 
Q 2725 3281 2906 2969 
z
M 947 1747 
Q 947 1113 1208 752 
Q 1469 391 1925 391 
Q 2381 391 2643 752 
Q 2906 1113 2906 1747 
Q 2906 2381 2643 2742 
Q 2381 3103 1925 3103 
Q 1469 3103 1208 2742 
Q 947 2381 947 1747 
z
" transform="scale(0.015625)"/>
      <path id="DejaVuSans-73" d="M 2834 3397 
L 2834 2853 
Q 2591 2978 2328 3040 
Q 2066 3103 1784 3103 
Q 1356 3103 1142 2972 
Q 928 2841 928 2578 
Q 928 2378 1081 2264 
Q 1234 2150 1697 2047 
L 1894 2003 
Q 2506 1872 2764 1633 
Q 3022 1394 3022 966 
Q 3022 478 2636 193 
Q 2250 -91 1575 -91 
Q 1294 -91 989 -36 
Q 684 19 347 128 
L 347 722 
Q 666 556 975 473 
Q 1284 391 1588 391 
Q 1994 391 2212 530 
Q 2431 669 2431 922 
Q 2431 1156 2273 1281 
Q 2116 1406 1581 1522 
L 1381 1569 
Q 847 1681 609 1914 
Q 372 2147 372 2553 
Q 372 3047 722 3315 
Q 1072 3584 1716 3584 
Q 2034 3584 2315 3537 
Q 2597 3491 2834 3397 
z
" transform="scale(0.015625)"/>
     </defs>
     <use xlink:href="#DejaVuSans-54"/>
     <use xlink:href="#DejaVuSans-72" transform="translate(46.333984 0)"/>
     <use xlink:href="#DejaVuSans-61" transform="translate(87.447266 0)"/>
     <use xlink:href="#DejaVuSans-69" transform="translate(148.726562 0)"/>
     <use xlink:href="#DejaVuSans-6e" transform="translate(176.509766 0)"/>
     <use xlink:href="#DejaVuSans-69" transform="translate(239.888672 0)"/>
     <use xlink:href="#DejaVuSans-6e" transform="translate(267.671875 0)"/>
     <use xlink:href="#DejaVuSans-67" transform="translate(331.050781 0)"/>
     <use xlink:href="#DejaVuSans-20" transform="translate(394.527344 0)"/>
     <use xlink:href="#DejaVuSans-52" transform="translate(426.314453 0)"/>
     <use xlink:href="#DejaVuSans-65" transform="translate(491.296875 0)"/>
     <use xlink:href="#DejaVuSans-77" transform="translate(552.820312 0)"/>
     <use xlink:href="#DejaVuSans-61" transform="translate(634.607422 0)"/>
     <use xlink:href="#DejaVuSans-72" transform="translate(695.886719 0)"/>
     <use xlink:href="#DejaVuSans-64" transform="translate(735.25 0)"/>
     <use xlink:href="#DejaVuSans-73" transform="translate(798.726562 0)"/>
    </g>
   </g>
   <g id="legend_1">
    <g id="patch_7">
     <path d="M 35.942188 61.194063 
L 155.839063 61.194063 
Q 157.839063 61.194063 157.839063 59.194063 
L 157.839063 30.837813 
Q 157.839063 28.837813 155.839063 28.837813 
L 35.942188 28.837813 
Q 33.942188 28.837813 33.942188 30.837813 
L 33.942188 59.194063 
Q 33.942188 61.194063 35.942188 61.194063 
z
" style="fill: #ffffff; opacity: 0.8; stroke: #cccccc; stroke-linejoin: miter"/>
    </g>
    <g id="line2d_31">
     <path d="M 37.942188 36.93625 
L 47.942188 36.93625 
L 57.942188 36.93625 
" style="fill: none; stroke: #808080; stroke-opacity: 0.3; stroke-width: 1.5; stroke-linecap: square"/>
    </g>
    <g id="text_16">
     <!-- Raw -->
     <g transform="translate(65.942188 40.43625) scale(0.1 -0.1)">
      <use xlink:href="#DejaVuSans-52"/>
      <use xlink:href="#DejaVuSans-61" transform="translate(67.232422 0)"/>
      <use xlink:href="#DejaVuSans-77" transform="translate(128.511719 0)"/>
     </g>
    </g>
    <g id="line2d_32">
     <path d="M 37.942188 51.614375 
L 47.942188 51.614375 
L 57.942188 51.614375 
" style="fill: none; stroke: #0000ff; stroke-width: 1.5; stroke-linecap: square"/>
    </g>
    <g id="text_17">
     <!-- Moving Avg (100) -->
     <g transform="translate(65.942188 55.114375) scale(0.1 -0.1)">
      <defs>
       <path id="DejaVuSans-4d" d="M 628 4666 
L 1569 4666 
L 2759 1491 
L 3956 4666 
L 4897 4666 
L 4897 0 
L 4281 0 
L 4281 4097 
L 3078 897 
L 2444 897 
L 1241 4097 
L 1241 0 
L 628 0 
L 628 4666 
z
" transform="scale(0.015625)"/>
       <path id="DejaVuSans-6f" d="M 1959 3097 
Q 1497 3097 1228 2736 
Q 959 2375 959 1747 
Q 959 1119 1226 758 
Q 1494 397 1959 397 
Q 2419 397 2687 759 
Q 2956 1122 2956 1747 
Q 2956 2369 2687 2733 
Q 2419 3097 1959 3097 
z
M 1959 3584 
Q 2709 3584 3137 3096 
Q 3566 2609 3566 1747 
Q 3566 888 3137 398 
Q 2709 -91 1959 -91 
Q 1206 -91 779 398 
Q 353 888 353 1747 
Q 353 2609 779 3096 
Q 1206 3584 1959 3584 
z
" transform="scale(0.015625)"/>
       <path id="DejaVuSans-76" d="M 191 3500 
L 800 3500 
L 1894 563 
L 2988 3500 
L 3597 3500 
L 2284 0 
L 1503 0 
L 191 3500 
z
" transform="scale(0.015625)"/>
       <path id="DejaVuSans-41" d="M 2188 4044 
L 1331 1722 
L 3047 1722 
L 2188 4044 
z
M 1831 4666 
L 2547 4666 
L 4325 0 
L 3669 0 
L 3244 1197 
L 1141 1197 
L 716 0 
L 50 0 
L 1831 4666 
z
" transform="scale(0.015625)"/>
       <path id="DejaVuSans-28" d="M 1984 4856 
Q 1566 4138 1362 3434 
Q 1159 2731 1159 2009 
Q 1159 1288 1364 580 
Q 1569 -128 1984 -844 
L 1484 -844 
Q 1016 -109 783 600 
Q 550 1309 550 2009 
Q 550 2706 781 3412 
Q 1013 4119 1484 4856 
L 1984 4856 
z
" transform="scale(0.015625)"/>
       <path id="DejaVuSans-29" d="M 513 4856 
L 1013 4856 
Q 1481 4119 1714 3412 
Q 1947 2706 1947 2009 
Q 1947 1309 1714 600 
Q 1481 -109 1013 -844 
L 513 -844 
Q 928 -128 1133 580 
Q 1338 1288 1338 2009 
Q 1338 2731 1133 3434 
Q 928 4138 513 4856 
z
" transform="scale(0.015625)"/>
      </defs>
      <use xlink:href="#DejaVuSans-4d"/>
      <use xlink:href="#DejaVuSans-6f" transform="translate(86.279297 0)"/>
      <use xlink:href="#DejaVuSans-76" transform="translate(147.460938 0)"/>
      <use xlink:href="#DejaVuSans-69" transform="translate(206.640625 0)"/>
      <use xlink:href="#DejaVuSans-6e" transform="translate(234.423828 0)"/>
      <use xlink:href="#DejaVuSans-67" transform="translate(297.802734 0)"/>
      <use xlink:href="#DejaVuSans-20" transform="translate(361.279297 0)"/>
      <use xlink:href="#DejaVuSans-41" transform="translate(393.066406 0)"/>
      <use xlink:href="#DejaVuSans-76" transform="translate(455.599609 0)"/>
      <use xlink:href="#DejaVuSans-67" transform="translate(514.779297 0)"/>
      <use xlink:href="#DejaVuSans-20" transform="translate(578.255859 0)"/>
      <use xlink:href="#DejaVuSans-28" transform="translate(610.042969 0)"/>
      <use xlink:href="#DejaVuSans-31" transform="translate(649.056641 0)"/>
      <use xlink:href="#DejaVuSans-30" transform="translate(712.679688 0)"/>
      <use xlink:href="#DejaVuSans-30" transform="translate(776.302734 0)"/>
      <use xlink:href="#DejaVuSans-29" transform="translate(839.925781 0)"/>
     </g>
    </g>
   </g>
  </g>
 </g>
 <defs>
  <clipPath id="p7f1ac987df">
   <rect x="28.942188" y="23.837813" width="446.4" height="277.2"/>
  </clipPath>
 </defs>
</svg>
