<?xml version="1.0" encoding="utf-8" standalone="no"?>
<!DOCTYPE svg PUBLIC "-//W3C//DTD SVG 1.1//EN"
  "http://www.w3.org/Graphics/SVG/1.1/DTD/svg11.dtd">
<svg xmlns:xlink="http://www.w3.org/1999/xlink" width="482.542187pt" height="324.915938pt" viewBox="0 0 482.542187 324.915938" xmlns="http://www.w3.org/2000/svg" version="1.1">
 <metadata>
  <rdf:RDF xmlns:dc="http://purl.org/dc/elements/1.1/" xmlns:cc="http://creativecommons.org/ns#" xmlns:rdf="http://www.w3.org/1999/02/22-rdf-syntax-ns#">
   <cc:Work>
    <dc:type rdf:resource="http://purl.org/dc/dcmitype/StillImage"/>
    <dc:date>2026-07-07T12:34:42.044301</dc:date>
    <dc:format>image/svg+xml</dc:format>
    <dc:creator>
     <cc:Agent>
      <dc:title>Matplotlib v3.10.9, https://matplotlib.org/</dc:title>
     </cc:Agent>
    </dc:creator>
   </cc:Work>
  </rdf:RDF>
 </metadata>
 <defs>
  <style type="text/css">*{stroke-linejoin: round; stroke-linecap: butt}</style>
 </defs>
 <g id="figure_1">
  <g id="patch_1">
   <path d="M 0 324.915938 
L 482.542187 324.915938 
L 482.542187 0 
L 0 0 
z
" style="fill: #ffffff"/>
  </g>
  <g id="axes_1">
   <g id="patch_2">
    <path d="M 28.942188 301.037813 
L 475.342187 301.037813 
L 475.342187 23.837813 
L 28.942188 23.837813 
z
" style="fill: #ffffff"/>
   </g>
   <g id="matplotlib.axis_1">
    <g id="xtick_1">
     <g id="line2d_1">
      <path d="M 49.233097 301.037813 
L 49.233097 23.837813 
" clip-path="url(#p7eee489a79)" style="fill: none; stroke: #b0b0b0; stroke-opacity: 0.3; stroke-width: 0.8; stroke-linecap: square"/>
     </g>
     <g id="line2d_2">
      <defs>
       <path id="m846fae3938" d="M 0 0 
L 0 3.5 
" style="stroke: #000000; stroke-width: 0.8"/>
      </defs>
      <g>
       <use xlink:href="#m846fae3938" x="49.233097" y="301.037813" style="stroke: #000000; stroke-width: 0.8"/>
      </g>
     </g>
     <g id="text_1">
      <!-- 0 -->
      <g transform="translate(46.051847 315.63625) scale(0.1 -0.1)">
       <defs>
        <path id="DejaVuSans-30" d="M 2034 4250 
Q 1547 4250 1301 3770 
Q 1056 3291 1056 2328 
Q 1056 1369 1301 889 
Q 1547 409 2034 409 
Q 2525 409 2770 889 
Q 3016 1369 3016 2328 
Q 3016 3291 2770 3770 
Q 2525 4250 2034 4250 
z
M 2034 4750 
Q 2819 4750 3233 4129 
Q 3647 3509 3647 2328 
Q 3647 1150 3233 529 
Q 2819 -91 2034 -91 
Q 1250 -91 836 529 
Q 422 1150 422 2328 
Q 422 3509 836 4129 
Q 1250 4750 2034 4750 
z
" transform="scale(0.015625)"/>
       </defs>
       <use xlink:href="#DejaVuSans-30"/>
      </g>
     </g>
    </g>
    <g id="xtick_2">
     <g id="line2d_3">
      <path d="M 130.477978 301.037813 
L 130.477978 23.837813 
" clip-path="url(#p7eee489a79)" style="fill: none; stroke: #b0b0b0; stroke-opacity: 0.3; stroke-width: 0.8; stroke-linecap: square"/>
     </g>
     <g id="line2d_4">
      <g>
       <use xlink:href="#m846fae3938" x="130.477978" y="301.037813" style="stroke: #000000; stroke-width: 0.8"/>
      </g>
     </g>
     <g id="text_2">
      <!-- 200 -->
      <g transform="translate(120.934228 315.63625) scale(0.1 -0.1)">
       <defs>
        <path id="DejaVuSans-32" d="M 1228 531 
L 3431 531 
L 3431 0 
L 469 0 
L 469 531 
Q 828 903 1448 1529 
Q 2069 2156 2228 2338 
Q 2531 2678 2651 2914 
Q 2772 3150 2772 3378 
Q 2772 3750 2511 3984 
Q 2250 4219 1831 4219 
Q 1534 4219 1204 4116 
Q 875 4013 500 3803 
L 500 4441 
Q 881 4594 1212 4672 
Q 1544 4750 1819 4750 
Q 2544 4750 2975 4387 
Q 3406 4025 3406 3419 
Q 3406 3131 3298 2873 
Q 3191 2616 2906 2266 
Q 2828 2175 2409 1742 
Q 1991 1309 1228 531 
z
" transform="scale(0.015625)"/>
       </defs>
       <use xlink:href="#DejaVuSans-32"/>
       <use xlink:href="#DejaVuSans-30" transform="translate(63.623047 0)"/>
       <use xlink:href="#DejaVuSans-30" transform="translate(127.246094 0)"/>
      </g>
     </g>
    </g>
    <g id="xtick_3">
     <g id="line2d_5">
      <path d="M 211.722859 301.037813 
L 211.722859 23.837813 
" clip-path="url(#p7eee489a79)" style="fill: none; stroke: #b0b0b0; stroke-opacity: 0.3; stroke-width: 0.8; stroke-linecap: square"/>
     </g>
     <g id="line2d_6">
      <g>
       <use xlink:href="#m846fae3938" x="211.722859" y="301.037813" style="stroke: #000000; stroke-width: 0.8"/>
      </g>
     </g>
     <g id="text_3">
      <!-- 400 -->
      <g transform="translate(202.179109 315.63625) scale(0.1 -0.1)">
       <defs>
        <path id="DejaVuSans-34" d="M 2419 4116 
L 825 1625 
L 2419 1625 
L 2419 4116 
z
M 2253 4666 
L 3047 4666 
L 3047 1625 
L 3713 1625 
L 3713 1100 
L 3047 1100 
L 3047 0 
L 2419 0 
L 2419 1100 
L 313 1100 
L 313 1709 
L 2253 4666 
z
" transform="scale(0.015625)"/>
       </defs>
       <use xlink:href="#DejaVuSans-34"/>
       <use xlink:href="#DejaVuSans-30" transform="translate(63.623047 0)"/>
       <use xlink:href="#DejaVuSans-30" transform="translate(127.246094 0)"/>
      </g>
     </g>
    </g>
    <g id="xtick_4">
     <g id="line2d_7">
      <path d="M 292.96774 301.037813 
L 292.96774 23.837813 
" clip-path="url(#p7eee489a79)" style="fill: none; stroke: #b0b0b0; stroke-opacity: 0.3; stroke-width: 0.8; stroke-linecap: square"/>
     </g>
     <g id="line2d_8">
      <g>
       <use xlink:href="#m846fae3938" x="292.96774" y="301.037813" style="stroke: #000000; stroke-width: 0.8"/>
      </g>
     </g>
     <g id="text_4">
      <!-- 600 -->
      <g transform="translate(283.42399 315.63625) scale(0.1 -0.1)">
       <defs>
        <path id="DejaVuSans-36" d="M 2113 2584 
Q 1688 2584 1439 2293 
Q 1191 2003 1191 1497 
Q 1191 994 1439 701 
Q 1688 409 2113 409 
Q 2538 409 2786 701 
Q 3034 994 3034 1497 
Q 3034 2003 2786 2293 
Q 2538 2584 2113 2584 
z
M 3366 4563 
L 3366 3988 
Q 3128 4100 2886 4159 
Q 2644 4219 2406 4219 
Q 1781 4219 1451 3797 
Q 1122 3375 1075 2522 
Q 1259 2794 1537 2939 
Q 1816 3084 2150 3084 
Q 2853 3084 3261 2657 
Q 3669 2231 3669 1497 
Q 3669 778 3244 343 
Q 2819 -91 2113 -91 
Q 1303 -91 875 529 
Q 447 1150 447 2328 
Q 447 3434 972 4092 
Q 1497 4750 2381 4750 
Q 2619 4750 2861 4703 
Q 3103 4656 3366 4563 
z
" transform="scale(0.015625)"/>
       </defs>
       <use xlink:href="#DejaVuSans-36"/>
       <use xlink:href="#DejaVuSans-30" transform="translate(63.623047 0)"/>
       <use xlink:href="#DejaVuSans-30" transform="translate(127.246094 0)"/>
      </g>
     </g>
    </g>
    <g id="xtick_5">
     <g id="line2d_9">
      <path d="M 374.212622 301.037813 
L 374.212622 23.837813 
" clip-path="url(#p7eee489a79)" style="fill: none; stroke: #b0b0b0; stroke-opacity: 0.3; stroke-width: 0.8; stroke-linecap: square"/>
     </g>
     <g id="line2d_10">
      <g>
       <use xlink:href="#m846fae3938" x="374.212622" y="301.037813" style="stroke: #000000; stroke-width: 0.8"/>
      </g>
     </g>
     <g id="text_5">
      <!-- 800 -->
      <g transform="translate(364.668872 315.63625) scale(0.1 -0.1)">
       <defs>
        <path id="DejaVuSans-38" d="M 2034 2216 
Q 1584 2216 1326 1975 
Q 1069 1734 1069 1313 
Q 1069 891 1326 650 
Q 1584 409 2034 409 
Q 2484 409 2743 651 
Q 3003 894 3003 1313 
Q 3003 1734 2745 1975 
Q 2488 2216 2034 2216 
z
M 1403 2484 
Q 997 2584 770 2862 
Q 544 3141 544 3541 
Q 544 4100 942 4425 
Q 1341 4750 2034 4750 
Q 2731 4750 3128 4425 
Q 3525 4100 3525 3541 
Q 3525 3141 3298 2862 
Q 3072 2584 2669 2484 
Q 3125 2378 3379 2068 
Q 3634 1759 3634 1313 
Q 3634 634 3220 271 
Q 2806 -91 2034 -91 
Q 1263 -91 848 271 
Q 434 634 434 1313 
Q 434 1759 690 2068 
Q 947 2378 1403 2484 
z
M 1172 3481 
Q 1172 3119 1398 2916 
Q 1625 2713 2034 2713 
Q 2441 2713 2670 2916 
Q 2900 3119 2900 3481 
Q 2900 3844 2670 4047 
Q 2441 4250 2034 4250 
Q 1625 4250 1398 4047 
Q 1172 3844 1172 3481 
z
" transform="scale(0.015625)"/>
       </defs>
       <use xlink:href="#DejaVuSans-38"/>
       <use xlink:href="#DejaVuSans-30" transform="translate(63.623047 0)"/>
       <use xlink:href="#DejaVuSans-30" transform="translate(127.246094 0)"/>
      </g>
     </g>
    </g>
    <g id="xtick_6">
     <g id="line2d_11">
      <path d="M 455.457503 301.037813 
L 455.457503 23.837813 
" clip-path="url(#p7eee489a79)" style="fill: none; stroke: #b0b0b0; stroke-opacity: 0.3; stroke-width: 0.8; stroke-linecap: square"/>
     </g>
     <g id="line2d_12">
      <g>
       <use xlink:href="#m846fae3938" x="455.457503" y="301.037813" style="stroke: #000000; stroke-width: 0.8"/>
      </g>
     </g>
     <g id="text_6">
      <!-- 1000 -->
      <g transform="translate(442.732503 315.63625) scale(0.1 -0.1)">
       <defs>
        <path id="DejaVuSans-31" d="M 794 531 
L 1825 531 
L 1825 4091 
L 703 3866 
L 703 4441 
L 1819 4666 
L 2450 4666 
L 2450 531 
L 3481 531 
L 3481 0 
L 794 0 
L 794 531 
z
" transform="scale(0.015625)"/>
       </defs>
       <use xlink:href="#DejaVuSans-31"/>
       <use xlink:href="#DejaVuSans-30" transform="translate(63.623047 0)"/>
       <use xlink:href="#DejaVuSans-30" transform="translate(127.246094 0)"/>
       <use xlink:href="#DejaVuSans-30" transform="translate(190.869141 0)"/>
      </g>
     </g>
    </g>
   </g>
   <g id="matplotlib.axis_2">
    <g id="ytick_1">
     <g id="line2d_13">
      <path d="M 28.942188 298.045215 
L 475.342187 298.045215 
" clip-path="url(#p7eee489a79)" style="fill: none; stroke: #b0b0b0; stroke-opacity: 0.3; stroke-width: 0.8; stroke-linecap: square"/>
     </g>
     <g id="line2d_14">
      <defs>
       <path id="mb37b04ae9b" d="M 0 0 
L -3.5 0 
" style="stroke: #000000; stroke-width: 0.8"/>
      </defs>
      <g>
       <use xlink:href="#mb37b04ae9b" x="28.942188" y="298.045215" style="stroke: #000000; stroke-width: 0.8"/>
      </g>
     </g>
     <g id="text_7">
      <!-- −7 -->
      <g transform="translate(7.2 301.844434) scale(0.1 -0.1)">
       <defs>
        <path id="DejaVuSans-2212" d="M 678 2272 
L 4684 2272 
L 4684 1741 
L 678 1741 
L 678 2272 
z
" transform="scale(0.015625)"/>
        <path id="DejaVuSans-37" d="M 525 4666 
L 3525 4666 
L 3525 4397 
L 1831 0 
L 1172 0 
L 2766 4134 
L 525 4134 
L 525 4666 
z
" transform="scale(0.015625)"/>
       </defs>
       <use xlink:href="#DejaVuSans-2212"/>
       <use xlink:href="#DejaVuSans-37" transform="translate(83.789062 0)"/>
      </g>
     </g>
    </g>
    <g id="ytick_2">
     <g id="line2d_15">
      <path d="M 28.942188 265.34429 
L 475.342187 265.34429 
" clip-path="url(#p7eee489a79)" style="fill: none; stroke: #b0b0b0; stroke-opacity: 0.3; stroke-width: 0.8; stroke-linecap: square"/>
     </g>
     <g id="line2d_16">
      <g>
       <use xlink:href="#mb37b04ae9b" x="28.942188" y="265.34429" style="stroke: #000000; stroke-width: 0.8"/>
      </g>
     </g>
     <g id="text_8">
      <!-- −6 -->
      <g transform="translate(7.2 269.143509) scale(0.1 -0.1)">
       <use xlink:href="#DejaVuSans-2212"/>
       <use xlink:href="#DejaVuSans-36" transform="translate(83.789062 0)"/>
      </g>
     </g>
    </g>
    <g id="ytick_3">
     <g id="line2d_17">
      <path d="M 28.942188 232.643365 
L 475.342187 232.643365 
" clip-path="url(#p7eee489a79)" style="fill: none; stroke: #b0b0b0; stroke-opacity: 0.3; stroke-width: 0.8; stroke-linecap: square"/>
     </g>
     <g id="line2d_18">
      <g>
       <use xlink:href="#mb37b04ae9b" x="28.942188" y="232.643365" style="stroke: #000000; stroke-width: 0.8"/>
      </g>
     </g>
     <g id="text_9">
      <!-- −5 -->
      <g transform="translate(7.2 236.442583) scale(0.1 -0.1)">
       <defs>
        <path id="DejaVuSans-35" d="M 691 4666 
L 3169 4666 
L 3169 4134 
L 1269 4134 
L 1269 2991 
Q 1406 3038 1543 3061 
Q 1681 3084 1819 3084 
Q 2600 3084 3056 2656 
Q 3513 2228 3513 1497 
Q 3513 744 3044 326 
Q 2575 -91 1722 -91 
Q 1428 -91 1123 -41 
Q 819 9 494 109 
L 494 744 
Q 775 591 1075 516 
Q 1375 441 1709 441 
Q 2250 441 2565 725 
Q 2881 1009 2881 1497 
Q 2881 1984 2565 2268 
Q 2250 2553 1709 2553 
Q 1456 2553 1204 2497 
Q 953 2441 691 2322 
L 691 4666 
z
" transform="scale(0.015625)"/>
       </defs>
       <use xlink:href="#DejaVuSans-2212"/>
       <use xlink:href="#DejaVuSans-35" transform="translate(83.789062 0)"/>
      </g>
     </g>
    </g>
    <g id="ytick_4">
     <g id="line2d_19">
      <path d="M 28.942188 199.942439 
L 475.342187 199.942439 
" clip-path="url(#p7eee489a79)" style="fill: none; stroke: #b0b0b0; stroke-opacity: 0.3; stroke-width: 0.8; stroke-linecap: square"/>
     </g>
     <g id="line2d_20">
      <g>
       <use xlink:href="#mb37b04ae9b" x="28.942188" y="199.942439" style="stroke: #000000; stroke-width: 0.8"/>
      </g>
     </g>
     <g id="text_10">
      <!-- −4 -->
      <g transform="translate(7.2 203.741658) scale(0.1 -0.1)">
       <use xlink:href="#DejaVuSans-2212"/>
       <use xlink:href="#DejaVuSans-34" transform="translate(83.789062 0)"/>
      </g>
     </g>
    </g>
    <g id="ytick_5">
     <g id="line2d_21">
      <path d="M 28.942188 167.241514 
L 475.342187 167.241514 
" clip-path="url(#p7eee489a79)" style="fill: none; stroke: #b0b0b0; stroke-opacity: 0.3; stroke-width: 0.8; stroke-linecap: square"/>
     </g>
     <g id="line2d_22">
      <g>
       <use xlink:href="#mb37b04ae9b" x="28.942188" y="167.241514" style="stroke: #000000; stroke-width: 0.8"/>
      </g>
     </g>
     <g id="text_11">
      <!-- −3 -->
      <g transform="translate(7.2 171.040733) scale(0.1 -0.1)">
       <defs>
        <path id="DejaVuSans-33" d="M 2597 2516 
Q 3050 2419 3304 2112 
Q 3559 1806 3559 1356 
Q 3559 666 3084 287 
Q 2609 -91 1734 -91 
Q 1441 -91 1130 -33 
Q 819 25 488 141 
L 488 750 
Q 750 597 1062 519 
Q 1375 441 1716 441 
Q 2309 441 2620 675 
Q 2931 909 2931 1356 
Q 2931 1769 2642 2001 
Q 2353 2234 1838 2234 
L 1294 2234 
L 1294 2753 
L 1863 2753 
Q 2328 2753 2575 2939 
Q 2822 3125 2822 3475 
Q 2822 3834 2567 4026 
Q 2313 4219 1838 4219 
Q 1578 4219 1281 4162 
Q 984 4106 628 3988 
L 628 4550 
Q 988 4650 1302 4700 
Q 1616 4750 1894 4750 
Q 2613 4750 3031 4423 
Q 3450 4097 3450 3541 
Q 3450 3153 3228 2886 
Q 3006 2619 2597 2516 
z
" transform="scale(0.015625)"/>
       </defs>
       <use xlink:href="#DejaVuSans-2212"/>
       <use xlink:href="#DejaVuSans-33" transform="translate(83.789062 0)"/>
      </g>
     </g>
    </g>
    <g id="ytick_6">
     <g id="line2d_23">
      <path d="M 28.942188 134.540589 
L 475.342187 134.540589 
" clip-path="url(#p7eee489a79)" style="fill: none; stroke: #b0b0b0; stroke-opacity: 0.3; stroke-width: 0.8; stroke-linecap: square"/>
     </g>
     <g id="line2d_24">
      <g>
       <use xlink:href="#mb37b04ae9b" x="28.942188" y="134.540589" style="stroke: #000000; stroke-width: 0.8"/>
      </g>
     </g>
     <g id="text_12">
      <!-- −2 -->
      <g transform="translate(7.2 138.339807) scale(0.1 -0.1)">
       <use xlink:href="#DejaVuSans-2212"/>
       <use xlink:href="#DejaVuSans-32" transform="translate(83.789062 0)"/>
      </g>
     </g>
    </g>
    <g id="ytick_7">
     <g id="line2d_25">
      <path d="M 28.942188 101.839663 
L 475.342187 101.839663 
" clip-path="url(#p7eee489a79)" style="fill: none; stroke: #b0b0b0; stroke-opacity: 0.3; stroke-width: 0.8; stroke-linecap: square"/>
     </g>
     <g id="line2d_26">
      <g>
       <use xlink:href="#mb37b04ae9b" x="28.942188" y="101.839663" style="stroke: #000000; stroke-width: 0.8"/>
      </g>
     </g>
     <g id="text_13">
      <!-- −1 -->
      <g transform="translate(7.2 105.638882) scale(0.1 -0.1)">
       <use xlink:href="#DejaVuSans-2212"/>
       <use xlink:href="#DejaVuSans-31" transform="translate(83.789062 0)"/>
      </g>
     </g>
    </g>
    <g id="ytick_8">
     <g id="line2d_27">
      <path d="M 28.942188 69.138738 
L 475.342187 69.138738 
" clip-path="url(#p7eee489a79)" style="fill: none; stroke: #b0b0b0; stroke-opacity: 0.3; stroke-width: 0.8; stroke-linecap: square"/>
     </g>
     <g id="line2d_28">
      <g>
       <use xlink:href="#mb37b04ae9b" x="28.942188" y="69.138738" style="stroke: #000000; stroke-width: 0.8"/>
      </g>
     </g>
     <g id="text_14">
      <!-- 0 -->
      <g transform="translate(15.579688 72.937957) scale(0.1 -0.1)">
       <use xlink:href="#DejaVuSans-30"/>
      </g>
     </g>
    </g>
    <g id="ytick_9">
     <g id="line2d_29">
      <path d="M 28.942188 36.437813 
L 475.342187 36.437813 
" clip-path="url(#p7eee489a79)" style="fill: none; stroke: #b0b0b0; stroke-opacity: 0.3; stroke-width: 0.8; stroke-linecap: square"/>
     </g>
     <g id="line2d_30">
      <g>
       <use xlink:href="#mb37b04ae9b" x="28.942188" y="36.437813" style="stroke: #000000; stroke-width: 0.8"/>
      </g>
     </g>
     <g id="text_15">
      <!-- 1 -->
      <g transform="translate(15.579688 40.237031) scale(0.1 -0.1)">
       <use xlink:href="#DejaVuSans-31"/>
      </g>
     </g>
    </g>
   </g>
   <g id="line2d_31">
    <path d="M 49.233097 178.29647 
L 49.639321 179.905816 
L 50.045545 240.58119 
L 50.45177 247.68579 
L 50.857994 237.642519 
L 51.264219 248.117383 
L 51.670443 273.879499 
L 52.076667 162.802363 
L 52.482892 174.695516 
L 52.889116 263.154383 
L 53.295341 263.68063 
L 53.701565 190.52866 
L 54.107789 190.761654 
L 54.514014 227.242701 
L 54.920238 181.561041 
L 55.326463 176.236409 
L 55.732687 186.997293 
L 56.138911 179.872462 
L 56.545136 275.211794 
L 56.95136 189.480187 
L 57.357585 189.480187 
L 57.763809 253.451372 
L 58.170034 247.499804 
L 58.576258 256.24117 
L 58.982482 135.580205 
L 59.388707 240.618303 
L 59.794931 189.480187 
L 60.60738 176.603726 
L 61.013604 240.24633 
L 61.419829 228.523081 
L 61.826053 242.292181 
L 62.232278 153.726981 
L 63.044726 209.201343 
L 63.450951 250.475588 
L 63.857175 189.941406 
L 64.669624 165.831286 
L 65.075848 273.309977 
L 65.482073 257.290353 
L 65.888297 231.038445 
L 66.294522 176.896148 
L 66.700746 281.927274 
L 67.513195 163.157556 
L 67.919419 215.278589 
L 68.325644 166.875997 
L 68.731868 165.248801 
L 69.138092 191.874007 
L 69.544317 273.723902 
L 69.950541 176.665512 
L 70.356766 179.43409 
L 70.76299 250.26093 
L 71.169215 188.226405 
L 71.575439 219.992778 
L 71.981663 175.568176 
L 72.387888 175.051196 
L 72.794112 264.014723 
L 73.200337 190.295666 
L 73.606561 222.391624 
L 74.012785 37.641389 
L 74.41901 257.543075 
L 74.825234 160.968386 
L 75.231459 287.486904 
L 75.637683 136.594615 
L 76.043907 164.083831 
L 76.450132 166.297275 
L 76.856356 189.946175 
L 77.262581 175.083071 
L 77.668805 189.11774 
L 78.887478 277.257646 
L 79.293703 271.306077 
L 79.699927 188.701496 
L 80.106151 190.352656 
L 80.512376 225.857923 
L 80.9186 287.755614 
L 81.324825 273.139373 
L 81.731049 272.39948 
L 82.137273 189.713181 
L 82.543498 37.245201 
L 82.949722 189.533152 
L 83.355947 177.188569 
L 83.762171 268.51628 
L 84.168396 181.674885 
L 84.57462 36.437813 
L 84.980844 229.309914 
L 85.387069 184.492615 
L 85.793293 204.262368 
L 86.199518 188.873047 
L 86.605742 285.084493 
L 87.011966 246.410454 
L 87.418191 175.408303 
L 87.824415 174.849196 
L 88.23064 250.554246 
L 88.636864 144.372667 
L 89.043088 217.830527 
L 89.449313 264.052603 
L 89.855537 253.175661 
L 90.261762 221.248152 
L 90.667986 172.146653 
L 91.07421 175.96653 
L 91.480435 239.81512 
L 91.886659 263.68063 
L 92.292884 246.243261 
L 92.699108 182.25737 
L 93.105332 268.035613 
L 93.511557 249.587407 
L 93.917781 250.475588 
L 94.324006 221.075412 
L 94.73023 178.725899 
L 95.136454 273.334216 
L 95.542679 252.335453 
L 95.948903 258.78547 
L 96.355128 262.210342 
L 96.761352 288.416837 
L 97.167577 219.468979 
L 97.573801 178.725899 
L 97.980025 221.308179 
L 98.38625 280.047443 
L 98.792474 189.410016 
L 99.198699 226.802162 
L 99.604923 182.142869 
L 100.011147 175.141617 
L 100.417372 240.6022 
L 100.823596 176.339487 
L 101.229821 236.61869 
L 101.636045 237.404309 
L 102.042269 280.084672 
L 102.448494 250.847561 
L 102.854718 164.200328 
L 103.260943 146.562266 
L 103.667167 38.032655 
L 104.073391 246.410454 
L 104.479616 284.771101 
L 104.88584 239.81512 
L 105.292065 176.432518 
L 105.698289 250.554246 
L 106.104513 237.18833 
L 106.510738 275.583767 
L 106.916962 265.229355 
L 107.323187 188.781205 
L 107.729411 190.820842 
L 108.135635 146.17803 
L 108.54186 187.38324 
L 108.948084 188.411338 
L 109.354309 274.061275 
L 109.760533 191.405975 
L 110.166758 36.437813 
L 110.572982 181.790003 
L 110.979206 273.521144 
L 111.385431 280.426118 
L 111.791655 174.718347 
L 112.19788 175.646158 
L 112.604104 178.887385 
L 113.010328 247.218926 
L 113.416553 262.438424 
L 113.822777 233.823475 
L 114.229002 174.596589 
L 114.635226 273.681048 
L 115.04145 236.61869 
L 115.447675 288.251531 
L 116.260124 190.46971 
L 116.666348 182.606861 
L 117.072572 170.607665 
L 117.478797 181.437015 
L 117.885021 36.437813 
L 118.69747 273.521144 
L 119.103694 173.386952 
L 119.509919 278.005679 
L 119.916143 241.914529 
L 120.322368 174.718347 
L 120.728592 262.210342 
L 121.134816 252.62424 
L 121.947265 227.530925 
L 122.35349 237.003979 
L 122.759714 227.599247 
L 123.165939 263.454682 
L 123.572163 241.536877 
L 123.978387 184.844726 
L 124.384612 285.902787 
L 124.790836 264.014723 
L 125.197061 189.480187 
L 125.603285 277.257646 
L 126.009509 36.437813 
L 126.415734 187.912891 
L 126.821958 287.942781 
L 127.228183 189.882363 
L 127.634407 182.378049 
L 128.040631 277.443632 
L 128.446856 187.446009 
L 128.85308 187.305505 
L 129.259305 261.328322 
L 129.665529 246.09162 
L 130.071753 189.232886 
L 130.477978 209.168869 
L 130.884202 182.149236 
L 131.290427 262.929828 
L 131.696651 279.494286 
L 132.5091 178.652525 
L 132.915324 186.165585 
L 133.321549 272.360001 
L 133.727773 188.944625 
L 134.133997 176.596022 
L 134.540222 248.403167 
L 134.946446 186.611346 
L 135.352671 252.052524 
L 135.758895 260.385684 
L 136.16512 272.410248 
L 136.571344 190.655319 
L 136.977568 237.187041 
L 137.383793 175.408303 
L 137.790017 252.348529 
L 138.196242 197.628849 
L 138.602466 181.949903 
L 139.00869 223.135571 
L 139.414915 182.557486 
L 139.821139 216.831007 
L 140.227364 240.618303 
L 140.633588 247.180322 
L 141.039812 174.936828 
L 141.446037 235.306235 
L 141.852261 258.048978 
L 142.258486 230.321001 
L 142.66471 279.867025 
L 143.070934 249.6743 
L 143.477159 243.514679 
L 143.883383 242.871705 
L 144.289608 146.17803 
L 144.695832 167.206088 
L 145.102056 222.391624 
L 145.508281 181.298981 
L 145.914505 272.554844 
L 146.32073 215.111581 
L 146.726954 283.839333 
L 147.133178 281.950064 
L 147.539403 214.825221 
L 147.945627 262.256162 
L 148.351852 288.437813 
L 148.758076 184.102691 
L 149.164301 248.657372 
L 149.570525 262.929828 
L 149.976749 285.678078 
L 150.382974 220.717746 
L 151.195423 154.57678 
L 151.601647 243.222114 
L 152.007871 235.76494 
L 152.414096 254.165137 
L 152.82032 261.873904 
L 153.226545 181.437015 
L 153.632769 180.24722 
L 154.038993 272.165158 
L 154.445218 270.903554 
L 154.851442 287.117728 
L 155.257667 256.784909 
L 155.663891 151.563092 
L 156.070115 188.361997 
L 156.47634 258.427852 
L 156.882564 161.294505 
L 157.288789 218.113935 
L 157.695013 151.051254 
L 158.101237 233.554826 
L 158.507462 39.549717 
L 158.913686 232.891737 
L 159.319911 182.373867 
L 159.726135 177.398471 
L 160.132359 178.792453 
L 160.538584 191.577134 
L 160.944808 178.820449 
L 161.351033 261.643635 
L 161.757257 269.407167 
L 162.163482 181.691611 
L 162.569706 238.610345 
L 162.97593 257.037631 
L 163.382155 174.693669 
L 163.788379 269.074239 
L 164.194604 186.881476 
L 164.600828 183.790226 
L 165.007052 215.563263 
L 165.413277 181.318002 
L 165.819501 39.549717 
L 166.63195 271.264849 
L 167.038174 189.792575 
L 167.444399 170.957157 
L 167.850623 189.887173 
L 168.256848 191.704892 
L 168.663072 175.991055 
L 169.069296 38.419061 
L 169.475521 180.742908 
L 169.881745 146.17803 
L 170.28797 248.403167 
L 170.694194 263.416119 
L 171.100418 175.384044 
L 171.506643 175.131825 
L 171.912867 38.032655 
L 172.319092 238.243539 
L 172.725316 190.52866 
L 173.537765 153.568439 
L 173.943989 286.219955 
L 174.350214 176.240098 
L 174.756438 249.291347 
L 175.162663 248.715552 
L 175.568887 269.201659 
L 176.381336 222.226303 
L 176.78756 159.13986 
L 177.193785 287.590308 
L 178.006233 40.992791 
L 178.412458 162.452872 
L 178.818682 175.991055 
L 179.224907 177.432587 
L 179.631131 188.755293 
L 180.037355 269.444224 
L 180.44358 173.254673 
L 180.849804 171.653884 
L 181.256029 174.961586 
L 181.662253 162.452872 
L 182.068477 53.497617 
L 182.474702 168.830263 
L 182.880926 238.208754 
L 183.287151 189.055756 
L 184.099599 273.109008 
L 184.505824 179.31611 
L 184.912048 263.119256 
L 185.318273 263.122671 
L 185.724497 189.987213 
L 186.130721 284.147537 
L 186.536946 165.279458 
L 186.94317 171.410882 
L 187.349395 172.96622 
L 187.755619 196.539499 
L 188.161844 144.302107 
L 188.568068 268.866514 
L 188.974292 36.84403 
L 189.380517 234.009014 
L 189.786741 188.072241 
L 190.192966 190.436689 
L 190.59919 238.209335 
L 191.005414 192.458958 
L 191.411639 266.996987 
L 191.817863 235.799205 
L 192.224088 267.352078 
L 192.630312 174.685045 
L 193.036536 190.499139 
L 193.442761 185.053299 
L 193.848985 169.720394 
L 194.25521 257.354137 
L 194.661434 184.636153 
L 195.067658 218.421382 
L 195.880107 134.849925 
L 196.286332 189.173094 
L 197.09878 178.016901 
L 197.505005 273.116999 
L 197.911229 283.574455 
L 198.317454 286.929085 
L 198.723678 168.354183 
L 199.129902 163.384849 
L 199.536127 255.502585 
L 199.942351 172.806447 
L 200.348576 178.725899 
L 200.7548 42.698067 
L 201.161025 177.155361 
L 201.567249 189.941406 
L 201.973473 180.247667 
L 202.379698 276.141727 
L 202.785922 185.49327 
L 203.192147 174.09676 
L 203.598371 186.316943 
L 204.004595 189.713181 
L 204.41082 163.589229 
L 204.817044 170.855055 
L 205.223269 191.693631 
L 205.629493 188.198719 
L 206.035717 237.975845 
L 206.441942 172.783949 
L 206.848166 175.646158 
L 207.254391 232.962797 
L 207.660615 165.731432 
L 208.066839 175.227566 
L 208.473064 268.657984 
L 208.879288 36.437813 
L 209.285513 166.697118 
L 209.691737 173.030835 
L 210.097961 183.330797 
L 210.504186 182.553391 
L 210.91041 282.289618 
L 211.316635 162.575728 
L 211.722859 159.263887 
L 212.129083 282.860707 
L 212.535308 173.873928 
L 212.941532 262.977401 
L 213.347757 175.386088 
L 213.753981 173.349446 
L 214.160206 182.02526 
L 214.56643 212.6958 
L 214.972654 179.386018 
L 215.378879 267.557587 
L 215.785103 264.577531 
L 216.191328 203.600098 
L 216.597552 170.943937 
L 217.003776 185.646479 
L 217.410001 187.469324 
L 217.816225 234.91739 
L 218.22245 170.391314 
L 218.628674 284.983273 
L 219.034898 182.860748 
L 219.441123 188.292735 
L 220.253572 171.042996 
L 220.659796 169.717964 
L 221.06602 165.892601 
L 221.472245 185.690286 
L 221.878469 175.850032 
L 222.284694 175.325787 
L 222.690918 184.070228 
L 223.097142 269.242513 
L 223.503367 163.617843 
L 223.909591 164.229774 
L 224.315816 238.041061 
L 224.72204 273.139373 
L 225.128264 233.823475 
L 225.534489 272.91996 
L 225.940713 171.477602 
L 226.346938 283.718343 
L 226.753162 171.39421 
L 227.159387 175.810254 
L 227.565611 187.008581 
L 227.971835 190.176652 
L 228.37806 245.453952 
L 228.784284 242.050183 
L 229.190509 164.931473 
L 229.596733 179.424481 
L 230.002957 40.280273 
L 230.409182 269.685338 
L 230.815406 166.279981 
L 231.221631 185.032426 
L 231.627855 265.579437 
L 232.034079 286.929085 
L 232.440304 176.363819 
L 232.846528 178.84606 
L 233.252753 158.902778 
L 233.658977 280.695248 
L 234.065201 269.9122 
L 234.471426 263.2419 
L 234.87765 235.504306 
L 235.283875 244.369139 
L 235.690099 191.405975 
L 236.096323 184.665681 
L 236.502548 36.437813 
L 236.908772 175.131825 
L 237.314997 177.188569 
L 237.721221 246.034685 
L 238.127445 188.548211 
L 238.53367 176.619056 
L 238.939894 189.232886 
L 239.346119 151.744682 
L 239.752343 276.595329 
L 240.158568 238.122066 
L 240.564792 40.280273 
L 240.971016 238.846167 
L 241.377241 253.999382 
L 241.783465 182.6382 
L 242.18969 258.1896 
L 242.595914 270.623897 
L 243.002138 41.342425 
L 243.408363 257.312486 
L 243.814587 187.427479 
L 244.220812 176.309944 
L 244.627036 234.88662 
L 245.03326 256.279465 
L 245.439485 236.368358 
L 245.845709 266.271615 
L 246.251934 244.249036 
L 246.658158 167.521516 
L 247.064382 263.828048 
L 247.470607 165.947784 
L 247.876831 169.956878 
L 248.283056 146.562266 
L 248.68928 256.224321 
L 249.095504 287.38126 
L 249.501729 194.712108 
L 249.907953 193.643423 
L 250.314178 268.852827 
L 250.720402 265.88118 
L 251.126626 172.954407 
L 251.532851 180.247667 
L 251.939075 287.447749 
L 252.3453 169.276488 
L 252.751524 148.687599 
L 253.157749 274.192826 
L 253.563973 174.385498 
L 253.970197 250.26093 
L 254.376422 151.998308 
L 254.782646 282.674029 
L 255.188871 42.698067 
L 255.595095 287.61276 
L 256.001319 261.852708 
L 256.407544 189.296633 
L 256.813768 280.35766 
L 257.219993 181.449876 
L 257.626217 190.586758 
L 258.032441 171.623861 
L 258.438666 180.141567 
L 258.84489 174.538794 
L 259.251115 176.61332 
L 259.657339 280.352294 
L 260.063563 229.012945 
L 260.469788 255.268576 
L 260.876012 177.344173 
L 261.282237 260.194549 
L 261.688461 268.658789 
L 262.094685 38.800667 
L 262.50091 269.817539 
L 262.907134 233.554826 
L 263.313359 259.136385 
L 263.719583 235.301851 
L 264.125807 190.328497 
L 264.532032 229.775333 
L 264.938256 187.69232 
L 265.344481 259.774914 
L 265.750705 189.844626 
L 266.15693 251.75831 
L 266.969378 56.332871 
L 267.375603 51.415026 
L 267.781827 231.738073 
L 268.188052 233.627775 
L 268.594276 189.298963 
L 269.0005 267.259699 
L 269.406725 231.597554 
L 269.812949 36.84403 
L 270.219174 260.578566 
L 270.625398 271.864037 
L 271.031622 269.632199 
L 271.437847 248.212868 
L 271.844071 37.245201 
L 272.250296 281.367165 
L 272.65652 143.041106 
L 273.062744 288.107791 
L 273.468969 188.878626 
L 273.875193 37.245201 
L 274.281418 45.21423 
L 274.687642 256.627904 
L 275.093866 265.148646 
L 275.500091 42.028719 
L 276.31254 276.63404 
L 276.718764 181.594036 
L 277.124988 36.84403 
L 277.531213 45.21423 
L 277.937437 239.011937 
L 278.343662 45.511425 
L 278.749886 183.190356 
L 279.156111 237.600651 
L 279.562335 267.157241 
L 279.968559 185.194322 
L 280.781008 151.18536 
L 281.187233 274.783481 
L 281.593457 176.467262 
L 281.999681 261.803857 
L 282.405906 159.263887 
L 282.81213 273.655098 
L 283.218355 180.632603 
L 283.624579 170.061653 
L 284.030803 200.418646 
L 284.437028 146.754 
L 284.843252 273.525916 
L 285.249477 272.173618 
L 285.655701 233.875909 
L 286.061925 239.408265 
L 286.46815 179.872462 
L 286.874374 48.802521 
L 287.280599 178.84606 
L 287.686823 177.426343 
L 288.499272 167.672847 
L 288.905496 287.09439 
L 289.717945 189.650239 
L 290.124169 187.98436 
L 290.530394 235.37652 
L 290.936618 248.699227 
L 291.342843 166.71764 
L 291.749067 234.996022 
L 292.155292 179.811584 
L 292.561516 253.931059 
L 292.96774 224.925252 
L 293.373965 185.757078 
L 293.780189 171.852673 
L 294.186414 43.987594 
L 294.592638 149.061843 
L 294.998862 46.663742 
L 295.405087 178.892407 
L 295.811311 182.174492 
L 296.217536 267.280844 
L 296.62376 167.590435 
L 297.029984 247.327777 
L 297.436209 159.587454 
L 297.842433 241.788131 
L 298.248658 230.09678 
L 298.654882 256.279465 
L 299.061106 168.253199 
L 299.467331 39.549717 
L 299.873555 272.538063 
L 300.27978 269.267555 
L 300.686004 277.071659 
L 301.092228 159.710998 
L 301.498453 172.517156 
L 301.904677 278.093516 
L 302.310902 221.665391 
L 302.717126 266.524562 
L 303.12335 261.298013 
L 303.529575 187.292841 
L 303.935799 269.528213 
L 304.342024 150.087543 
L 304.748248 272.047452 
L 305.154473 224.153052 
L 305.560697 273.111241 
L 305.966921 38.419061 
L 306.373146 281.248874 
L 306.77937 183.019197 
L 307.185595 271.606746 
L 307.591819 279.393491 
L 307.998043 229.012011 
L 308.404268 259.030968 
L 308.810492 245.830677 
L 309.216717 275.264071 
L 309.622941 163.068642 
L 310.029165 239.684575 
L 310.43539 193.759921 
L 310.841614 43.35089 
L 311.247839 182.929746 
L 311.654063 205.679843 
L 312.060287 39.549717 
L 312.466512 267.050268 
L 312.872736 270.608278 
L 313.278961 187.607593 
L 314.091409 269.783015 
L 314.497634 183.499812 
L 314.903858 271.159785 
L 315.310083 36.437813 
L 315.716307 149.838221 
L 316.122531 53.883798 
L 316.93498 282.765967 
L 317.341205 246.380015 
L 317.747429 44.608578 
L 318.153654 245.54515 
L 318.559878 217.194371 
L 318.966102 281.54325 
L 319.372327 234.91739 
L 319.778551 222.497902 
L 320.184776 42.698067 
L 320.591 163.082208 
L 320.997224 229.231015 
L 321.403449 171.827266 
L 321.809673 269.201659 
L 322.215898 37.245201 
L 322.622122 180.800928 
L 323.028346 176.596022 
L 323.434571 282.300523 
L 323.840795 287.61276 
L 324.24702 186.656574 
L 324.653244 233.473522 
L 325.059468 171.208619 
L 325.465693 40.638758 
L 325.871917 235.000106 
L 326.278142 172.30885 
L 326.684366 43.987594 
L 327.09059 36.84403 
L 327.496815 234.04739 
L 327.903039 274.705181 
L 328.309264 281.695558 
L 328.715488 177.597538 
L 329.121712 260.840736 
L 329.527937 52.69568 
L 329.934161 146.930044 
L 330.340386 187.305505 
L 330.74661 266.049404 
L 331.152835 245.925934 
L 331.559059 168.777315 
L 331.965283 253.451372 
L 332.371508 174.626473 
L 332.777732 233.304098 
L 333.183957 150.465568 
L 333.590181 219.908662 
L 333.996405 174.487526 
L 334.40263 180.41272 
L 334.808854 42.028719 
L 335.215079 219.216166 
L 335.621303 284.938517 
L 336.027527 177.676575 
L 336.433752 186.1126 
L 336.839976 177.541592 
L 337.246201 236.778365 
L 337.652425 56.008689 
L 338.058649 38.032655 
L 338.464874 181.970556 
L 338.871098 285.754873 
L 339.277323 188.291152 
L 339.683547 261.87304 
L 340.089771 40.280273 
L 340.495996 247.179299 
L 340.90222 276.350195 
L 341.308445 187.138087 
L 341.714669 190.647035 
L 342.120893 179.632299 
L 342.527118 175.971298 
L 342.933342 166.627039 
L 343.339567 175.661405 
L 343.745791 276.891464 
L 344.152016 258.685887 
L 344.55824 233.835274 
L 344.964464 158.363656 
L 345.370689 171.866382 
L 345.776913 281.672378 
L 346.183138 180.023683 
L 346.589362 39.177533 
L 346.995586 174.596589 
L 347.401811 243.974248 
L 347.808035 180.723406 
L 348.620484 144.555247 
L 349.026708 235.520441 
L 349.432933 268.273094 
L 349.839157 179.577938 
L 350.245382 178.318354 
L 350.651606 224.765167 
L 351.05783 179.237699 
L 351.464055 181.005174 
L 351.870279 49.055142 
L 352.276504 46.663742 
L 352.682728 286.340873 
L 353.088952 247.992121 
L 353.495177 271.864037 
L 353.901401 190.655319 
L 354.307626 209.695758 
L 355.120074 171.866382 
L 355.526299 277.749842 
L 355.932523 189.417022 
L 356.338748 171.586813 
L 356.744972 170.755291 
L 357.151197 151.757626 
L 357.557421 153.973964 
L 357.963645 194.034067 
L 358.36987 283.767174 
L 358.776094 181.958293 
L 359.182319 187.849176 
L 359.588543 233.100638 
L 359.994767 38.419061 
L 360.400992 173.25859 
L 360.807216 257.543075 
L 361.213441 172.051275 
L 361.619665 173.632281 
L 362.025889 274.467848 
L 362.432114 39.177533 
L 363.244563 281.24293 
L 363.650787 188.392846 
L 364.057011 157.703744 
L 364.463236 277.877135 
L 364.86946 274.237138 
L 365.275685 41.342425 
L 365.681909 288.437813 
L 366.088133 179.296188 
L 366.494358 222.765145 
L 366.900582 54.808048 
L 367.306807 229.459112 
L 367.713031 164.675646 
L 368.119255 171.262733 
L 368.52548 44.913297 
L 368.931704 241.089703 
L 369.337929 164.532216 
L 369.744153 262.550887 
L 370.556602 49.551007 
L 370.962826 280.282517 
L 371.775275 54.62779 
L 372.1815 274.385383 
L 372.587724 183.306101 
L 372.993948 163.883437 
L 373.400173 157.382627 
L 373.806397 173.908405 
L 374.212622 167.903566 
L 374.618846 170.102845 
L 375.02507 249.563368 
L 375.431295 267.862041 
L 375.837519 170.361981 
L 376.243744 167.673087 
L 376.649968 248.429736 
L 377.056192 183.312499 
L 377.462417 235.37652 
L 377.868641 182.378049 
L 378.274866 237.807162 
L 378.68109 176.595915 
L 379.087314 263.85173 
L 379.493539 273.334003 
L 379.899763 50.03463 
L 380.305988 40.992791 
L 380.712212 280.022272 
L 381.524661 188.993065 
L 381.930885 265.376122 
L 382.743334 139.103536 
L 383.149559 41.687716 
L 383.962007 262.842483 
L 384.368232 191.054908 
L 384.774456 146.887913 
L 385.180681 226.287816 
L 385.586905 177.84895 
L 385.993129 248.753491 
L 386.399354 182.123613 
L 386.805578 148.162568 
L 387.211803 211.822911 
L 388.024251 186.575936 
L 388.8367 158.81036 
L 389.242925 278.042145 
L 389.649149 267.725601 
L 390.055373 270.717753 
L 390.461598 230.935617 
L 390.867822 266.468036 
L 391.274047 165.545476 
L 391.680271 184.25194 
L 392.086495 159.71557 
L 392.49272 172.572292 
L 392.898944 262.515122 
L 393.305169 283.457664 
L 393.711393 242.17219 
L 394.523842 186.800554 
L 394.930066 45.21423 
L 395.336291 48.287707 
L 395.742515 171.830751 
L 396.14874 40.992791 
L 396.554964 251.252665 
L 396.961188 216.589811 
L 397.367413 243.744431 
L 397.773637 223.080883 
L 398.179862 140.600479 
L 398.586086 188.126086 
L 398.99231 280.712246 
L 399.398535 166.073137 
L 399.804759 175.077668 
L 400.210984 172.442446 
L 400.617208 39.177533 
L 401.023432 180.667419 
L 401.429657 163.569472 
L 401.835881 264.269445 
L 402.242106 246.555614 
L 402.64833 283.143478 
L 403.054554 255.462658 
L 403.460779 250.969975 
L 403.867003 239.852527 
L 404.273228 163.519476 
L 404.679452 234.192839 
L 405.085676 179.522528 
L 405.491901 157.136928 
L 405.898125 250.806586 
L 406.30435 256.627904 
L 406.710574 171.609603 
L 407.116798 37.245201 
L 407.523023 185.212455 
L 407.929247 186.418373 
L 408.741696 164.142304 
L 409.147921 176.017879 
L 409.554145 47.490948 
L 409.960369 38.800667 
L 410.366594 216.063252 
L 410.772818 46.942931 
L 411.179043 170.883998 
L 411.585267 177.150958 
L 411.991491 178.951101 
L 412.397716 196.780061 
L 412.80394 184.043969 
L 413.210165 188.633007 
L 413.616389 143.748624 
L 414.022613 160.126676 
L 414.428838 232.38007 
L 414.835062 262.839331 
L 415.241287 42.365485 
L 415.647511 162.305363 
L 416.45996 170.261581 
L 416.866184 161.574061 
L 417.272409 187.23899 
L 417.678633 186.281256 
L 418.084857 223.3734 
L 418.491082 171.915267 
L 418.897306 209.724435 
L 419.303531 257.904595 
L 419.709755 223.058684 
L 420.115979 265.296989 
L 420.522204 231.681615 
L 420.928428 163.374718 
L 421.334653 188.672166 
L 421.740877 163.56266 
L 422.147102 168.056522 
L 422.553326 248.429736 
L 422.95955 287.38126 
L 423.365775 177.1315 
L 423.771999 154.527165 
L 424.178224 166.865525 
L 424.584448 270.169791 
L 424.990672 248.764289 
L 425.396897 181.096822 
L 425.803121 143.625314 
L 426.209346 251.245686 
L 426.61557 183.790226 
L 427.021794 266.709554 
L 427.428019 198.194984 
L 427.834243 190.351971 
L 428.240468 259.402941 
L 428.646692 42.028719 
L 429.052916 269.612676 
L 429.459141 188.240609 
L 429.865365 173.817714 
L 430.27159 44.300027 
L 430.677814 262.219308 
L 431.084038 241.245602 
L 431.490263 188.361997 
L 431.896487 248.403167 
L 432.302712 49.304624 
L 432.708936 266.965176 
L 433.11516 184.217308 
L 433.521385 179.872462 
L 433.927609 146.370148 
L 434.333834 262.447656 
L 434.740058 221.193405 
L 435.146283 288.437813 
L 435.552507 183.868572 
L 435.958731 263.68063 
L 436.364956 161.314471 
L 436.77118 270.9961 
L 437.177405 241.189934 
L 437.583629 142.40993 
L 437.989853 167.927967 
L 438.396078 275.614424 
L 438.802302 184.450376 
L 439.208527 189.337281 
L 439.614751 279.013427 
L 440.020975 186.761835 
L 440.4272 167.633146 
L 440.833424 280.316854 
L 441.239649 189.824645 
L 441.645873 236.061696 
L 442.052097 38.419061 
L 442.458322 171.801703 
L 442.864546 154.91522 
L 443.270771 191.872929 
L 443.676995 241.189934 
L 444.083219 173.133954 
L 444.489444 158.86307 
L 444.895668 175.008217 
L 445.301893 40.280273 
L 445.708117 234.974296 
L 446.114341 51.852626 
L 446.520566 157.887917 
L 446.92679 171.284822 
L 447.333015 176.396178 
L 447.739239 191.234816 
L 448.145464 236.200796 
L 448.551688 168.180587 
L 448.957912 176.335173 
L 449.364137 168.478951 
L 449.770361 170.724162 
L 450.176586 158.581548 
L 450.58281 246.928747 
L 450.989034 266.876626 
L 451.395259 53.300876 
L 451.801483 269.242513 
L 452.207708 286.952717 
L 452.613932 181.528445 
L 453.020156 188.387547 
L 453.426381 173.98608 
L 453.832605 139.58967 
L 454.23883 271.223838 
L 454.645054 156.544401 
L 455.051278 269.114522 
L 455.051278 269.114522 
" clip-path="url(#p7eee489a79)" style="fill: none; stroke: #808080; stroke-opacity: 0.3; stroke-width: 1.5; stroke-linecap: square"/>
   </g>
   <g id="line2d_32">
    <path d="M 49.233097 207.006408 
L 49.639321 207.7552 
L 50.045545 208.168623 
L 50.857994 206.767085 
L 51.264219 206.788811 
L 51.670443 206.944444 
L 52.076667 206.668082 
L 52.482892 206.862632 
L 52.889116 207.796033 
L 53.701565 207.528312 
L 54.107789 207.83378 
L 54.514014 207.713422 
L 54.920238 208.174338 
L 56.138911 210.459703 
L 56.545136 211.545147 
L 56.95136 210.987718 
L 57.357585 210.880176 
L 58.170034 211.464416 
L 58.576258 210.883518 
L 58.982482 210.589128 
L 59.388707 211.054755 
L 59.794931 210.399988 
L 60.201156 210.911208 
L 60.60738 210.848534 
L 61.013604 211.448684 
L 61.419829 211.420264 
L 61.826053 211.93588 
L 62.638502 212.126167 
L 63.044726 211.769216 
L 63.450951 210.057529 
L 63.857175 210.016878 
L 64.2634 210.965175 
L 64.669624 211.599001 
L 65.075848 211.705013 
L 65.888297 211.276435 
L 66.294522 211.721889 
L 66.700746 212.605221 
L 67.10697 211.67376 
L 68.325644 210.944611 
L 68.731868 211.159965 
L 69.138092 212.24809 
L 69.544317 212.243409 
L 69.950541 209.870548 
L 70.356766 209.921793 
L 70.76299 210.862664 
L 71.169215 211.164316 
L 71.575439 211.029235 
L 71.981663 210.585769 
L 72.387888 210.618961 
L 72.794112 211.340638 
L 73.200337 211.324875 
L 73.606561 211.760153 
L 74.012785 211.282203 
L 74.41901 213.6426 
L 74.825234 213.433356 
L 75.231459 214.706187 
L 75.637683 214.166866 
L 76.043907 214.705617 
L 76.450132 214.890848 
L 76.856356 214.933952 
L 77.262581 214.84886 
L 77.668805 213.462407 
L 78.075029 213.236042 
L 78.481254 213.802944 
L 78.887478 213.034204 
L 79.293703 213.041684 
L 79.699927 212.747769 
L 80.106151 212.607937 
L 80.512376 213.326514 
L 80.9186 213.594177 
L 82.137273 212.293213 
L 82.543498 212.672074 
L 82.949722 214.934169 
L 83.355947 215.454206 
L 84.168396 215.704632 
L 84.57462 216.528031 
L 84.980844 218.058455 
L 85.387069 218.537932 
L 85.793293 217.057384 
L 86.199518 216.893889 
L 86.605742 217.884586 
L 87.011966 216.932565 
L 87.418191 216.292241 
L 87.824415 217.312594 
L 88.23064 217.438562 
L 88.636864 216.806075 
L 89.043088 217.975632 
L 89.449313 218.258243 
L 89.855537 217.510045 
L 90.667986 216.678988 
L 91.480435 218.622098 
L 91.886659 218.568578 
L 92.699108 217.117521 
L 93.105332 218.018547 
L 93.917781 216.497723 
L 94.324006 216.476999 
L 94.73023 216.132358 
L 95.136454 216.865625 
L 95.542679 216.736139 
L 95.948903 216.936887 
L 96.355128 216.255586 
L 96.761352 216.005353 
L 97.167577 214.875267 
L 97.980025 215.393092 
L 98.38625 214.99951 
L 98.792474 214.430391 
L 99.604923 214.262154 
L 100.417372 215.567295 
L 100.823596 214.910642 
L 101.229821 215.500309 
L 101.636045 215.714612 
L 102.448494 215.641603 
L 102.854718 215.62987 
L 103.667167 217.386108 
L 104.073391 218.467562 
L 104.88584 217.051723 
L 105.292065 216.466562 
L 105.698289 217.427785 
L 106.104513 217.073358 
L 106.510738 217.539868 
L 106.916962 217.603531 
L 107.323187 217.09949 
L 107.729411 217.83424 
L 108.135635 218.810409 
L 108.54186 219.189656 
L 109.354309 220.547582 
L 109.760533 220.66375 
L 110.166758 220.956868 
L 110.572982 222.477781 
L 111.385431 221.902658 
L 111.791655 221.456046 
L 112.604104 223.112792 
L 113.010328 223.138288 
L 113.416553 222.468571 
L 113.822777 222.565838 
L 114.229002 222.936639 
L 114.635226 224.061851 
L 115.04145 223.892889 
L 115.853899 222.043438 
L 116.260124 222.292168 
L 116.666348 222.000416 
L 117.072572 222.355487 
L 117.478797 222.159923 
L 117.885021 222.681101 
L 118.291246 222.71222 
L 118.69747 223.376325 
L 119.103694 222.464852 
L 119.509919 222.504967 
L 119.916143 221.512835 
L 120.322368 221.009461 
L 121.541041 221.212644 
L 121.947265 220.642929 
L 122.759714 220.95406 
L 123.165939 220.425004 
L 123.572163 220.481199 
L 123.978387 219.934645 
L 124.384612 219.9241 
L 125.197061 218.393738 
L 126.009509 215.803401 
L 126.415734 218.151671 
L 126.821958 218.170468 
L 127.228183 217.000612 
L 128.040631 217.093929 
L 128.446856 216.079403 
L 128.85308 214.589133 
L 129.259305 214.523507 
L 129.665529 213.372004 
L 130.071753 213.39512 
L 130.477978 214.136952 
L 130.884202 213.799104 
L 131.290427 213.72893 
L 131.696651 211.479958 
L 132.5091 210.628105 
L 132.915324 210.570956 
L 133.321549 210.244985 
L 133.727773 210.383584 
L 134.133997 210.256539 
L 134.540222 210.983492 
L 134.946446 210.986616 
L 135.352671 211.812519 
L 135.758895 211.751303 
L 136.16512 211.369709 
L 136.571344 210.237005 
L 136.977568 211.206355 
L 137.383793 210.558369 
L 137.790017 209.214214 
L 138.196242 208.315257 
L 138.602466 208.098879 
L 139.00869 208.053706 
L 139.414915 207.709903 
L 139.821139 208.578771 
L 140.227364 208.143007 
L 141.039812 206.731176 
L 141.446037 206.606336 
L 141.852261 204.78825 
L 142.258486 203.896063 
L 142.66471 203.97494 
L 143.070934 203.066828 
L 143.477159 202.887918 
L 143.883383 203.183861 
L 144.289608 202.548305 
L 145.102056 204.676883 
L 145.508281 204.352839 
L 145.914505 205.381324 
L 146.32073 204.308571 
L 146.726954 203.871564 
L 147.539403 201.908727 
L 147.945627 201.203496 
L 148.351852 201.269599 
L 148.758076 198.753661 
L 149.164301 199.252725 
L 150.382974 197.447254 
L 150.789198 197.164667 
L 151.601647 198.76157 
L 152.007871 199.002869 
L 153.226545 196.987204 
L 153.632769 196.870038 
L 154.038993 197.641107 
L 154.445218 196.765817 
L 154.851442 196.240995 
L 155.663891 193.881009 
L 156.070115 194.257109 
L 156.47634 194.214192 
L 156.882564 193.410082 
L 157.288789 194.528307 
L 157.695013 195.182912 
L 158.101237 196.541691 
L 158.507462 195.889684 
L 158.913686 197.128036 
L 159.319911 197.354144 
L 160.132359 197.271744 
L 160.538584 195.9108 
L 160.944808 195.766583 
L 161.351033 195.877792 
L 161.757257 195.063832 
L 162.569706 195.169195 
L 163.382155 193.816852 
L 163.788379 193.967047 
L 164.194604 192.912197 
L 164.600828 192.751933 
L 165.007052 192.830967 
L 165.413277 192.557321 
L 165.819501 193.1239 
L 166.225726 194.456242 
L 166.63195 194.531159 
L 167.444399 193.907528 
L 167.850623 193.950232 
L 168.256848 194.73794 
L 168.663072 193.185269 
L 169.069296 193.09233 
L 169.475521 194.438447 
L 169.881745 194.464326 
L 170.694194 195.166944 
L 171.100418 194.15854 
L 171.506643 193.997339 
L 172.319092 196.43304 
L 172.725316 196.680379 
L 173.13154 196.528953 
L 173.537765 196.533072 
L 173.943989 196.81764 
L 174.350214 196.082398 
L 174.756438 196.113858 
L 175.568887 196.45514 
L 176.78756 194.683456 
L 177.193785 194.966751 
L 177.600009 194.440022 
L 178.006233 194.420051 
L 178.412458 196.859956 
L 179.224907 197.187051 
L 179.631131 197.196811 
L 180.037355 197.019688 
L 180.44358 196.022425 
L 180.849804 195.948804 
L 181.256029 196.089168 
L 181.662253 196.098053 
L 182.068477 196.226782 
L 182.880926 198.536631 
L 183.287151 197.790721 
L 183.693375 197.542462 
L 184.505824 197.605343 
L 184.912048 198.150417 
L 185.318273 198.248424 
L 185.724497 197.331973 
L 186.130721 198.269284 
L 186.536946 197.141751 
L 187.349395 197.403036 
L 187.755619 197.57514 
L 188.161844 198.064285 
L 188.568068 199.041766 
L 188.974292 198.002415 
L 189.380517 199.42822 
L 189.786741 197.490932 
L 190.192966 198.307063 
L 190.59919 198.065496 
L 191.005414 197.533727 
L 191.411639 198.264932 
L 191.817863 198.464253 
L 192.224088 197.869899 
L 192.630312 196.984839 
L 193.036536 196.827016 
L 194.25521 199.512781 
L 194.661434 199.294283 
L 195.067658 199.891613 
L 195.473883 199.621459 
L 195.880107 199.737575 
L 196.286332 198.753453 
L 197.09878 198.544224 
L 197.505005 199.224402 
L 198.317454 197.30916 
L 198.723678 196.332198 
L 199.129902 196.166103 
L 199.536127 197.298208 
L 199.942351 197.124403 
L 200.348576 195.799141 
L 200.7548 196.400344 
L 201.161025 198.513357 
L 201.567249 198.568185 
L 201.973473 199.250667 
L 202.379698 200.154429 
L 202.785922 197.806436 
L 203.192147 198.524629 
L 203.598371 198.657936 
L 204.004595 198.557866 
L 204.41082 199.0096 
L 205.223269 200.591636 
L 206.035717 201.897919 
L 206.441942 201.193375 
L 206.848166 202.103816 
L 207.254391 202.006833 
L 207.660615 201.376773 
L 208.066839 201.185082 
L 208.473064 201.995049 
L 208.879288 202.182282 
L 209.285513 203.765025 
L 209.691737 204.034488 
L 210.504186 205.818212 
L 210.91041 205.722222 
L 211.316635 204.701802 
L 211.722859 205.950523 
L 212.129083 206.050649 
L 212.535308 204.708918 
L 212.941532 205.712107 
L 213.347757 204.826187 
L 213.753981 205.574936 
L 214.160206 205.361425 
L 214.56643 206.367912 
L 214.972654 204.667935 
L 215.378879 205.750202 
L 215.785103 205.693154 
L 216.191328 204.940345 
L 216.597552 205.70792 
L 217.410001 205.862382 
L 217.816225 205.703928 
L 218.22245 205.156169 
L 218.628674 205.197644 
L 219.034898 204.113945 
L 219.441123 205.08886 
L 219.847347 205.496062 
L 220.253572 206.264663 
L 220.659796 206.327674 
L 221.472245 208.260102 
L 221.878469 206.791206 
L 222.284694 207.730881 
L 223.097142 209.063833 
L 223.503367 208.724426 
L 223.909591 208.991533 
L 224.315816 209.646989 
L 224.72204 209.143501 
L 225.128264 209.009857 
L 225.534489 208.570068 
L 226.346938 208.263838 
L 226.753162 205.989984 
L 227.159387 204.790192 
L 227.971835 205.815662 
L 228.37806 205.806885 
L 228.784284 206.024943 
L 229.190509 205.920416 
L 229.596733 204.639542 
L 230.002957 205.451083 
L 230.409182 207.76692 
L 230.815406 207.766389 
L 231.221631 208.585718 
L 231.627855 207.107846 
L 232.034079 207.265723 
L 232.440304 205.826843 
L 232.846528 206.944283 
L 233.252753 207.044608 
L 233.658977 205.828033 
L 234.065201 203.473222 
L 234.471426 203.34038 
L 234.87765 203.359447 
L 235.283875 201.424691 
L 235.690099 200.699208 
L 236.096323 201.551489 
L 236.908772 201.524835 
L 237.314997 200.225659 
L 237.721221 200.843893 
L 238.127445 198.83866 
L 238.53367 198.785081 
L 239.752343 200.508637 
L 240.564792 198.529588 
L 240.971016 200.87462 
L 241.377241 200.250831 
L 241.783465 200.328876 
L 242.18969 200.095132 
L 242.595914 200.249787 
L 243.002138 199.349875 
L 243.408363 200.637067 
L 244.220812 199.661394 
L 244.627036 200.633553 
L 245.03326 201.006423 
L 245.439485 200.782388 
L 245.845709 200.812787 
L 246.251934 199.948795 
L 246.658158 197.99433 
L 247.064382 198.107576 
L 247.470607 197.243559 
L 248.283056 197.284315 
L 248.68928 198.689636 
L 249.095504 198.469322 
L 249.501729 197.492011 
L 249.907953 197.424734 
L 250.314178 197.842065 
L 250.720402 197.640529 
L 251.126626 196.648893 
L 251.532851 197.26931 
L 251.939075 197.264949 
L 252.3453 196.929782 
L 253.157749 197.856964 
L 254.782646 193.464247 
L 255.188871 192.426431 
L 255.595095 193.821195 
L 256.001319 193.617876 
L 256.407544 192.675253 
L 256.813768 193.255565 
L 257.219993 192.047863 
L 257.626217 192.651245 
L 258.032441 193.046345 
L 258.438666 193.892902 
L 258.84489 193.774018 
L 259.251115 192.424127 
L 259.657339 193.383375 
L 260.063563 193.272527 
L 260.469788 193.753114 
L 260.876012 192.797538 
L 261.282237 192.749268 
L 261.688461 192.928258 
L 262.094685 192.458324 
L 262.50091 194.735563 
L 262.907134 194.650368 
L 263.313359 194.187748 
L 263.719583 194.291666 
L 264.125807 193.439523 
L 264.532032 194.256713 
L 264.938256 194.20049 
L 265.344481 195.054679 
L 265.750705 192.84112 
L 266.15693 193.755163 
L 266.563154 193.067772 
L 266.969378 194.163676 
L 267.781827 198.170252 
L 268.188052 198.443181 
L 268.594276 198.56521 
L 269.0005 199.424862 
L 269.406725 198.382951 
L 269.812949 198.463821 
L 270.219174 200.03298 
L 270.625398 197.860703 
L 271.437847 196.331837 
L 271.844071 194.245205 
L 272.250296 196.543256 
L 272.65652 196.435667 
L 273.062744 196.881332 
L 273.468969 196.312208 
L 273.875193 197.121252 
L 274.281418 198.583798 
L 274.687642 200.843254 
L 275.093866 198.641353 
L 275.500091 197.488249 
L 275.906315 197.6068 
L 276.718764 197.662453 
L 277.124988 198.310313 
L 277.531213 198.387958 
L 277.937437 200.391268 
L 278.343662 200.173092 
L 278.749886 202.53341 
L 279.156111 203.050681 
L 279.562335 202.899653 
L 279.968559 200.655061 
L 280.374784 200.43394 
L 280.781008 201.069979 
L 281.187233 201.276399 
L 281.593457 201.22058 
L 281.999681 199.82836 
L 282.405906 199.01833 
L 283.218355 199.278106 
L 283.624579 200.347908 
L 284.030803 200.513857 
L 284.843252 201.088952 
L 285.249477 198.76008 
L 285.655701 198.388345 
L 286.061925 197.772674 
L 286.874374 194.388183 
L 287.280599 196.240632 
L 288.093047 198.241915 
L 288.499272 198.294816 
L 288.905496 199.226495 
L 289.311721 196.882508 
L 289.717945 196.00988 
L 290.124169 195.986433 
L 290.530394 196.767083 
L 290.936618 196.872577 
L 291.342843 196.073358 
L 291.749067 196.940695 
L 292.155292 196.337 
L 292.561516 196.871925 
L 292.96774 195.83727 
L 294.592638 195.74042 
L 294.998862 196.441964 
L 295.405087 198.824711 
L 296.217536 198.851934 
L 296.62376 197.954542 
L 297.029984 198.646421 
L 297.436209 196.73323 
L 297.842433 195.517682 
L 298.248658 194.919506 
L 298.654882 195.476087 
L 299.061106 194.796204 
L 299.467331 195.732402 
L 299.873555 195.739708 
L 300.27978 195.48612 
L 300.686004 195.556947 
L 301.092228 194.657611 
L 301.498453 194.966971 
L 301.904677 195.038123 
L 302.310902 194.016901 
L 302.717126 193.466517 
L 303.12335 192.557886 
L 303.529575 192.71382 
L 303.935799 193.427751 
L 304.342024 193.070821 
L 304.748248 193.153582 
L 305.154473 192.151772 
L 305.560697 192.726965 
L 305.966921 191.796089 
L 306.373146 191.803674 
L 306.77937 190.737151 
L 307.185595 191.346702 
L 307.591819 190.437868 
L 308.404268 188.406072 
L 308.810492 188.170967 
L 309.216717 188.395391 
L 309.622941 187.43853 
L 310.029165 187.591027 
L 310.841614 187.296611 
L 311.247839 188.673154 
L 312.060287 185.744247 
L 312.466512 188.212158 
L 312.872736 188.021577 
L 313.685185 188.064612 
L 314.091409 187.849615 
L 314.497634 187.041109 
L 314.903858 186.924775 
L 315.310083 186.990676 
L 315.716307 188.520468 
L 316.122531 188.737954 
L 316.528756 189.906669 
L 316.93498 189.711702 
L 317.341205 188.423782 
L 317.747429 187.900322 
L 318.153654 190.291908 
L 318.559878 189.65604 
L 318.966102 189.362588 
L 319.372327 188.878162 
L 319.778551 186.913178 
L 320.184776 186.420785 
L 320.591 188.569235 
L 320.997224 188.658926 
L 321.403449 188.102939 
L 321.809673 189.129345 
L 322.215898 186.829103 
L 323.028346 189.161293 
L 323.434571 189.279261 
L 323.840795 188.033293 
L 324.24702 187.935937 
L 324.653244 188.811743 
L 325.059468 186.890432 
L 325.871917 189.449298 
L 326.278142 189.326949 
L 326.684366 188.151941 
L 327.09059 190.006656 
L 327.496815 191.284972 
L 327.903039 190.657125 
L 328.309264 188.359206 
L 328.715488 187.953148 
L 329.121712 187.822495 
L 329.527937 187.839596 
L 329.934161 188.920988 
L 330.340386 187.947198 
L 330.74661 188.876968 
L 331.152835 187.825233 
L 331.559059 185.912252 
L 331.965283 186.968332 
L 332.371508 186.26688 
L 332.777732 186.159449 
L 333.183957 185.400234 
L 333.590181 185.634663 
L 333.996405 185.114612 
L 334.40263 185.070765 
L 334.808854 185.762272 
L 335.215079 188.020605 
L 335.621303 187.532063 
L 336.027527 186.359409 
L 336.433752 187.06694 
L 336.839976 187.038939 
L 337.246201 187.617288 
L 337.652425 187.073285 
L 338.464874 190.276903 
L 338.871098 191.095714 
L 339.277323 190.971506 
L 339.683547 189.58894 
L 340.089771 187.380138 
L 340.495996 189.777558 
L 340.90222 189.654788 
L 341.308445 188.781216 
L 341.714669 189.563597 
L 342.120893 189.664594 
L 342.527118 189.259306 
L 342.933342 187.916471 
L 343.339567 187.895235 
L 343.745791 188.767045 
L 344.55824 186.7907 
L 344.964464 186.715226 
L 345.370689 186.910078 
L 345.776913 187.67895 
L 346.183138 186.683462 
L 346.589362 186.364851 
L 346.995586 188.091305 
L 347.401811 188.340985 
L 347.808035 187.767002 
L 348.620484 187.650228 
L 349.026708 188.985097 
L 349.432933 189.307148 
L 349.839157 189.331595 
L 350.245382 189.845172 
L 350.651606 190.726669 
L 351.05783 190.134472 
L 351.464055 190.184614 
L 351.870279 189.971718 
L 352.276504 191.20689 
L 352.682728 193.365403 
L 353.495177 193.278372 
L 353.901401 192.682726 
L 354.307626 192.644178 
L 355.120074 189.592915 
L 355.526299 189.592559 
L 355.932523 187.224988 
L 357.557421 189.736499 
L 358.36987 189.543684 
L 358.776094 189.513135 
L 359.588543 189.226568 
L 359.994767 188.619986 
L 360.807216 188.701659 
L 361.213441 187.761923 
L 362.025889 189.413338 
L 362.432114 189.500094 
L 362.838338 191.662946 
L 363.244563 192.472424 
L 363.650787 192.05852 
L 364.057011 191.809786 
L 364.463236 192.574677 
L 365.275685 190.420129 
L 365.681909 192.51477 
L 366.088133 192.196671 
L 366.494358 192.119805 
L 366.900582 190.264606 
L 367.306807 191.56865 
L 367.713031 191.138243 
L 368.119255 191.241998 
L 368.52548 191.170794 
L 368.931704 192.48184 
L 369.337929 190.545852 
L 369.744153 189.288537 
L 370.150378 188.82366 
L 370.556602 187.684741 
L 370.962826 188.898071 
L 371.369051 187.866755 
L 371.775275 188.047507 
L 372.1815 189.46903 
L 372.587724 188.565616 
L 372.993948 188.618885 
L 373.400173 188.417536 
L 373.806397 188.444977 
L 374.212622 189.029694 
L 374.618846 189.979051 
L 375.02507 188.701678 
L 375.837519 186.818647 
L 376.649968 186.756653 
L 377.056192 186.144745 
L 377.462417 186.174433 
L 378.274866 185.949774 
L 378.68109 185.668947 
L 379.087314 186.482034 
L 379.493539 186.074103 
L 379.899763 185.993733 
L 380.305988 187.810203 
L 380.712212 189.034022 
L 381.524661 187.407125 
L 382.33711 187.028296 
L 382.743334 187.894641 
L 383.149559 188.27492 
L 383.555783 189.403315 
L 384.368232 189.500209 
L 384.774456 190.077302 
L 385.180681 190.419392 
L 385.586905 189.592767 
L 385.993129 190.326734 
L 386.399354 189.677101 
L 386.805578 190.522961 
L 387.211803 191.023285 
L 387.618027 190.808575 
L 388.024251 191.406959 
L 388.430476 189.961486 
L 388.8367 190.94855 
L 389.242925 191.242852 
L 389.649149 190.200608 
L 390.055373 187.966352 
L 390.461598 187.881368 
L 390.867822 187.984468 
L 391.274047 187.203407 
L 391.680271 188.031984 
L 392.086495 186.682511 
L 392.49272 187.755007 
L 392.898944 187.871457 
L 393.305169 187.045031 
L 393.711393 185.674156 
L 394.523842 185.96585 
L 394.930066 186.982223 
L 395.336291 188.368766 
L 395.742515 190.522695 
L 396.14874 190.417533 
L 396.554964 192.717566 
L 396.961188 192.616938 
L 397.773637 191.116975 
L 398.586086 192.080809 
L 399.398535 192.075933 
L 399.804759 192.28282 
L 400.210984 192.208375 
L 400.617208 193.287119 
L 401.023432 194.79359 
L 401.429657 195.347533 
L 402.242106 193.171351 
L 403.054554 191.342242 
L 403.460779 191.199515 
L 404.273228 189.61126 
L 404.679452 189.726147 
L 405.085676 187.787022 
L 405.491901 188.341539 
L 406.30435 186.35951 
L 406.710574 185.506079 
L 407.116798 185.553944 
L 407.523023 187.093841 
L 407.929247 187.603724 
L 408.335472 187.421346 
L 409.554145 187.424615 
L 409.960369 188.535521 
L 410.366594 190.616802 
L 410.772818 191.124936 
L 411.179043 191.188515 
L 411.991491 193.270118 
L 412.80394 193.211966 
L 413.210165 193.111387 
L 413.616389 192.620954 
L 414.022613 193.895706 
L 414.428838 193.859883 
L 414.835062 194.227228 
L 414.835062 194.227228 
" clip-path="url(#p7eee489a79)" style="fill: none; stroke: #0000ff; stroke-width: 1.5; stroke-linecap: square"/>
   </g>
   <g id="patch_3">
    <path d="M 28.942188 301.037813 
L 28.942188 23.837813 
" style="fill: none; stroke: #000000; stroke-width: 0.8; stroke-linejoin: miter; stroke-linecap: square"/>
   </g>
   <g id="patch_4">
    <path d="M 475.342187 301.037813 
L 475.342187 23.837813 
" style="fill: none; stroke: #000000; stroke-width: 0.8; stroke-linejoin: miter; stroke-linecap: square"/>
   </g>
   <g id="patch_5">
    <path d="M 28.942188 301.037813 
L 475.342187 301.037813 
" style="fill: none; stroke: #000000; stroke-width: 0.8; stroke-linejoin: miter; stroke-linecap: square"/>
   </g>
   <g id="patch_6">
    <path d="M 28.942188 23.837813 
L 475.342187 23.837813 
" style="fill: none; stroke: #000000; stroke-width: 0.8; stroke-linejoin: miter; stroke-linecap: square"/>
   </g>
   <g id="text_16">
    <!-- Training Rewards -->
    <g transform="translate(192.585312 17.837813) scale(0.14 -0.14)">
     <defs>
      <path id="DejaVuSans-54" d="M -19 4666 
L 3928 4666 
L 3928 4134 
L 2272 4134 
L 2272 0 
L 1638 0 
L 1638 4134 
L -19 4134 
L -19 4666 
z
" transform="scale(0.015625)"/>
      <path id="DejaVuSans-72" d="M 2631 2963 
Q 2534 3019 2420 3045 
Q 2306 3072 2169 3072 
Q 1681 3072 1420 2755 
Q 1159 2438 1159 1844 
L 1159 0 
L 581 0 
L 581 3500 
L 1159 3500 
L 1159 2956 
Q 1341 3275 1631 3429 
Q 1922 3584 2338 3584 
Q 2397 3584 2469 3576 
Q 2541 3569 2628 3553 
L 2631 2963 
z
" transform="scale(0.015625)"/>
      <path id="DejaVuSans-61" d="M 2194 1759 
Q 1497 1759 1228 1600 
Q 959 1441 959 1056 
Q 959 750 1161 570 
Q 1363 391 1709 391 
Q 2188 391 2477 730 
Q 2766 1069 2766 1631 
L 2766 1759 
L 2194 1759 
z
M 3341 1997 
L 3341 0 
L 2766 0 
L 2766 531 
Q 2569 213 2275 61 
Q 1981 -91 1556 -91 
Q 1019 -91 701 211 
Q 384 513 384 1019 
Q 384 1609 779 1909 
Q 1175 2209 1959 2209 
L 2766 2209 
L 2766 2266 
Q 2766 2663 2505 2880 
Q 2244 3097 1772 3097 
Q 1472 3097 1187 3025 
Q 903 2953 641 2809 
L 641 3341 
Q 956 3463 1253 3523 
Q 1550 3584 1831 3584 
Q 2591 3584 2966 3190 
Q 3341 2797 3341 1997 
z
" transform="scale(0.015625)"/>
      <path id="DejaVuSans-69" d="M 603 3500 
L 1178 3500 
L 1178 0 
L 603 0 
L 603 3500 
z
M 603 4863 
L 1178 4863 
L 1178 4134 
L 603 4134 
L 603 4863 
z
" transform="scale(0.015625)"/>
      <path id="DejaVuSans-6e" d="M 3513 2113 
L 3513 0 
L 2938 0 
L 2938 2094 
Q 2938 2591 2744 2837 
Q 2550 3084 2163 3084 
Q 1697 3084 1428 2787 
Q 1159 2491 1159 1978 
L 1159 0 
L 581 0 
L 581 3500 
L 1159 3500 
L 1159 2956 
Q 1366 3272 1645 3428 
Q 1925 3584 2291 3584 
Q 2894 3584 3203 3211 
Q 3513 2838 3513 2113 
z
" transform="scale(0.015625)"/>
      <path id="DejaVuSans-67" d="M 2906 1791 
Q 2906 2416 2648 2759 
Q 2391 3103 1925 3103 
Q 1463 3103 1205 2759 
Q 947 2416 947 1791 
Q 947 1169 1205 825 
Q 1463 481 1925 481 
Q 2391 481 2648 825 
Q 2906 1169 2906 1791 
z
M 3481 434 
Q 3481 -459 3084 -895 
Q 2688 -1331 1869 -1331 
Q 1566 -1331 1297 -1286 
Q 1028 -1241 775 -1147 
L 775 -588 
Q 1028 -725 1275 -790 
Q 1522 -856 1778 -856 
Q 2344 -856 2625 -561 
Q 2906 -266 2906 331 
L 2906 616 
Q 2728 306 2450 153 
Q 2172 0 1784 0 
Q 1141 0 747 490 
Q 353 981 353 1791 
Q 353 2603 747 3093 
Q 1141 3584 1784 3584 
Q 2172 3584 2450 3431 
Q 2728 3278 2906 2969 
L 2906 3500 
L 3481 3500 
L 3481 434 
z
" transform="scale(0.015625)"/>
      <path id="DejaVuSans-20" transform="scale(0.015625)"/>
      <path id="DejaVuSans-52" d="M 2841 2188 
Q 3044 2119 3236 1894 
Q 3428 1669 3622 1275 
L 4263 0 
L 3584 0 
L 2988 1197 
Q 2756 1666 2539 1819 
Q 2322 1972 1947 1972 
L 1259 1972 
L 1259 0 
L 628 0 
L 628 4666 
L 2053 4666 
Q 2853 4666 3247 4331 
Q 3641 3997 3641 3322 
Q 3641 2881 3436 2590 
Q 3231 2300 2841 2188 
z
M 1259 4147 
L 1259 2491 
L 2053 2491 
Q 2509 2491 2742 2702 
Q 2975 2913 2975 3322 
Q 2975 3731 2742 3939 
Q 2509 4147 2053 4147 
L 1259 4147 
z
" transform="scale(0.015625)"/>
      <path id="DejaVuSans-65" d="M 3597 1894 
L 3597 1613 
L 953 1613 
Q 991 1019 1311 708 
Q 1631 397 2203 397 
Q 2534 397 2845 478 
Q 3156 559 3463 722 
L 3463 178 
Q 3153 47 2828 -22 
Q 2503 -91 2169 -91 
Q 1331 -91 842 396 
Q 353 884 353 1716 
Q 353 2575 817 3079 
Q 1281 3584 2069 3584 
Q 2775 3584 3186 3129 
Q 3597 2675 3597 1894 
z
M 3022 2063 
Q 3016 2534 2758 2815 
Q 2500 3097 2075 3097 
Q 1594 3097 1305 2825 
Q 1016 2553 972 2059 
L 3022 2063 
z
" transform="scale(0.015625)"/>
      <path id="DejaVuSans-77" d="M 269 3500 
L 844 3500 
L 1563 769 
L 2278 3500 
L 2956 3500 
L 3675 769 
L 4391 3500 
L 4966 3500 
L 4050 0 
L 3372 0 
L 2619 2869 
L 1863 0 
L 1184 0 
L 269 3500 
z
" transform="scale(0.015625)"/>
      <path id="DejaVuSans-64" d="M 2906 2969 
L 2906 4863 
L 3481 4863 
L 3481 0 
L 2906 0 
L 2906 525 
Q 2725 213 2448 61 
Q 2172 -91 1784 -91 
Q 1150 -91 751 415 
Q 353 922 353 1747 
Q 353 2572 751 3078 
Q 1150 3584 1784 3584 
Q 2172 3584 2448 3432 
Q 2725 3281 2906 2969 
z
M 947 1747 
Q 947 1113 1208 752 
Q 1469 391 1925 391 
Q 2381 391 2643 752 
Q 2906 1113 2906 1747 
Q 2906 2381 2643 2742 
Q 2381 3103 1925 3103 
Q 1469 3103 1208 2742 
Q 947 2381 947 1747 
z
" transform="scale(0.015625)"/>
      <path id="DejaVuSans-73" d="M 2834 3397 
L 2834 2853 
Q 2591 2978 2328 3040 
Q 2066 3103 1784 3103 
Q 1356 3103 1142 2972 
Q 928 2841 928 2578 
Q 928 2378 1081 2264 
Q 1234 2150 1697 2047 
L 1894 2003 
Q 2506 1872 2764 1633 
Q 3022 1394 3022 966 
Q 3022 478 2636 193 
Q 2250 -91 1575 -91 
Q 1294 -91 989 -36 
Q 684 19 347 128 
L 347 722 
Q 666 556 975 473 
Q 1284 391 1588 391 
Q 1994 391 2212 530 
Q 2431 669 2431 922 
Q 2431 1156 2273 1281 
Q 2116 1406 1581 1522 
L 1381 1569 
Q 847 1681 609 1914 
Q 372 2147 372 2553 
Q 372 3047 722 3315 
Q 1072 3584 1716 3584 
Q 2034 3584 2315 3537 
Q 2597 3491 2834 3397 
z
" transform="scale(0.015625)"/>
     </defs>
     <use xlink:href="#DejaVuSans-54"/>
     <use xlink:href="#DejaVuSans-72" transform="translate(46.333984 0)"/>
     <use xlink:href="#DejaVuSans-61" transform="translate(87.447266 0)"/>
     <use xlink:href="#DejaVuSans-69" transform="translate(148.726562 0)"/>
     <use xlink:href="#DejaVuSans-6e" transform="translate(176.509766 0)"/>
     <use xlink:href="#DejaVuSans-69" transform="translate(239.888672 0)"/>
     <use xlink:href="#DejaVuSans-6e" transform="translate(267.671875 0)"/>
     <use xlink:href="#DejaVuSans-67" transform="translate(331.050781 0)"/>
     <use xlink:href="#DejaVuSans-20" transform="translate(394.527344 0)"/>
     <use xlink:href="#DejaVuSans-52" transform="translate(426.314453 0)"/>
     <use xlink:href="#DejaVuSans-65" transform="translate(491.296875 0)"/>
     <use xlink:href="#DejaVuSans-77" transform="translate(552.820312 0)"/>
     <use xlink:href="#DejaVuSans-61" transform="translate(634.607422 0)"/>
     <use xlink:href="#DejaVuSans-72" transform="translate(695.886719 0)"/>
     <use xlink:href="#DejaVuSans-64" transform="translate(735.25 0)"/>
     <use xlink:href="#DejaVuSans-73" transform="translate(798.726562 0)"/>
    </g>
   </g>
   <g id="legend_1">
    <g id="patch_7">
     <path d="M 35.942188 61.194063 
L 155.839063 61.194063 
Q 157.839063 61.194063 157.839063 59.194063 
L 157.839063 30.837813 
Q 157.839063 28.837813 155.839063 28.837813 
L 35.942188 28.837813 
Q 33.942188 28.837813 33.942188 30.837813 
L 33.942188 59.194063 
Q 33.942188 61.194063 35.942188 61.194063 
z
" style="fill: #ffffff; opacity: 0.8; stroke: #cccccc; stroke-linejoin: miter"/>
    </g>
    <g id="line2d_33">
     <path d="M 37.942188 36.93625 
L 47.942188 36.93625 
L 57.942188 36.93625 
" style="fill: none; stroke: #808080; stroke-opacity: 0.3; stroke-width: 1.5; stroke-linecap: square"/>
    </g>
    <g id="text_17">
     <!-- Raw -->
     <g transform="translate(65.942188 40.43625) scale(0.1 -0.1)">
      <use xlink:href="#DejaVuSans-52"/>
      <use xlink:href="#DejaVuSans-61" transform="translate(67.232422 0)"/>
      <use xlink:href="#DejaVuSans-77" transform="translate(128.511719 0)"/>
     </g>
    </g>
    <g id="line2d_34">
     <path d="M 37.942188 51.614375 
L 47.942188 51.614375 
L 57.942188 51.614375 
" style="fill: none; stroke: #0000ff; stroke-width: 1.5; stroke-linecap: square"/>
    </g>
    <g id="text_18">
     <!-- Moving Avg (100) -->
     <g transform="translate(65.942188 55.114375) scale(0.1 -0.1)">
      <defs>
       <path id="DejaVuSans-4d" d="M 628 4666 
L 1569 4666 
L 2759 1491 
L 3956 4666 
L 4897 4666 
L 4897 0 
L 4281 0 
L 4281 4097 
L 3078 897 
L 2444 897 
L 1241 4097 
L 1241 0 
L 628 0 
L 628 4666 
z
" transform="scale(0.015625)"/>
       <path id="DejaVuSans-6f" d="M 1959 3097 
Q 1497 3097 1228 2736 
Q 959 2375 959 1747 
Q 959 1119 1226 758 
Q 1494 397 1959 397 
Q 2419 397 2687 759 
Q 2956 1122 2956 1747 
Q 2956 2369 2687 2733 
Q 2419 3097 1959 3097 
z
M 1959 3584 
Q 2709 3584 3137 3096 
Q 3566 2609 3566 1747 
Q 3566 888 3137 398 
Q 2709 -91 1959 -91 
Q 1206 -91 779 398 
Q 353 888 353 1747 
Q 353 2609 779 3096 
Q 1206 3584 1959 3584 
z
" transform="scale(0.015625)"/>
       <path id="DejaVuSans-76" d="M 191 3500 
L 800 3500 
L 1894 563 
L 2988 3500 
L 3597 3500 
L 2284 0 
L 1503 0 
L 191 3500 
z
" transform="scale(0.015625)"/>
       <path id="DejaVuSans-41" d="M 2188 4044 
L 1331 1722 
L 3047 1722 
L 2188 4044 
z
M 1831 4666 
L 2547 4666 
L 4325 0 
L 3669 0 
L 3244 1197 
L 1141 1197 
L 716 0 
L 50 0 
L 1831 4666 
z
" transform="scale(0.015625)"/>
       <path id="DejaVuSans-28" d="M 1984 4856 
Q 1566 4138 1362 3434 
Q 1159 2731 1159 2009 
Q 1159 1288 1364 580 
Q 1569 -128 1984 -844 
L 1484 -844 
Q 1016 -109 783 600 
Q 550 1309 550 2009 
Q 550 2706 781 3412 
Q 1013 4119 1484 4856 
L 1984 4856 
z
" transform="scale(0.015625)"/>
       <path id="DejaVuSans-29" d="M 513 4856 
L 1013 4856 
Q 1481 4119 1714 3412 
Q 1947 2706 1947 2009 
Q 1947 1309 1714 600 
Q 1481 -109 1013 -844 
L 513 -844 
Q 928 -128 1133 580 
Q 1338 1288 1338 2009 
Q 1338 2731 1133 3434 
Q 928 4138 513 4856 
z
" transform="scale(0.015625)"/>
      </defs>
      <use xlink:href="#DejaVuSans-4d"/>
      <use xlink:href="#DejaVuSans-6f" transform="translate(86.279297 0)"/>
      <use xlink:href="#DejaVuSans-76" transform="translate(147.460938 0)"/>
      <use xlink:href="#DejaVuSans-69" transform="translate(206.640625 0)"/>
      <use xlink:href="#DejaVuSans-6e" transform="translate(234.423828 0)"/>
      <use xlink:href="#DejaVuSans-67" transform="translate(297.802734 0)"/>
      <use xlink:href="#DejaVuSans-20" transform="translate(361.279297 0)"/>
      <use xlink:href="#DejaVuSans-41" transform="translate(393.066406 0)"/>
      <use xlink:href="#DejaVuSans-76" transform="translate(455.599609 0)"/>
      <use xlink:href="#DejaVuSans-67" transform="translate(514.779297 0)"/>
      <use xlink:href="#DejaVuSans-20" transform="translate(578.255859 0)"/>
      <use xlink:href="#DejaVuSans-28" transform="translate(610.042969 0)"/>
      <use xlink:href="#DejaVuSans-31" transform="translate(649.056641 0)"/>
      <use xlink:href="#DejaVuSans-30" transform="translate(712.679688 0)"/>
      <use xlink:href="#DejaVuSans-30" transform="translate(776.302734 0)"/>
      <use xlink:href="#DejaVuSans-29" transform="translate(839.925781 0)"/>
     </g>
    </g>
   </g>
  </g>
 </g>
 <defs>
  <clipPath id="p7eee489a79">
   <rect x="28.942188" y="23.837813" width="446.4" height="277.2"/>
  </clipPath>
 </defs>
</svg>
