<?xml version="1.0" encoding="utf-8" standalone="no"?>
<!DOCTYPE svg PUBLIC "-//W3C//DTD SVG 1.1//EN"
  "http://www.w3.org/Graphics/SVG/1.1/DTD/svg11.dtd">
<svg xmlns:xlink="http://www.w3.org/1999/xlink" width="482.542187pt" height="324.915938pt" viewBox="0 0 482.542187 324.915938" xmlns="http://www.w3.org/2000/svg" version="1.1">
 <metadata>
  <rdf:RDF xmlns:dc="http://purl.org/dc/elements/1.1/" xmlns:cc="http://creativecommons.org/ns#" xmlns:rdf="http://www.w3.org/1999/02/22-rdf-syntax-ns#">
   <cc:Work>
    <dc:type rdf:resource="http://purl.org/dc/dcmitype/StillImage"/>
    <dc:date>2026-07-07T20:18:09.921419</dc:date>
    <dc:format>image/svg+xml</dc:format>
    <dc:creator>
     <cc:Agent>
      <dc:title>Matplotlib v3.10.9, https://matplotlib.org/</dc:title>
     </cc:Agent>
    </dc:creator>
   </cc:Work>
  </rdf:RDF>
 </metadata>
 <defs>
  <style type="text/css">*{stroke-linejoin: round; stroke-linecap: butt}</style>
 </defs>
 <g id="figure_1">
  <g id="patch_1">
   <path d="M 0 324.915938 
L 482.542187 324.915938 
L 482.542187 0 
L 0 0 
z
" style="fill: #ffffff"/>
  </g>
  <g id="axes_1">
   <g id="patch_2">
    <path d="M 28.942188 301.037813 
L 475.342187 301.037813 
L 475.342187 23.837813 
L 28.942188 23.837813 
z
" style="fill: #ffffff"/>
   </g>
   <g id="matplotlib.axis_1">
    <g id="xtick_1">
     <g id="line2d_1">
      <path d="M 49.233097 301.037813 
L 49.233097 23.837813 
" clip-path="url(#p2c76818435)" style="fill: none; stroke: #b0b0b0; stroke-opacity: 0.3; stroke-width: 0.8; stroke-linecap: square"/>
     </g>
     <g id="line2d_2">
      <defs>
       <path id="maf443b9bd7" d="M 0 0 
L 0 3.5 
" style="stroke: #000000; stroke-width: 0.8"/>
      </defs>
      <g>
       <use xlink:href="#maf443b9bd7" x="49.233097" y="301.037813" style="stroke: #000000; stroke-width: 0.8"/>
      </g>
     </g>
     <g id="text_1">
      <!-- 0 -->
      <g transform="translate(46.051847 315.63625) scale(0.1 -0.1)">
       <defs>
        <path id="DejaVuSans-30" d="M 2034 4250 
Q 1547 4250 1301 3770 
Q 1056 3291 1056 2328 
Q 1056 1369 1301 889 
Q 1547 409 2034 409 
Q 2525 409 2770 889 
Q 3016 1369 3016 2328 
Q 3016 3291 2770 3770 
Q 2525 4250 2034 4250 
z
M 2034 4750 
Q 2819 4750 3233 4129 
Q 3647 3509 3647 2328 
Q 3647 1150 3233 529 
Q 2819 -91 2034 -91 
Q 1250 -91 836 529 
Q 422 1150 422 2328 
Q 422 3509 836 4129 
Q 1250 4750 2034 4750 
z
" transform="scale(0.015625)"/>
       </defs>
       <use xlink:href="#DejaVuSans-30"/>
      </g>
     </g>
    </g>
    <g id="xtick_2">
     <g id="line2d_3">
      <path d="M 139.414915 301.037813 
L 139.414915 23.837813 
" clip-path="url(#p2c76818435)" style="fill: none; stroke: #b0b0b0; stroke-opacity: 0.3; stroke-width: 0.8; stroke-linecap: square"/>
     </g>
     <g id="line2d_4">
      <g>
       <use xlink:href="#maf443b9bd7" x="139.414915" y="301.037813" style="stroke: #000000; stroke-width: 0.8"/>
      </g>
     </g>
     <g id="text_2">
      <!-- 200 -->
      <g transform="translate(129.871165 315.63625) scale(0.1 -0.1)">
       <defs>
        <path id="DejaVuSans-32" d="M 1228 531 
L 3431 531 
L 3431 0 
L 469 0 
L 469 531 
Q 828 903 1448 1529 
Q 2069 2156 2228 2338 
Q 2531 2678 2651 2914 
Q 2772 3150 2772 3378 
Q 2772 3750 2511 3984 
Q 2250 4219 1831 4219 
Q 1534 4219 1204 4116 
Q 875 4013 500 3803 
L 500 4441 
Q 881 4594 1212 4672 
Q 1544 4750 1819 4750 
Q 2544 4750 2975 4387 
Q 3406 4025 3406 3419 
Q 3406 3131 3298 2873 
Q 3191 2616 2906 2266 
Q 2828 2175 2409 1742 
Q 1991 1309 1228 531 
z
" transform="scale(0.015625)"/>
       </defs>
       <use xlink:href="#DejaVuSans-32"/>
       <use xlink:href="#DejaVuSans-30" transform="translate(63.623047 0)"/>
       <use xlink:href="#DejaVuSans-30" transform="translate(127.246094 0)"/>
      </g>
     </g>
    </g>
    <g id="xtick_3">
     <g id="line2d_5">
      <path d="M 229.596733 301.037813 
L 229.596733 23.837813 
" clip-path="url(#p2c76818435)" style="fill: none; stroke: #b0b0b0; stroke-opacity: 0.3; stroke-width: 0.8; stroke-linecap: square"/>
     </g>
     <g id="line2d_6">
      <g>
       <use xlink:href="#maf443b9bd7" x="229.596733" y="301.037813" style="stroke: #000000; stroke-width: 0.8"/>
      </g>
     </g>
     <g id="text_3">
      <!-- 400 -->
      <g transform="translate(220.052983 315.63625) scale(0.1 -0.1)">
       <defs>
        <path id="DejaVuSans-34" d="M 2419 4116 
L 825 1625 
L 2419 1625 
L 2419 4116 
z
M 2253 4666 
L 3047 4666 
L 3047 1625 
L 3713 1625 
L 3713 1100 
L 3047 1100 
L 3047 0 
L 2419 0 
L 2419 1100 
L 313 1100 
L 313 1709 
L 2253 4666 
z
" transform="scale(0.015625)"/>
       </defs>
       <use xlink:href="#DejaVuSans-34"/>
       <use xlink:href="#DejaVuSans-30" transform="translate(63.623047 0)"/>
       <use xlink:href="#DejaVuSans-30" transform="translate(127.246094 0)"/>
      </g>
     </g>
    </g>
    <g id="xtick_4">
     <g id="line2d_7">
      <path d="M 319.778551 301.037813 
L 319.778551 23.837813 
" clip-path="url(#p2c76818435)" style="fill: none; stroke: #b0b0b0; stroke-opacity: 0.3; stroke-width: 0.8; stroke-linecap: square"/>
     </g>
     <g id="line2d_8">
      <g>
       <use xlink:href="#maf443b9bd7" x="319.778551" y="301.037813" style="stroke: #000000; stroke-width: 0.8"/>
      </g>
     </g>
     <g id="text_4">
      <!-- 600 -->
      <g transform="translate(310.234801 315.63625) scale(0.1 -0.1)">
       <defs>
        <path id="DejaVuSans-36" d="M 2113 2584 
Q 1688 2584 1439 2293 
Q 1191 2003 1191 1497 
Q 1191 994 1439 701 
Q 1688 409 2113 409 
Q 2538 409 2786 701 
Q 3034 994 3034 1497 
Q 3034 2003 2786 2293 
Q 2538 2584 2113 2584 
z
M 3366 4563 
L 3366 3988 
Q 3128 4100 2886 4159 
Q 2644 4219 2406 4219 
Q 1781 4219 1451 3797 
Q 1122 3375 1075 2522 
Q 1259 2794 1537 2939 
Q 1816 3084 2150 3084 
Q 2853 3084 3261 2657 
Q 3669 2231 3669 1497 
Q 3669 778 3244 343 
Q 2819 -91 2113 -91 
Q 1303 -91 875 529 
Q 447 1150 447 2328 
Q 447 3434 972 4092 
Q 1497 4750 2381 4750 
Q 2619 4750 2861 4703 
Q 3103 4656 3366 4563 
z
" transform="scale(0.015625)"/>
       </defs>
       <use xlink:href="#DejaVuSans-36"/>
       <use xlink:href="#DejaVuSans-30" transform="translate(63.623047 0)"/>
       <use xlink:href="#DejaVuSans-30" transform="translate(127.246094 0)"/>
      </g>
     </g>
    </g>
    <g id="xtick_5">
     <g id="line2d_9">
      <path d="M 409.960369 301.037813 
L 409.960369 23.837813 
" clip-path="url(#p2c76818435)" style="fill: none; stroke: #b0b0b0; stroke-opacity: 0.3; stroke-width: 0.8; stroke-linecap: square"/>
     </g>
     <g id="line2d_10">
      <g>
       <use xlink:href="#maf443b9bd7" x="409.960369" y="301.037813" style="stroke: #000000; stroke-width: 0.8"/>
      </g>
     </g>
     <g id="text_5">
      <!-- 800 -->
      <g transform="translate(400.416619 315.63625) scale(0.1 -0.1)">
       <defs>
        <path id="DejaVuSans-38" d="M 2034 2216 
Q 1584 2216 1326 1975 
Q 1069 1734 1069 1313 
Q 1069 891 1326 650 
Q 1584 409 2034 409 
Q 2484 409 2743 651 
Q 3003 894 3003 1313 
Q 3003 1734 2745 1975 
Q 2488 2216 2034 2216 
z
M 1403 2484 
Q 997 2584 770 2862 
Q 544 3141 544 3541 
Q 544 4100 942 4425 
Q 1341 4750 2034 4750 
Q 2731 4750 3128 4425 
Q 3525 4100 3525 3541 
Q 3525 3141 3298 2862 
Q 3072 2584 2669 2484 
Q 3125 2378 3379 2068 
Q 3634 1759 3634 1313 
Q 3634 634 3220 271 
Q 2806 -91 2034 -91 
Q 1263 -91 848 271 
Q 434 634 434 1313 
Q 434 1759 690 2068 
Q 947 2378 1403 2484 
z
M 1172 3481 
Q 1172 3119 1398 2916 
Q 1625 2713 2034 2713 
Q 2441 2713 2670 2916 
Q 2900 3119 2900 3481 
Q 2900 3844 2670 4047 
Q 2441 4250 2034 4250 
Q 1625 4250 1398 4047 
Q 1172 3844 1172 3481 
z
" transform="scale(0.015625)"/>
       </defs>
       <use xlink:href="#DejaVuSans-38"/>
       <use xlink:href="#DejaVuSans-30" transform="translate(63.623047 0)"/>
       <use xlink:href="#DejaVuSans-30" transform="translate(127.246094 0)"/>
      </g>
     </g>
    </g>
   </g>
   <g id="matplotlib.axis_2">
    <g id="ytick_1">
     <g id="line2d_11">
      <path d="M 28.942188 283.213656 
L 475.342187 283.213656 
" clip-path="url(#p2c76818435)" style="fill: none; stroke: #b0b0b0; stroke-opacity: 0.3; stroke-width: 0.8; stroke-linecap: square"/>
     </g>
     <g id="line2d_12">
      <defs>
       <path id="m734a28381d" d="M 0 0 
L -3.5 0 
" style="stroke: #000000; stroke-width: 0.8"/>
      </defs>
      <g>
       <use xlink:href="#m734a28381d" x="28.942188" y="283.213656" style="stroke: #000000; stroke-width: 0.8"/>
      </g>
     </g>
     <g id="text_6">
      <!-- −6 -->
      <g transform="translate(7.2 287.012875) scale(0.1 -0.1)">
       <defs>
        <path id="DejaVuSans-2212" d="M 678 2272 
L 4684 2272 
L 4684 1741 
L 678 1741 
L 678 2272 
z
" transform="scale(0.015625)"/>
       </defs>
       <use xlink:href="#DejaVuSans-2212"/>
       <use xlink:href="#DejaVuSans-36" transform="translate(83.789062 0)"/>
      </g>
     </g>
    </g>
    <g id="ytick_2">
     <g id="line2d_13">
      <path d="M 28.942188 247.959964 
L 475.342187 247.959964 
" clip-path="url(#p2c76818435)" style="fill: none; stroke: #b0b0b0; stroke-opacity: 0.3; stroke-width: 0.8; stroke-linecap: square"/>
     </g>
     <g id="line2d_14">
      <g>
       <use xlink:href="#m734a28381d" x="28.942188" y="247.959964" style="stroke: #000000; stroke-width: 0.8"/>
      </g>
     </g>
     <g id="text_7">
      <!-- −5 -->
      <g transform="translate(7.2 251.759183) scale(0.1 -0.1)">
       <defs>
        <path id="DejaVuSans-35" d="M 691 4666 
L 3169 4666 
L 3169 4134 
L 1269 4134 
L 1269 2991 
Q 1406 3038 1543 3061 
Q 1681 3084 1819 3084 
Q 2600 3084 3056 2656 
Q 3513 2228 3513 1497 
Q 3513 744 3044 326 
Q 2575 -91 1722 -91 
Q 1428 -91 1123 -41 
Q 819 9 494 109 
L 494 744 
Q 775 591 1075 516 
Q 1375 441 1709 441 
Q 2250 441 2565 725 
Q 2881 1009 2881 1497 
Q 2881 1984 2565 2268 
Q 2250 2553 1709 2553 
Q 1456 2553 1204 2497 
Q 953 2441 691 2322 
L 691 4666 
z
" transform="scale(0.015625)"/>
       </defs>
       <use xlink:href="#DejaVuSans-2212"/>
       <use xlink:href="#DejaVuSans-35" transform="translate(83.789062 0)"/>
      </g>
     </g>
    </g>
    <g id="ytick_3">
     <g id="line2d_15">
      <path d="M 28.942188 212.706272 
L 475.342187 212.706272 
" clip-path="url(#p2c76818435)" style="fill: none; stroke: #b0b0b0; stroke-opacity: 0.3; stroke-width: 0.8; stroke-linecap: square"/>
     </g>
     <g id="line2d_16">
      <g>
       <use xlink:href="#m734a28381d" x="28.942188" y="212.706272" style="stroke: #000000; stroke-width: 0.8"/>
      </g>
     </g>
     <g id="text_8">
      <!-- −4 -->
      <g transform="translate(7.2 216.505491) scale(0.1 -0.1)">
       <use xlink:href="#DejaVuSans-2212"/>
       <use xlink:href="#DejaVuSans-34" transform="translate(83.789062 0)"/>
      </g>
     </g>
    </g>
    <g id="ytick_4">
     <g id="line2d_17">
      <path d="M 28.942188 177.45258 
L 475.342187 177.45258 
" clip-path="url(#p2c76818435)" style="fill: none; stroke: #b0b0b0; stroke-opacity: 0.3; stroke-width: 0.8; stroke-linecap: square"/>
     </g>
     <g id="line2d_18">
      <g>
       <use xlink:href="#m734a28381d" x="28.942188" y="177.45258" style="stroke: #000000; stroke-width: 0.8"/>
      </g>
     </g>
     <g id="text_9">
      <!-- −3 -->
      <g transform="translate(7.2 181.251799) scale(0.1 -0.1)">
       <defs>
        <path id="DejaVuSans-33" d="M 2597 2516 
Q 3050 2419 3304 2112 
Q 3559 1806 3559 1356 
Q 3559 666 3084 287 
Q 2609 -91 1734 -91 
Q 1441 -91 1130 -33 
Q 819 25 488 141 
L 488 750 
Q 750 597 1062 519 
Q 1375 441 1716 441 
Q 2309 441 2620 675 
Q 2931 909 2931 1356 
Q 2931 1769 2642 2001 
Q 2353 2234 1838 2234 
L 1294 2234 
L 1294 2753 
L 1863 2753 
Q 2328 2753 2575 2939 
Q 2822 3125 2822 3475 
Q 2822 3834 2567 4026 
Q 2313 4219 1838 4219 
Q 1578 4219 1281 4162 
Q 984 4106 628 3988 
L 628 4550 
Q 988 4650 1302 4700 
Q 1616 4750 1894 4750 
Q 2613 4750 3031 4423 
Q 3450 4097 3450 3541 
Q 3450 3153 3228 2886 
Q 3006 2619 2597 2516 
z
" transform="scale(0.015625)"/>
       </defs>
       <use xlink:href="#DejaVuSans-2212"/>
       <use xlink:href="#DejaVuSans-33" transform="translate(83.789062 0)"/>
      </g>
     </g>
    </g>
    <g id="ytick_5">
     <g id="line2d_19">
      <path d="M 28.942188 142.198888 
L 475.342187 142.198888 
" clip-path="url(#p2c76818435)" style="fill: none; stroke: #b0b0b0; stroke-opacity: 0.3; stroke-width: 0.8; stroke-linecap: square"/>
     </g>
     <g id="line2d_20">
      <g>
       <use xlink:href="#m734a28381d" x="28.942188" y="142.198888" style="stroke: #000000; stroke-width: 0.8"/>
      </g>
     </g>
     <g id="text_10">
      <!-- −2 -->
      <g transform="translate(7.2 145.998107) scale(0.1 -0.1)">
       <use xlink:href="#DejaVuSans-2212"/>
       <use xlink:href="#DejaVuSans-32" transform="translate(83.789062 0)"/>
      </g>
     </g>
    </g>
    <g id="ytick_6">
     <g id="line2d_21">
      <path d="M 28.942188 106.945196 
L 475.342187 106.945196 
" clip-path="url(#p2c76818435)" style="fill: none; stroke: #b0b0b0; stroke-opacity: 0.3; stroke-width: 0.8; stroke-linecap: square"/>
     </g>
     <g id="line2d_22">
      <g>
       <use xlink:href="#m734a28381d" x="28.942188" y="106.945196" style="stroke: #000000; stroke-width: 0.8"/>
      </g>
     </g>
     <g id="text_11">
      <!-- −1 -->
      <g transform="translate(7.2 110.744415) scale(0.1 -0.1)">
       <defs>
        <path id="DejaVuSans-31" d="M 794 531 
L 1825 531 
L 1825 4091 
L 703 3866 
L 703 4441 
L 1819 4666 
L 2450 4666 
L 2450 531 
L 3481 531 
L 3481 0 
L 794 0 
L 794 531 
z
" transform="scale(0.015625)"/>
       </defs>
       <use xlink:href="#DejaVuSans-2212"/>
       <use xlink:href="#DejaVuSans-31" transform="translate(83.789062 0)"/>
      </g>
     </g>
    </g>
    <g id="ytick_7">
     <g id="line2d_23">
      <path d="M 28.942188 71.691504 
L 475.342187 71.691504 
" clip-path="url(#p2c76818435)" style="fill: none; stroke: #b0b0b0; stroke-opacity: 0.3; stroke-width: 0.8; stroke-linecap: square"/>
     </g>
     <g id="line2d_24">
      <g>
       <use xlink:href="#m734a28381d" x="28.942188" y="71.691504" style="stroke: #000000; stroke-width: 0.8"/>
      </g>
     </g>
     <g id="text_12">
      <!-- 0 -->
      <g transform="translate(15.579688 75.490723) scale(0.1 -0.1)">
       <use xlink:href="#DejaVuSans-30"/>
      </g>
     </g>
    </g>
    <g id="ytick_8">
     <g id="line2d_25">
      <path d="M 28.942188 36.437813 
L 475.342187 36.437813 
" clip-path="url(#p2c76818435)" style="fill: none; stroke: #b0b0b0; stroke-opacity: 0.3; stroke-width: 0.8; stroke-linecap: square"/>
     </g>
     <g id="line2d_26">
      <g>
       <use xlink:href="#m734a28381d" x="28.942188" y="36.437813" style="stroke: #000000; stroke-width: 0.8"/>
      </g>
     </g>
     <g id="text_13">
      <!-- 1 -->
      <g transform="translate(15.579688 40.237031) scale(0.1 -0.1)">
       <use xlink:href="#DejaVuSans-31"/>
      </g>
     </g>
    </g>
   </g>
   <g id="line2d_27">
    <path d="M 49.233097 270.592834 
L 49.684006 38.157155 
L 50.134915 37.308229 
L 50.585824 172.666892 
L 51.036733 257.141833 
L 51.487642 252.346845 
L 51.938551 257.753547 
L 52.38946 175.178717 
L 52.840369 36.437813 
L 53.291278 37.308229 
L 53.742188 172.290118 
L 54.193097 271.19435 
L 54.644006 288.237307 
L 55.094915 36.875741 
L 55.545824 172.290118 
L 55.996733 270.191824 
L 56.447642 173.665746 
L 56.898551 37.308229 
L 57.34946 252.197597 
L 57.800369 172.290118 
L 58.251278 172.290118 
L 58.702188 259.781912 
L 59.153097 36.437813 
L 59.604006 281.57905 
L 60.054915 288.237307 
L 60.505824 36.437813 
L 60.956733 271.19435 
L 61.407642 257.559985 
L 61.858551 259.765544 
L 62.30946 259.164028 
L 62.760369 172.290118 
L 63.211278 36.437813 
L 63.662188 282.623157 
L 64.113097 172.5413 
L 64.564006 172.290118 
L 65.014915 36.875741 
L 65.465824 172.290118 
L 65.916733 267.763342 
L 66.367642 167.963357 
L 66.818551 38.157155 
L 67.26946 172.290118 
L 67.720369 269.704882 
L 68.171278 172.918074 
L 68.622187 165.697677 
L 69.073097 242.079208 
L 69.524006 173.54603 
L 69.974915 288.016342 
L 70.425824 36.437813 
L 70.876733 257.559985 
L 71.327642 168.718478 
L 71.778551 288.016342 
L 72.22946 36.875741 
L 72.680369 172.290118 
L 73.131278 172.415709 
L 73.582188 36.875741 
L 74.033097 287.556282 
L 74.484006 173.671622 
L 74.934915 172.290118 
L 75.385824 254.494112 
L 75.836733 173.043665 
L 76.287642 166.998392 
L 76.738551 36.437813 
L 77.18946 246.526734 
L 77.640369 175.178717 
L 78.091278 288.437813 
L 78.542187 269.790813 
L 78.993097 172.290118 
L 79.444006 172.290118 
L 79.894915 36.875741 
L 80.345824 288.016342 
L 80.796733 258.781416 
L 81.247642 36.437813 
L 81.698551 270.592834 
L 82.14946 287.556282 
L 82.600369 282.384005 
L 83.051278 282.786448 
L 83.502187 173.294848 
L 83.953097 172.290118 
L 84.404006 175.178717 
L 84.854915 282.384005 
L 85.305824 172.415709 
L 85.756733 287.593698 
L 86.207642 36.437813 
L 86.658551 172.290118 
L 87.10946 270.000866 
L 88.011278 37.308229 
L 88.462187 175.053126 
L 88.913097 241.31905 
L 89.364006 287.795377 
L 89.814915 236.10591 
L 90.265824 258.562512 
L 90.716733 270.317415 
L 91.167642 36.875741 
L 91.618551 38.573726 
L 92.06946 36.437813 
L 92.520369 36.437813 
L 92.971278 269.408898 
L 93.422188 172.666892 
L 93.873097 172.290118 
L 94.324006 281.981539 
L 94.774915 171.899453 
L 95.225824 288.036802 
L 95.676733 238.912985 
L 96.127642 240.316523 
L 96.578551 36.437813 
L 97.480369 287.150595 
L 97.931278 270.993845 
L 98.382187 36.875741 
L 98.833097 36.437813 
L 99.284006 246.388305 
L 99.734915 254.034809 
L 100.185824 38.157155 
L 100.636733 154.951911 
L 101.087642 40.58023 
L 101.538551 233.225924 
L 101.98946 288.016342 
L 102.440369 266.342384 
L 102.891278 173.476289 
L 103.342187 36.875741 
L 104.244006 288.237307 
L 105.145824 36.437813 
L 105.596733 37.735345 
L 106.047642 37.735345 
L 106.498551 154.744796 
L 106.94946 36.437813 
L 107.400369 36.437813 
L 107.851278 36.875741 
L 108.753097 36.875741 
L 109.204006 266.663061 
L 109.654915 256.531587 
L 110.105824 36.875741 
L 110.556733 280.528885 
L 111.007642 36.875741 
L 111.458551 288.016342 
L 111.90946 37.308229 
L 112.360369 269.024856 
L 112.811278 37.308229 
L 113.713097 288.237307 
L 114.164006 270.79334 
L 114.614915 37.308229 
L 115.065824 281.094881 
L 115.516733 38.573726 
L 115.967642 37.308229 
L 116.418551 257.345158 
L 116.86946 172.415709 
L 117.320369 36.875741 
L 117.771278 37.735345 
L 118.222187 41.725299 
L 118.673097 171.899453 
L 119.124006 37.308229 
L 119.574915 263.575146 
L 120.025824 36.875741 
L 120.476733 175.178717 
L 120.927642 36.875741 
L 121.378551 36.875741 
L 121.82946 247.506073 
L 122.280369 231.694792 
L 122.731278 267.156243 
L 123.182187 36.875741 
L 123.633097 268.387275 
L 124.084006 36.875741 
L 124.534915 251.32475 
L 124.985824 242.877658 
L 125.436733 281.336966 
L 125.887642 37.308229 
L 126.338551 172.290118 
L 126.78946 254.494112 
L 127.240369 255.153921 
L 127.691278 36.437813 
L 128.142188 254.953415 
L 128.593097 37.308229 
L 129.044006 240.918039 
L 129.494915 257.349064 
L 129.945824 36.875741 
L 130.396733 36.875741 
L 130.847642 209.524626 
L 131.298551 287.776665 
L 131.74946 148.950705 
L 132.200369 258.158029 
L 132.651278 287.23478 
L 133.102187 36.437813 
L 133.553097 36.875741 
L 134.004006 253.607165 
L 134.454915 232.296308 
L 134.905824 172.415709 
L 135.356733 36.875741 
L 135.807642 172.290118 
L 136.258551 165.37256 
L 136.70946 36.437813 
L 137.160369 37.308229 
L 137.611278 287.556282 
L 138.062187 269.819752 
L 138.513097 232.697319 
L 138.964006 37.308229 
L 139.414915 36.437813 
L 139.865824 262.876753 
L 140.316733 172.290118 
L 140.767642 36.437813 
L 141.218551 36.875741 
L 141.66946 287.335899 
L 142.120369 241.31905 
L 142.571278 36.875741 
L 143.022188 157.450272 
L 143.473097 174.048396 
L 143.924006 36.875741 
L 144.374915 36.437813 
L 144.825824 38.573726 
L 145.727642 255.153921 
L 146.178551 151.508066 
L 146.62946 173.420439 
L 147.080369 172.290118 
L 147.531278 250.636259 
L 147.982187 268.102347 
L 148.433097 36.875741 
L 148.884006 36.437813 
L 149.334915 270.191824 
L 149.785824 36.437813 
L 150.236733 36.437813 
L 150.687642 282.144854 
L 151.138551 244.727641 
L 151.58946 287.795377 
L 152.040369 287.574412 
L 152.491278 36.437813 
L 152.942187 36.875741 
L 153.393097 36.875741 
L 154.294915 283.376075 
L 154.745824 281.905702 
L 155.196733 141.893356 
L 155.647642 40.58023 
L 156.098551 256.09916 
L 156.54946 281.297613 
L 157.000369 36.875741 
L 157.451278 281.83557 
L 157.902187 36.875741 
L 158.353097 287.776665 
L 158.804006 38.157155 
L 159.254915 166.100891 
L 159.705824 36.437813 
L 160.156733 283.942349 
L 160.607642 175.053126 
L 161.058551 147.642121 
L 161.50946 246.269886 
L 161.960369 36.875741 
L 162.411278 36.437813 
L 162.862188 287.997047 
L 163.313097 270.81263 
L 163.764006 280.439335 
L 164.214915 36.437813 
L 164.665824 36.875741 
L 165.116733 173.54603 
L 165.567642 36.875741 
L 166.018551 237.104701 
L 166.46946 147.642121 
L 166.920369 172.290118 
L 167.371278 268.887624 
L 167.822187 36.437813 
L 168.273097 171.360616 
L 168.724006 162.076829 
L 169.174915 256.514493 
L 169.625824 244.441767 
L 170.076733 36.437813 
L 170.527642 37.308229 
L 170.978551 254.242306 
L 171.42946 278.642843 
L 171.880369 36.437813 
L 172.331278 270.993845 
L 172.782187 37.735345 
L 173.233097 165.697677 
L 173.684006 237.121168 
L 174.134915 170.639804 
L 174.585824 36.437813 
L 175.036733 288.437813 
L 175.487642 36.437813 
L 175.938551 36.437813 
L 176.38946 287.795377 
L 176.840369 209.86835 
L 177.291278 218.461437 
L 177.742188 259.364533 
L 178.193097 270.609727 
L 179.094915 36.437813 
L 179.545824 282.384005 
L 179.996733 36.437813 
L 180.447642 288.036802 
L 180.898551 288.016342 
L 181.34946 36.875741 
L 181.800369 252.960315 
L 182.251278 36.437813 
L 182.702188 249.28056 
L 183.153097 258.18172 
L 183.604006 37.308229 
L 184.054915 256.30553 
L 184.505824 288.237307 
L 184.956733 251.686306 
L 185.407642 280.263766 
L 185.858551 36.437813 
L 186.760369 281.05627 
L 187.211278 287.150595 
L 187.662187 36.437813 
L 188.113097 286.469586 
L 188.564006 287.614154 
L 189.014915 283.59704 
L 189.465824 282.182775 
L 189.916733 38.573726 
L 190.367642 258.031059 
L 190.818551 37.735345 
L 191.26946 246.409399 
L 191.720369 257.644061 
L 192.171278 36.875741 
L 192.622187 250.302655 
L 193.073097 36.875741 
L 193.524006 42.828223 
L 193.974915 269.203394 
L 194.425824 286.707491 
L 194.876733 286.83377 
L 195.327642 205.428588 
L 195.778551 253.538679 
L 196.22946 43.186768 
L 196.680369 282.144854 
L 197.131278 36.437813 
L 197.582188 36.437813 
L 198.484006 284.099605 
L 198.934915 36.875741 
L 199.385824 264.106914 
L 199.836733 287.23478 
L 200.287642 280.126541 
L 200.738551 265.618807 
L 201.18946 36.875741 
L 201.640369 161.744123 
L 202.091278 37.308229 
L 202.542187 36.437813 
L 202.993097 36.875741 
L 203.444006 172.918074 
L 203.894915 36.875741 
L 204.345824 36.875741 
L 204.796733 39.391407 
L 205.247642 266.844256 
L 205.698551 154.744796 
L 206.14946 151.508066 
L 206.600369 161.411416 
L 207.051278 36.437813 
L 207.502187 36.875741 
L 207.953097 286.469586 
L 208.404006 36.875741 
L 208.854915 288.036802 
L 209.305824 265.857088 
L 209.756733 287.190315 
L 210.207642 36.437813 
L 210.658551 36.437813 
L 211.10946 172.415709 
L 211.560369 36.875741 
L 212.011278 36.875741 
L 212.462187 167.963357 
L 212.913097 36.437813 
L 213.364006 37.308229 
L 213.814915 284.105681 
L 214.265824 37.308229 
L 214.716733 251.772641 
L 215.167642 38.985121 
L 215.618551 36.875741 
L 216.06946 36.437813 
L 216.520369 281.223271 
L 217.422188 36.875741 
L 217.873097 253.774081 
L 218.774915 36.437813 
L 219.225824 288.437813 
L 219.676733 36.437813 
L 220.127642 287.795377 
L 220.578551 237.621418 
L 221.02946 36.875741 
L 221.480369 37.735345 
L 221.931278 269.065954 
L 222.382187 270.79334 
L 222.833097 280.263766 
L 223.284006 172.415709 
L 223.734915 279.227839 
L 224.185824 38.985121 
L 224.636733 281.605951 
L 225.087642 263.681924 
L 225.538551 281.631499 
L 225.98946 39.792645 
L 226.440369 171.041323 
L 226.891278 244.366291 
L 227.793097 36.875741 
L 228.244006 36.437813 
L 228.694915 36.875741 
L 229.145824 258.332628 
L 229.596733 163.674052 
L 230.047642 278.770306 
L 230.498551 286.027656 
L 230.94946 278.293441 
L 231.400369 173.476289 
L 231.851278 264.150418 
L 232.753097 36.875741 
L 233.204006 36.875741 
L 233.654915 36.437813 
L 234.105824 287.132482 
L 234.556733 167.963357 
L 235.007642 281.631499 
L 235.458551 36.875741 
L 235.90946 39.391407 
L 236.360369 36.437813 
L 236.811278 36.437813 
L 237.262187 261.013133 
L 237.713097 50.836994 
L 238.164006 280.061598 
L 238.614915 36.437813 
L 239.065824 284.911691 
L 239.516733 271.027585 
L 239.967642 36.875741 
L 240.418551 164.471143 
L 240.86946 36.875741 
L 241.320369 252.197597 
L 241.771278 36.437813 
L 242.222187 249.196949 
L 242.673097 36.437813 
L 243.124006 36.875741 
L 243.574915 263.664773 
L 244.025824 40.966701 
L 244.476733 249.28056 
L 244.927642 279.840633 
L 245.378551 38.985121 
L 245.82946 284.03016 
L 246.280369 36.875741 
L 246.731278 266.528289 
L 247.182187 287.614154 
L 247.633097 276.791967 
L 248.084006 232.997583 
L 248.534915 209.623777 
L 248.985824 268.520945 
L 249.436733 285.300754 
L 249.887642 278.796732 
L 250.338551 237.099735 
L 250.78946 36.437813 
L 251.240369 36.437813 
L 251.691278 36.875741 
L 252.142187 274.800015 
L 252.593097 36.875741 
L 253.044006 269.991318 
L 253.494915 36.875741 
L 254.396733 36.875741 
L 254.847642 36.437813 
L 255.298551 36.437813 
L 255.74946 276.084226 
L 256.200369 36.875741 
L 256.651278 267.319277 
L 257.102187 36.875741 
L 257.553097 40.58023 
L 258.004006 36.875741 
L 258.454915 284.282014 
L 258.905824 36.875741 
L 259.356733 36.875741 
L 259.807642 287.614154 
L 260.258551 36.437813 
L 260.70946 283.818005 
L 261.160369 286.233986 
L 261.611278 36.875741 
L 262.062187 38.157155 
L 262.513097 44.235902 
L 262.964006 40.966701 
L 263.414915 268.90616 
L 263.865824 268.586562 
L 264.767642 36.437813 
L 265.218551 149.816624 
L 265.66946 36.875741 
L 266.120369 146.094421 
L 266.571278 36.437813 
L 267.022187 36.875741 
L 267.924006 275.408351 
L 268.374915 36.875741 
L 268.825824 36.875741 
L 269.276733 281.05627 
L 269.727642 173.294848 
L 270.178551 217.430267 
L 270.62946 37.308229 
L 271.080369 38.157155 
L 271.531278 36.437813 
L 271.982187 37.308229 
L 272.433097 285.572838 
L 272.884006 36.875741 
L 273.334915 253.378467 
L 273.785824 259.765544 
L 274.236733 36.875741 
L 274.687642 261.121342 
L 275.138551 288.016342 
L 275.58946 275.988074 
L 276.040369 284.922831 
L 276.491278 36.875741 
L 276.942187 46.536163 
L 277.393097 288.237307 
L 277.844006 37.735345 
L 278.294915 284.922831 
L 278.745824 286.027656 
L 279.196733 36.875741 
L 279.647642 173.294848 
L 280.098551 36.875741 
L 280.54946 38.985121 
L 281.000369 36.875741 
L 281.451278 249.021222 
L 281.902187 36.875741 
L 282.353097 255.17173 
L 282.804006 36.875741 
L 283.254915 37.735345 
L 283.705824 253.304237 
L 284.156733 267.928977 
L 284.607642 239.201162 
L 285.058551 175.178717 
L 285.50946 255.887378 
L 285.960369 36.875741 
L 286.411278 276.316768 
L 286.862187 36.875741 
L 287.313097 281.25972 
L 287.764006 209.86835 
L 288.214915 36.875741 
L 288.665824 150.105263 
L 289.116733 230.029055 
L 289.567642 277.318899 
L 290.018551 42.465167 
L 290.46946 36.875741 
L 290.920369 275.748687 
L 291.371278 40.58023 
L 291.822187 39.792645 
L 292.273097 36.437813 
L 292.724006 159.284763 
L 293.174915 39.391407 
L 293.625824 36.875741 
L 294.076733 284.03897 
L 294.527642 275.654862 
L 294.978551 49.491993 
L 295.42946 285.821284 
L 295.880369 285.61487 
L 296.331278 285.143796 
L 297.233097 41.348371 
L 297.684006 284.270422 
L 298.134915 278.066972 
L 298.585824 37.308229 
L 299.036733 174.048396 
L 299.487642 268.5177 
L 299.938551 45.574927 
L 300.38946 220.501796 
L 300.840369 282.33053 
L 301.291278 54.829375 
L 301.742188 267.048477 
L 302.644006 228.17981 
L 303.094915 280.724494 
L 303.545824 156.81595 
L 303.996733 280.283771 
L 304.898551 39.391407 
L 305.34946 242.255476 
L 305.800369 277.840126 
L 306.251278 228.630792 
L 306.702187 39.792645 
L 307.153097 252.022218 
L 307.604006 211.974082 
L 308.054915 253.242982 
L 308.505824 39.792645 
L 308.956733 270.498592 
L 309.407642 251.465258 
L 309.858551 255.683828 
L 310.30946 281.172017 
L 310.760369 261.840371 
L 311.211278 277.947778 
L 311.662187 275.65562 
L 312.113097 287.556282 
L 312.564006 39.792645 
L 313.014915 36.437813 
L 313.465824 37.308229 
L 313.916733 232.940865 
L 314.367642 238.548559 
L 314.818551 45.899352 
L 315.26946 286.454369 
L 315.720369 197.188772 
L 316.171278 251.529318 
L 316.622187 280.725594 
L 317.073097 37.735345 
L 317.524006 273.832336 
L 317.974915 262.291114 
L 318.425824 38.573726 
L 318.876733 43.890553 
L 319.327642 36.875741 
L 319.778551 36.875741 
L 320.22946 42.097545 
L 320.680369 36.437813 
L 321.131278 38.573726 
L 321.582187 257.713502 
L 322.033097 36.875741 
L 322.484006 239.956308 
L 322.934915 278.104882 
L 323.385824 36.437813 
L 323.836733 36.437813 
L 324.287642 250.472858 
L 324.738551 280.504038 
L 325.18946 38.985121 
L 325.640369 282.941111 
L 326.091278 38.157155 
L 326.542188 282.131142 
L 326.993097 281.154633 
L 327.444006 267.394296 
L 327.894915 36.875741 
L 328.345824 45.574927 
L 328.796733 38.985121 
L 329.247642 37.308229 
L 329.698551 257.393178 
L 330.14946 37.308229 
L 330.600369 208.002174 
L 331.051278 39.792645 
L 331.502187 46.219748 
L 331.953097 222.041192 
L 332.404006 36.875741 
L 332.854915 50.040101 
L 333.305824 245.498863 
L 333.756733 39.792645 
L 334.207642 288.21743 
L 334.658551 260.086353 
L 335.10946 241.759184 
L 335.560369 37.308229 
L 336.011278 278.953179 
L 336.462187 266.012869 
L 336.913097 56.047773 
L 337.364006 36.875741 
L 337.814915 38.157155 
L 338.265824 38.157155 
L 338.716733 256.089612 
L 339.167642 38.573726 
L 339.618551 264.471178 
L 340.06946 36.437813 
L 340.520369 238.116522 
L 340.971278 265.897211 
L 341.422188 36.437813 
L 341.873097 37.735345 
L 342.324006 283.384215 
L 342.774915 284.922831 
L 343.225824 287.392011 
L 343.676733 36.437813 
L 344.127642 265.863713 
L 344.578551 255.731133 
L 345.02946 142.922323 
L 345.480369 167.449345 
L 345.931278 37.308229 
L 346.382187 37.308229 
L 346.833097 245.550122 
L 347.284006 237.070546 
L 347.734915 278.514843 
L 348.185824 230.380117 
L 348.636733 245.300514 
L 349.087642 279.575475 
L 349.538551 38.985121 
L 349.98946 39.391407 
L 350.440369 245.571037 
L 350.891278 46.848648 
L 351.342187 238.602525 
L 351.793097 274.994473 
L 352.244006 257.349064 
L 352.694915 244.870269 
L 353.145824 38.157155 
L 353.596733 272.332623 
L 354.047642 269.691545 
L 354.498551 43.890553 
L 354.94946 264.081184 
L 355.400369 38.573726 
L 355.851278 36.875741 
L 356.302188 37.308229 
L 356.753097 268.563544 
L 357.204006 253.566312 
L 357.654915 174.048396 
L 358.105824 282.707864 
L 358.556733 37.735345 
L 359.007642 36.875741 
L 359.90946 266.297472 
L 360.360369 204.430081 
L 360.811278 255.709071 
L 361.262187 237.696606 
L 361.713097 235.866345 
L 362.164006 43.186768 
L 362.614915 45.246421 
L 363.065824 287.132482 
L 363.516733 257.920895 
L 363.967642 37.735345 
L 364.418551 36.437813 
L 365.320369 281.608354 
L 365.771278 37.735345 
L 366.222187 52.100505 
L 366.673097 39.792645 
L 367.124006 253.177511 
L 367.574915 280.200902 
L 368.025824 37.308229 
L 368.476733 280.063273 
L 368.927642 274.09554 
L 369.378551 287.115517 
L 369.82946 268.748185 
L 370.280369 36.437813 
L 370.731278 161.561979 
L 371.182187 37.308229 
L 371.633097 273.590251 
L 372.084006 40.188899 
L 372.534915 279.247172 
L 372.985824 65.0882 
L 373.436733 36.437813 
L 374.338551 51.85408 
L 374.78946 274.731156 
L 375.240369 37.308229 
L 375.691278 282.719559 
L 376.142187 55.651751 
L 376.593097 46.536163 
L 377.044006 232.296308 
L 377.494915 36.437813 
L 377.945824 282.021641 
L 378.396733 173.476289 
L 378.847642 253.636978 
L 379.298551 48.93001 
L 379.74946 36.875741 
L 380.200369 279.316383 
L 380.651278 46.848648 
L 381.102187 268.350448 
L 381.553097 37.308229 
L 382.004006 287.132482 
L 382.454915 53.287463 
L 382.905824 237.4999 
L 383.356733 40.966701 
L 383.807642 36.437813 
L 384.258551 36.437813 
L 384.70946 61.591153 
L 385.160369 40.188899 
L 385.611278 60.388481 
L 386.062187 43.54086 
L 386.513097 199.403879 
L 386.964006 40.188899 
L 387.414915 45.574927 
L 387.865824 244.001135 
L 388.316733 60.102343 
L 388.767642 40.966701 
L 389.218551 58.22682 
L 389.66946 40.966701 
L 390.120369 40.58023 
L 390.571278 278.956773 
L 391.022187 46.848648 
L 391.473097 36.437813 
L 391.924006 38.157155 
L 392.374915 250.935124 
L 392.825824 274.77409 
L 393.276733 57.178135 
L 393.727642 57.88596 
L 394.178551 43.54086 
L 394.62946 268.624872 
L 395.080369 36.875741 
L 395.531278 233.623463 
L 395.982187 276.977916 
L 396.433097 283.59704 
L 396.884006 243.470839 
L 397.334915 263.769557 
L 398.236733 278.067135 
L 398.687642 53.055969 
L 399.138551 284.691308 
L 399.58946 36.437813 
L 400.040369 282.810344 
L 400.491278 53.741861 
L 400.942187 287.997047 
L 401.393097 267.382311 
L 401.844006 281.019114 
L 402.294915 45.899352 
L 402.745824 167.168944 
L 403.196733 164.471143 
L 403.647642 38.157155 
L 404.098551 154.052341 
L 404.54946 36.437813 
L 405.000369 43.54086 
L 405.451278 36.437813 
L 405.902187 282.271249 
L 406.353097 277.101277 
L 406.804006 260.758929 
L 407.254915 36.437813 
L 407.705824 36.437813 
L 408.156733 39.391407 
L 408.607642 254.022497 
L 409.058551 278.770306 
L 409.50946 36.437813 
L 409.960369 269.946622 
L 410.411278 36.437813 
L 410.862188 38.985121 
L 411.313097 265.035971 
L 411.764006 276.06834 
L 412.214915 44.913783 
L 412.665824 60.102343 
L 413.116733 36.437813 
L 413.567642 45.899352 
L 414.018551 280.773999 
L 414.46946 42.828223 
L 414.920369 262.305279 
L 415.371278 273.414385 
L 415.822187 248.847703 
L 416.273097 38.573726 
L 416.724006 242.499804 
L 417.174915 244.842216 
L 417.625824 57.178135 
L 418.076733 288.237307 
L 418.527642 38.985121 
L 418.978551 36.437813 
L 419.42946 43.54086 
L 420.331278 278.96136 
L 420.782187 38.573726 
L 421.233097 257.089411 
L 421.684006 38.985121 
L 422.134915 40.188899 
L 422.585824 272.571056 
L 423.036733 274.77409 
L 423.487642 43.890553 
L 423.938551 38.573726 
L 424.38946 274.259218 
L 424.840369 165.697677 
L 425.291278 266.178059 
L 425.742188 276.084226 
L 426.193097 49.76776 
L 426.644006 38.157155 
L 427.094915 53.516082 
L 427.545824 51.351894 
L 427.996733 43.54086 
L 428.447642 274.041527 
L 428.898551 266.211969 
L 429.800369 66.979703 
L 430.251278 36.437813 
L 430.702187 237.625776 
L 431.153097 287.776665 
L 431.604006 221.384264 
L 432.054915 40.58023 
L 432.956733 59.659499 
L 433.407642 282.707864 
L 433.858551 222.457223 
L 434.30946 248.537243 
L 434.760369 164.267699 
L 435.211278 287.115517 
L 435.662187 199.257478 
L 436.113097 265.698866 
L 436.564006 38.573726 
L 437.014915 36.875741 
L 437.465824 55.651751 
L 437.916733 36.437813 
L 438.367642 36.437813 
L 438.818551 36.875741 
L 439.26946 47.157251 
L 439.720369 36.875741 
L 440.171278 270.521518 
L 440.622187 172.918074 
L 441.073097 248.054545 
L 441.524006 273.296247 
L 441.974915 38.157155 
L 442.425824 52.821563 
L 442.876733 224.520246 
L 443.327642 47.763003 
L 443.778551 154.744796 
L 444.22946 45.246421 
L 444.680369 36.875741 
L 445.131278 283.59704 
L 446.033097 36.875741 
L 446.484006 251.727046 
L 446.934915 36.437813 
L 447.385824 253.191832 
L 447.836733 262.31845 
L 448.287642 40.966701 
L 448.738551 256.540098 
L 449.18946 266.780185 
L 449.640369 173.079129 
L 450.091278 160.746003 
L 450.542187 269.951217 
L 450.993097 36.875741 
L 451.444006 249.920669 
L 451.894915 245.941967 
L 452.345824 36.875741 
L 452.796733 37.735345 
L 453.247642 46.848648 
L 453.698551 60.667554 
L 454.14946 51.096053 
L 454.600369 53.055969 
L 455.051278 51.604556 
L 455.051278 51.604556 
" clip-path="url(#p2c76818435)" style="fill: none; stroke: #808080; stroke-opacity: 0.3; stroke-width: 1.5; stroke-linecap: square"/>
   </g>
   <g id="line2d_28">
    <path d="M 49.233097 181.863129 
L 49.684006 181.977016 
L 50.134915 183.314439 
L 50.585824 185.821725 
L 51.036733 186.484186 
L 51.487642 186.315933 
L 51.938551 184.156842 
L 52.38946 183.236284 
L 52.840369 184.356002 
L 53.291278 186.701563 
L 53.742188 186.697238 
L 54.193097 185.338715 
L 55.094915 184.748629 
L 55.545824 184.761444 
L 55.996733 184.588061 
L 56.447642 182.291946 
L 56.898551 182.887547 
L 57.34946 185.394628 
L 57.800369 185.536076 
L 58.251278 185.547938 
L 58.702188 184.193794 
L 59.153097 183.252952 
L 59.604006 185.770947 
L 60.054915 184.678058 
L 60.505824 182.160063 
L 60.956733 182.173038 
L 61.407642 179.838448 
L 61.858551 178.810296 
L 62.760369 174.349756 
L 63.211278 172.995613 
L 63.662188 172.999992 
L 64.113097 170.542518 
L 65.014915 172.32615 
L 65.465824 172.32615 
L 65.916733 173.408538 
L 66.367642 171.099662 
L 66.818551 172.300192 
L 67.26946 172.291702 
L 67.720369 173.25905 
L 68.171278 170.935083 
L 68.622187 170.928804 
L 69.073097 172.1542 
L 69.524006 172.441341 
L 69.974915 171.078963 
L 70.876733 171.031108 
L 71.327642 168.82859 
L 71.778551 169.714857 
L 72.22946 168.558851 
L 72.680369 168.558851 
L 73.582188 165.906399 
L 74.033097 167.256636 
L 74.484006 164.754155 
L 74.934915 165.653191 
L 75.385824 164.299047 
L 75.836733 163.505893 
L 76.738551 160.842987 
L 77.18946 162.95367 
L 77.640369 162.80535 
L 78.091278 163.725126 
L 78.542187 161.209505 
L 78.993097 161.19547 
L 79.444006 159.841326 
L 79.894915 160.631672 
L 80.345824 162.691691 
L 80.796733 162.624898 
L 81.247642 160.410166 
L 81.698551 161.768689 
L 82.14946 161.607702 
L 82.600369 161.283678 
L 83.051278 158.824216 
L 83.502187 158.545886 
L 83.953097 157.186019 
L 84.854915 158.694002 
L 85.305824 156.23892 
L 85.756733 154.88352 
L 86.207642 154.102829 
L 86.658551 156.616218 
L 87.560369 156.264395 
L 88.011278 157.473927 
L 88.462187 157.465223 
L 88.913097 156.083449 
L 89.364006 156.20633 
L 90.265824 155.014438 
L 90.716733 152.79757 
L 91.167642 151.817297 
L 91.618551 153.102265 
L 92.520369 153.08961 
L 92.971278 155.600795 
L 93.422188 155.604904 
L 93.873097 156.205208 
L 94.324006 154.855389 
L 94.774915 152.399952 
L 95.225824 153.309725 
L 95.676733 152.152258 
L 96.578551 148.093098 
L 97.02946 150.602079 
L 97.480369 151.358293 
L 97.931278 148.855544 
L 98.382187 147.720109 
L 98.833097 149.091835 
L 99.284006 149.096214 
L 100.185824 144.842099 
L 101.538551 148.086906 
L 101.98946 147.488851 
L 102.440369 146.331589 
L 102.891278 146.174528 
L 103.342187 147.120788 
L 103.793097 147.120788 
L 104.244006 145.82819 
L 104.694915 145.647735 
L 105.145824 144.289212 
L 105.596733 144.289212 
L 106.498551 148.80323 
L 106.94946 150.133736 
L 107.400369 152.645102 
L 108.753097 152.645102 
L 109.204006 153.828039 
L 110.105824 154.24891 
L 110.556733 155.299086 
L 111.007642 152.8996 
L 111.458551 155.091834 
L 112.360369 155.020322 
L 112.811278 155.148429 
L 113.262187 155.144104 
L 113.713097 156.298969 
L 114.164006 153.798168 
L 114.614915 152.751243 
L 115.516733 152.771014 
L 116.418551 155.239147 
L 116.86946 155.128394 
L 117.320369 153.772994 
L 117.771278 153.768615 
L 118.673097 158.562105 
L 119.124006 159.647504 
L 119.574915 159.6388 
L 120.025824 157.371806 
L 120.476733 158.738509 
L 120.927642 157.355479 
L 121.378551 159.357769 
L 121.82946 160.465433 
L 122.280369 159.713273 
L 122.731278 160.085201 
L 123.182187 157.778017 
L 123.633097 159.122866 
L 124.084006 158.059761 
L 124.534915 160.256149 
L 124.985824 160.187319 
L 125.887642 155.682633 
L 126.338551 157.851974 
L 126.78946 158.915501 
L 127.240369 156.734938 
L 127.691278 156.893338 
L 128.142188 156.906313 
L 128.593097 156.013755 
L 129.044006 158.011885 
L 129.494915 157.309102 
L 129.945824 155.09999 
L 130.396733 157.615611 
L 130.847642 157.611231 
L 131.298551 155.880363 
L 131.74946 155.88055 
L 132.200369 156.489727 
L 133.102187 155.814058 
L 133.553097 158.155778 
L 134.004006 159.295054 
L 134.454915 157.123361 
L 134.905824 157.624238 
L 135.356733 156.264459 
L 135.807642 158.776069 
L 136.258551 159.933331 
L 136.70946 158.648363 
L 137.160369 160.813588 
L 137.611278 160.804884 
L 138.062187 160.422127 
L 138.513097 160.305747 
L 138.964006 158.351856 
L 139.865824 163.059824 
L 140.316733 162.947919 
L 140.767642 164.027656 
L 141.218551 164.027656 
L 141.66946 165.393661 
L 142.120369 165.330865 
L 142.571278 165.78918 
L 143.022188 165.784801 
L 143.924006 168.210652 
L 144.825824 173.135314 
L 145.276733 173.135314 
L 145.727642 174.200544 
L 146.178551 172.026359 
L 147.080369 173.817608 
L 147.531278 172.463464 
L 147.982187 172.460128 
L 148.433097 170.147862 
L 148.884006 170.207387 
L 149.334915 172.535043 
L 149.785824 172.7002 
L 150.236733 175.204159 
L 150.687642 176.894067 
L 151.138551 176.608005 
L 151.58946 174.592596 
L 152.040369 174.536091 
L 152.491278 172.024725 
L 152.942187 172.024725 
L 153.393097 173.403987 
L 153.844006 175.876226 
L 154.294915 174.693289 
L 154.745824 174.500597 
L 155.196733 174.553888 
L 155.647642 175.93622 
L 156.098551 178.186606 
L 156.54946 175.994371 
L 157.000369 174.798836 
L 157.451278 174.803161 
L 157.902187 172.349184 
L 158.353097 172.349184 
L 158.804006 171.200598 
L 159.254915 171.187784 
L 159.705824 169.895532 
L 160.156733 169.925068 
L 161.058551 169.551004 
L 161.50946 169.589663 
L 161.960369 168.741079 
L 163.313097 168.725804 
L 163.764006 166.386435 
L 164.214915 166.46241 
L 165.116733 171.259748 
L 165.567642 169.888666 
L 166.018551 169.884287 
L 166.46946 169.237397 
L 167.822187 165.766347 
L 168.273097 165.766347 
L 168.724006 164.425823 
L 169.174915 165.646111 
L 169.625824 163.454049 
L 170.527642 163.552831 
L 170.978551 163.548506 
L 171.42946 161.370461 
L 171.880369 161.396265 
L 172.331278 162.754788 
L 172.782187 160.413607 
L 173.233097 162.573994 
L 173.684006 162.406525 
L 174.134915 160.399691 
L 174.585824 161.577671 
L 175.487642 161.571247 
L 175.938551 163.583083 
L 176.38946 163.587462 
L 176.840369 161.086862 
L 177.742188 162.202157 
L 178.193097 162.411149 
L 178.644006 161.429209 
L 179.094915 162.713454 
L 179.996733 162.731146 
L 180.447642 165.003587 
L 180.898551 164.939534 
L 181.34946 162.457297 
L 181.800369 163.798953 
L 182.251278 163.713013 
L 182.702188 164.787163 
L 183.604006 160.445676 
L 184.505824 160.461622 
L 184.956733 159.21599 
L 185.407642 159.48683 
L 185.858551 159.544469 
L 186.30946 161.963025 
L 186.760369 161.963025 
L 187.211278 161.793966 
L 187.662187 160.469908 
L 188.113097 160.474288 
L 189.014915 155.466586 
L 189.465824 155.50194 
L 189.916733 154.359746 
L 190.367642 156.790324 
L 190.818551 154.578771 
L 191.26946 154.595331 
L 192.171278 150.283553 
L 192.622187 152.524927 
L 193.073097 150.53027 
L 193.524006 152.962129 
L 193.974915 152.898225 
L 194.425824 153.055308 
L 194.876733 152.898509 
L 195.327642 150.398928 
L 195.778551 149.989354 
L 196.22946 147.822724 
L 196.680369 149.912833 
L 197.131278 147.455762 
L 197.582188 149.583354 
L 198.033097 149.583354 
L 198.484006 148.204092 
L 198.934915 147.999743 
L 199.385824 148.040653 
L 200.287642 147.818448 
L 200.738551 145.407034 
L 201.18946 145.591147 
L 201.640369 145.591147 
L 202.091278 146.638989 
L 202.993097 151.54559 
L 203.444006 153.506808 
L 203.894915 153.873865 
L 205.247642 161.068621 
L 205.698551 160.771175 
L 207.051278 157.192046 
L 207.502187 159.575668 
L 207.953097 159.575668 
L 208.404006 159.410886 
L 208.854915 159.410886 
L 210.207642 152.101936 
L 210.658551 152.101936 
L 211.10946 154.498401 
L 211.560369 153.143001 
L 212.011278 155.447436 
L 212.462187 155.447436 
L 212.913097 154.173605 
L 213.364006 154.177984 
L 213.814915 156.647722 
L 214.265824 154.175423 
L 214.716733 154.171098 
L 215.167642 154.529513 
L 215.618551 154.50404 
L 216.520369 159.471424 
L 216.971278 157.027949 
L 217.422188 155.686619 
L 217.873097 155.760221 
L 218.324006 153.632147 
L 218.774915 154.831702 
L 219.225824 157.153189 
L 219.676733 155.823912 
L 220.127642 155.823912 
L 220.578551 154.444125 
L 221.02946 152.436668 
L 221.480369 153.528855 
L 221.931278 153.515879 
L 222.382187 151.193977 
L 222.833097 149.975551 
L 223.284006 149.926997 
L 223.734915 148.571597 
L 224.185824 146.148076 
L 224.636733 148.568787 
L 225.087642 147.485676 
L 225.538551 147.02316 
L 225.98946 144.579927 
L 226.440369 144.563572 
L 226.891278 143.217537 
L 227.342187 141.146956 
L 227.793097 142.564156 
L 228.244006 142.564156 
L 229.145824 146.962461 
L 229.596733 144.747892 
L 230.047642 145.722365 
L 230.498551 145.814825 
L 230.94946 145.714429 
L 231.400369 145.780723 
L 231.851278 144.414718 
L 232.302188 142.238575 
L 232.753097 143.5735 
L 233.204006 143.582096 
L 234.105824 148.558466 
L 234.556733 146.055898 
L 235.007642 146.109213 
L 235.458551 143.661656 
L 236.360369 143.657593 
L 236.811278 145.783427 
L 237.713097 145.729392 
L 238.164006 145.58978 
L 238.614915 143.166517 
L 239.065824 145.335181 
L 239.516733 145.165354 
L 239.967642 144.84709 
L 240.418551 146.23012 
L 240.86946 147.144282 
L 241.320369 147.144282 
L 241.771278 147.385474 
L 242.222187 147.389853 
L 242.673097 147.710481 
L 243.124006 149.444786 
L 243.574915 149.444786 
L 244.025824 148.309191 
L 244.476733 150.199815 
L 244.927642 150.480198 
L 245.378551 148.106443 
L 246.731278 148.03958 
L 247.633097 143.26046 
L 248.084006 142.085388 
L 248.985824 138.421846 
L 249.436733 138.577026 
L 249.887642 138.480567 
L 250.338551 136.18752 
L 250.78946 136.674735 
L 251.691278 141.653565 
L 252.142187 142.836398 
L 252.593097 140.501882 
L 253.044006 142.975829 
L 253.945824 143.06091 
L 254.396733 144.432637 
L 254.847642 146.749056 
L 255.298551 146.840427 
L 255.74946 148.681067 
L 256.200369 148.74353 
L 256.651278 148.923067 
L 257.102187 148.920359 
L 258.454915 155.354565 
L 258.905824 154.079905 
L 259.356733 156.513985 
L 259.807642 157.578343 
L 260.258551 155.096116 
L 260.70946 157.154292 
L 261.160369 157.094514 
L 261.611278 156.518482 
L 262.062187 156.547651 
L 263.414915 162.486446 
L 263.865824 160.195311 
L 264.316733 160.214431 
L 264.767642 161.173983 
L 265.218551 163.366443 
L 265.66946 164.679997 
L 266.120369 166.929643 
L 266.571278 168.248177 
L 267.473097 173.14716 
L 267.924006 172.05558 
L 268.374915 169.665874 
L 268.825824 169.670199 
L 269.276733 171.63085 
L 269.727642 171.205773 
L 270.178551 169.931818 
L 270.62946 170.622059 
L 271.080369 172.220865 
L 271.982187 176.797464 
L 272.433097 176.801735 
L 272.884006 176.68433 
L 273.334915 178.938484 
L 274.236733 174.631687 
L 274.687642 174.631687 
L 276.040369 167.53454 
L 276.491278 165.071049 
L 276.942187 167.279427 
L 277.393097 167.182823 
L 277.844006 166.700013 
L 278.294915 169.103708 
L 279.196733 164.122959 
L 279.647642 166.25893 
L 280.098551 167.331022 
L 280.54946 167.352116 
L 281.000369 169.791676 
L 281.451278 169.80449 
L 281.902187 170.135589 
L 282.353097 172.578378 
L 282.804006 172.700604 
L 283.705824 172.779 
L 284.607642 168.329601 
L 285.058551 168.511521 
L 285.50946 167.132816 
L 285.960369 166.653964 
L 286.411278 166.683133 
L 286.862187 164.382163 
L 287.313097 166.233818 
L 287.764006 163.789978 
L 288.214915 162.191695 
L 288.665824 164.277927 
L 289.116733 163.1748 
L 289.567642 163.756684 
L 290.018551 163.584359 
L 290.46946 165.577299 
L 291.371278 165.613669 
L 291.822187 167.867995 
L 292.273097 168.030546 
L 292.724006 168.034926 
L 293.174915 166.82365 
L 293.625824 166.811307 
L 294.076733 169.003446 
L 294.527642 166.548793 
L 295.42946 166.306415 
L 295.880369 165.829367 
L 296.331278 165.632191 
L 296.782187 163.145131 
L 297.233097 161.970894 
L 297.684006 164.391252 
L 299.036733 164.482323 
L 299.487642 165.400476 
L 299.938551 165.27261 
L 300.38946 166.246084 
L 300.840369 165.71556 
L 301.291278 163.265337 
L 302.644006 162.757366 
L 303.094915 163.260717 
L 303.545824 162.757273 
L 303.996733 163.642118 
L 304.447642 163.635035 
L 304.898551 162.591771 
L 305.800369 162.624926 
L 306.251278 160.315012 
L 306.702187 160.414729 
L 307.153097 162.766747 
L 307.604006 162.820016 
L 308.054915 163.148978 
L 308.505824 160.998119 
L 308.956733 163.323519 
L 309.407642 163.315449 
L 309.858551 161.239702 
L 310.30946 161.323675 
L 311.662187 154.241651 
L 312.113097 154.17073 
L 312.564006 153.83083 
L 313.014915 155.173388 
L 313.465824 157.636088 
L 313.916733 157.640359 
L 314.367642 155.679708 
L 314.818551 154.756606 
L 315.26946 156.960587 
L 315.720369 156.140344 
L 316.171278 156.725547 
L 316.622187 156.58722 
L 317.073097 156.138627 
L 317.524006 156.193142 
L 317.974915 153.907282 
L 318.425824 154.155696 
L 318.876733 156.349168 
L 319.778551 156.283236 
L 320.22946 157.571456 
L 320.680369 159.966564 
L 321.131278 159.979539 
L 321.582187 160.114807 
L 322.033097 157.935598 
L 322.484006 160.098616 
L 322.934915 160.501062 
L 323.385824 158.093095 
L 324.287642 162.905927 
L 324.738551 163.272354 
L 325.640369 163.129322 
L 326.091278 161.915531 
L 326.993097 161.821633 
L 327.444006 159.411975 
L 327.894915 159.530504 
L 328.345824 159.812629 
L 328.796733 159.721258 
L 329.698551 159.922635 
L 330.14946 160.096014 
L 330.600369 160.096014 
L 331.051278 160.843188 
L 331.502187 161.001779 
L 332.854915 161.103115 
L 333.305824 163.422931 
L 333.756733 162.702705 
L 334.207642 164.841148 
L 335.10946 160.216168 
L 335.560369 160.59174 
L 336.011278 160.687144 
L 336.462187 160.581117 
L 336.913097 158.29407 
L 337.364006 160.604918 
L 337.814915 160.769035 
L 338.265824 162.762462 
L 338.716733 162.790558 
L 339.167642 160.59404 
L 339.618551 160.572681 
L 340.06946 158.54388 
L 340.520369 158.581391 
L 341.422188 154.580547 
L 341.873097 156.210208 
L 342.324006 156.234743 
L 342.774915 153.856651 
L 343.225824 153.447434 
L 343.676733 151.174537 
L 344.127642 151.219826 
L 345.02946 146.995813 
L 345.480369 145.972392 
L 345.931278 147.087466 
L 346.833097 147.174166 
L 347.284006 145.100236 
L 347.734915 145.238882 
L 348.185824 145.201474 
L 349.087642 141.595309 
L 349.538551 139.234963 
L 349.98946 141.53136 
L 350.891278 141.386728 
L 351.342187 143.688021 
L 351.793097 144.137966 
L 352.244006 143.82273 
L 352.694915 143.886934 
L 353.145824 144.146304 
L 353.596733 146.545404 
L 354.047642 144.352637 
L 354.498551 144.502635 
L 354.94946 144.428107 
L 355.851278 144.76708 
L 356.753097 149.579034 
L 357.204006 149.70359 
L 357.654915 147.62692 
L 358.105824 147.558126 
L 358.556733 146.375759 
L 359.007642 146.379977 
L 359.458551 147.551743 
L 359.90946 146.453738 
L 360.811278 142.546249 
L 362.164006 143.454843 
L 363.065824 143.299267 
L 363.516733 140.821857 
L 363.967642 140.782873 
L 364.418551 143.193222 
L 364.86946 143.193222 
L 365.320369 144.235712 
L 365.771278 141.784006 
L 366.222187 141.796504 
L 367.124006 146.288616 
L 368.025824 142.004993 
L 368.476733 141.996289 
L 368.927642 139.65465 
L 369.378551 139.721434 
L 369.82946 137.278561 
L 370.280369 137.214132 
L 370.731278 139.583898 
L 371.182187 140.456755 
L 371.633097 140.46941 
L 372.084006 140.158506 
L 372.534915 142.205039 
L 372.985824 139.984348 
L 373.436733 142.215839 
L 374.338551 142.159921 
L 374.78946 142.076789 
L 375.240369 140.844558 
L 375.691278 143.261089 
L 376.142187 140.819631 
L 376.593097 142.834008 
L 377.044006 142.758497 
L 377.494915 140.837423 
L 377.945824 143.198755 
L 378.396733 143.12628 
L 378.847642 141.830423 
L 379.298551 139.67979 
L 379.74946 141.933082 
L 380.200369 143.221302 
L 380.651278 143.089918 
L 381.102187 145.382274 
L 381.553097 143.196447 
L 382.004006 143.204936 
L 382.454915 140.868772 
L 382.905824 140.849417 
L 383.356733 138.909826 
L 384.258551 143.538316 
L 384.70946 144.901863 
L 385.611278 144.918238 
L 386.062187 146.69061 
L 386.513097 149.132969 
L 386.964006 149.352772 
L 387.865824 149.398614 
L 388.316733 147.555198 
L 389.218551 151.596158 
L 389.66946 153.499262 
L 390.120369 154.732272 
L 390.571278 157.197625 
L 391.022187 156.400632 
L 391.473097 158.589134 
L 392.374915 158.597679 
L 393.276733 154.261483 
L 394.178551 153.843977 
L 394.62946 153.880141 
L 395.080369 151.56265 
L 395.531278 153.899108 
L 395.982187 153.292054 
L 396.433097 153.00282 
L 396.884006 152.899812 
L 397.785824 148.737196 
L 398.236733 148.274326 
L 398.687642 145.971285 
L 399.138551 146.988173 
L 399.58946 144.593724 
L 400.491278 144.60597 
L 400.942187 145.512684 
L 401.393097 143.001471 
L 401.844006 142.844919 
L 402.294915 140.399106 
L 402.745824 142.47203 
L 403.196733 143.423525 
L 403.647642 142.188481 
L 404.098551 144.37231 
L 405.451278 148.038053 
L 405.902187 150.373188 
L 406.353097 147.919232 
L 407.254915 147.499257 
L 408.607642 147.591184 
L 409.50946 143.380892 
L 409.960369 143.547073 
L 410.411278 141.363653 
L 410.411278 141.363653 
" clip-path="url(#p2c76818435)" style="fill: none; stroke: #0000ff; stroke-width: 1.5; stroke-linecap: square"/>
   </g>
   <g id="patch_3">
    <path d="M 28.942188 301.037813 
L 28.942188 23.837813 
" style="fill: none; stroke: #000000; stroke-width: 0.8; stroke-linejoin: miter; stroke-linecap: square"/>
   </g>
   <g id="patch_4">
    <path d="M 475.342187 301.037813 
L 475.342187 23.837813 
" style="fill: none; stroke: #000000; stroke-width: 0.8; stroke-linejoin: miter; stroke-linecap: square"/>
   </g>
   <g id="patch_5">
    <path d="M 28.942188 301.037813 
L 475.342187 301.037813 
" style="fill: none; stroke: #000000; stroke-width: 0.8; stroke-linejoin: miter; stroke-linecap: square"/>
   </g>
   <g id="patch_6">
    <path d="M 28.942188 23.837813 
L 475.342187 23.837813 
" style="fill: none; stroke: #000000; stroke-width: 0.8; stroke-linejoin: miter; stroke-linecap: square"/>
   </g>
   <g id="text_14">
    <!-- Training Rewards -->
    <g transform="translate(192.585312 17.837813) scale(0.14 -0.14)">
     <defs>
      <path id="DejaVuSans-54" d="M -19 4666 
L 3928 4666 
L 3928 4134 
L 2272 4134 
L 2272 0 
L 1638 0 
L 1638 4134 
L -19 4134 
L -19 4666 
z
" transform="scale(0.015625)"/>
      <path id="DejaVuSans-72" d="M 2631 2963 
Q 2534 3019 2420 3045 
Q 2306 3072 2169 3072 
Q 1681 3072 1420 2755 
Q 1159 2438 1159 1844 
L 1159 0 
L 581 0 
L 581 3500 
L 1159 3500 
L 1159 2956 
Q 1341 3275 1631 3429 
Q 1922 3584 2338 3584 
Q 2397 3584 2469 3576 
Q 2541 3569 2628 3553 
L 2631 2963 
z
" transform="scale(0.015625)"/>
      <path id="DejaVuSans-61" d="M 2194 1759 
Q 1497 1759 1228 1600 
Q 959 1441 959 1056 
Q 959 750 1161 570 
Q 1363 391 1709 391 
Q 2188 391 2477 730 
Q 2766 1069 2766 1631 
L 2766 1759 
L 2194 1759 
z
M 3341 1997 
L 3341 0 
L 2766 0 
L 2766 531 
Q 2569 213 2275 61 
Q 1981 -91 1556 -91 
Q 1019 -91 701 211 
Q 384 513 384 1019 
Q 384 1609 779 1909 
Q 1175 2209 1959 2209 
L 2766 2209 
L 2766 2266 
Q 2766 2663 2505 2880 
Q 2244 3097 1772 3097 
Q 1472 3097 1187 3025 
Q 903 2953 641 2809 
L 641 3341 
Q 956 3463 1253 3523 
Q 1550 3584 1831 3584 
Q 2591 3584 2966 3190 
Q 3341 2797 3341 1997 
z
" transform="scale(0.015625)"/>
      <path id="DejaVuSans-69" d="M 603 3500 
L 1178 3500 
L 1178 0 
L 603 0 
L 603 3500 
z
M 603 4863 
L 1178 4863 
L 1178 4134 
L 603 4134 
L 603 4863 
z
" transform="scale(0.015625)"/>
      <path id="DejaVuSans-6e" d="M 3513 2113 
L 3513 0 
L 2938 0 
L 2938 2094 
Q 2938 2591 2744 2837 
Q 2550 3084 2163 3084 
Q 1697 3084 1428 2787 
Q 1159 2491 1159 1978 
L 1159 0 
L 581 0 
L 581 3500 
L 1159 3500 
L 1159 2956 
Q 1366 3272 1645 3428 
Q 1925 3584 2291 3584 
Q 2894 3584 3203 3211 
Q 3513 2838 3513 2113 
z
" transform="scale(0.015625)"/>
      <path id="DejaVuSans-67" d="M 2906 1791 
Q 2906 2416 2648 2759 
Q 2391 3103 1925 3103 
Q 1463 3103 1205 2759 
Q 947 2416 947 1791 
Q 947 1169 1205 825 
Q 1463 481 1925 481 
Q 2391 481 2648 825 
Q 2906 1169 2906 1791 
z
M 3481 434 
Q 3481 -459 3084 -895 
Q 2688 -1331 1869 -1331 
Q 1566 -1331 1297 -1286 
Q 1028 -1241 775 -1147 
L 775 -588 
Q 1028 -725 1275 -790 
Q 1522 -856 1778 -856 
Q 2344 -856 2625 -561 
Q 2906 -266 2906 331 
L 2906 616 
Q 2728 306 2450 153 
Q 2172 0 1784 0 
Q 1141 0 747 490 
Q 353 981 353 1791 
Q 353 2603 747 3093 
Q 1141 3584 1784 3584 
Q 2172 3584 2450 3431 
Q 2728 3278 2906 2969 
L 2906 3500 
L 3481 3500 
L 3481 434 
z
" transform="scale(0.015625)"/>
      <path id="DejaVuSans-20" transform="scale(0.015625)"/>
      <path id="DejaVuSans-52" d="M 2841 2188 
Q 3044 2119 3236 1894 
Q 3428 1669 3622 1275 
L 4263 0 
L 3584 0 
L 2988 1197 
Q 2756 1666 2539 1819 
Q 2322 1972 1947 1972 
L 1259 1972 
L 1259 0 
L 628 0 
L 628 4666 
L 2053 4666 
Q 2853 4666 3247 4331 
Q 3641 3997 3641 3322 
Q 3641 2881 3436 2590 
Q 3231 2300 2841 2188 
z
M 1259 4147 
L 1259 2491 
L 2053 2491 
Q 2509 2491 2742 2702 
Q 2975 2913 2975 3322 
Q 2975 3731 2742 3939 
Q 2509 4147 2053 4147 
L 1259 4147 
z
" transform="scale(0.015625)"/>
      <path id="DejaVuSans-65" d="M 3597 1894 
L 3597 1613 
L 953 1613 
Q 991 1019 1311 708 
Q 1631 397 2203 397 
Q 2534 397 2845 478 
Q 3156 559 3463 722 
L 3463 178 
Q 3153 47 2828 -22 
Q 2503 -91 2169 -91 
Q 1331 -91 842 396 
Q 353 884 353 1716 
Q 353 2575 817 3079 
Q 1281 3584 2069 3584 
Q 2775 3584 3186 3129 
Q 3597 2675 3597 1894 
z
M 3022 2063 
Q 3016 2534 2758 2815 
Q 2500 3097 2075 3097 
Q 1594 3097 1305 2825 
Q 1016 2553 972 2059 
L 3022 2063 
z
" transform="scale(0.015625)"/>
      <path id="DejaVuSans-77" d="M 269 3500 
L 844 3500 
L 1563 769 
L 2278 3500 
L 2956 3500 
L 3675 769 
L 4391 3500 
L 4966 3500 
L 4050 0 
L 3372 0 
L 2619 2869 
L 1863 0 
L 1184 0 
L 269 3500 
z
" transform="scale(0.015625)"/>
      <path id="DejaVuSans-64" d="M 2906 2969 
L 2906 4863 
L 3481 4863 
L 3481 0 
L 2906 0 
L 2906 525 
Q 2725 213 2448 61 
Q 2172 -91 1784 -91 
Q 1150 -91 751 415 
Q 353 922 353 1747 
Q 353 2572 751 3078 
Q 1150 3584 1784 3584 
Q 2172 3584 2448 3432 
Q 2725 3281 2906 2969 
z
M 947 1747 
Q 947 1113 1208 752 
Q 1469 391 1925 391 
Q 2381 391 2643 752 
Q 2906 1113 2906 1747 
Q 2906 2381 2643 2742 
Q 2381 3103 1925 3103 
Q 1469 3103 1208 2742 
Q 947 2381 947 1747 
z
" transform="scale(0.015625)"/>
      <path id="DejaVuSans-73" d="M 2834 3397 
L 2834 2853 
Q 2591 2978 2328 3040 
Q 2066 3103 1784 3103 
Q 1356 3103 1142 2972 
Q 928 2841 928 2578 
Q 928 2378 1081 2264 
Q 1234 2150 1697 2047 
L 1894 2003 
Q 2506 1872 2764 1633 
Q 3022 1394 3022 966 
Q 3022 478 2636 193 
Q 2250 -91 1575 -91 
Q 1294 -91 989 -36 
Q 684 19 347 128 
L 347 722 
Q 666 556 975 473 
Q 1284 391 1588 391 
Q 1994 391 2212 530 
Q 2431 669 2431 922 
Q 2431 1156 2273 1281 
Q 2116 1406 1581 1522 
L 1381 1569 
Q 847 1681 609 1914 
Q 372 2147 372 2553 
Q 372 3047 722 3315 
Q 1072 3584 1716 3584 
Q 2034 3584 2315 3537 
Q 2597 3491 2834 3397 
z
" transform="scale(0.015625)"/>
     </defs>
     <use xlink:href="#DejaVuSans-54"/>
     <use xlink:href="#DejaVuSans-72" transform="translate(46.333984 0)"/>
     <use xlink:href="#DejaVuSans-61" transform="translate(87.447266 0)"/>
     <use xlink:href="#DejaVuSans-69" transform="translate(148.726562 0)"/>
     <use xlink:href="#DejaVuSans-6e" transform="translate(176.509766 0)"/>
     <use xlink:href="#DejaVuSans-69" transform="translate(239.888672 0)"/>
     <use xlink:href="#DejaVuSans-6e" transform="translate(267.671875 0)"/>
     <use xlink:href="#DejaVuSans-67" transform="translate(331.050781 0)"/>
     <use xlink:href="#DejaVuSans-20" transform="translate(394.527344 0)"/>
     <use xlink:href="#DejaVuSans-52" transform="translate(426.314453 0)"/>
     <use xlink:href="#DejaVuSans-65" transform="translate(491.296875 0)"/>
     <use xlink:href="#DejaVuSans-77" transform="translate(552.820312 0)"/>
     <use xlink:href="#DejaVuSans-61" transform="translate(634.607422 0)"/>
     <use xlink:href="#DejaVuSans-72" transform="translate(695.886719 0)"/>
     <use xlink:href="#DejaVuSans-64" transform="translate(735.25 0)"/>
     <use xlink:href="#DejaVuSans-73" transform="translate(798.726562 0)"/>
    </g>
   </g>
   <g id="legend_1">
    <g id="patch_7">
     <path d="M 35.942188 296.037813 
L 155.839063 296.037813 
Q 157.839063 296.037813 157.839063 294.037813 
L 157.839063 265.681563 
Q 157.839063 263.681563 155.839063 263.681563 
L 35.942188 263.681563 
Q 33.942188 263.681563 33.942188 265.681563 
L 33.942188 294.037813 
Q 33.942188 296.037813 35.942188 296.037813 
z
" style="fill: #ffffff; opacity: 0.8; stroke: #cccccc; stroke-linejoin: miter"/>
    </g>
    <g id="line2d_29">
     <path d="M 37.942188 271.78 
L 47.942188 271.78 
L 57.942188 271.78 
" style="fill: none; stroke: #808080; stroke-opacity: 0.3; stroke-width: 1.5; stroke-linecap: square"/>
    </g>
    <g id="text_15">
     <!-- Raw -->
     <g transform="translate(65.942188 275.28) scale(0.1 -0.1)">
      <use xlink:href="#DejaVuSans-52"/>
      <use xlink:href="#DejaVuSans-61" transform="translate(67.232422 0)"/>
      <use xlink:href="#DejaVuSans-77" transform="translate(128.511719 0)"/>
     </g>
    </g>
    <g id="line2d_30">
     <path d="M 37.942188 286.458125 
L 47.942188 286.458125 
L 57.942188 286.458125 
" style="fill: none; stroke: #0000ff; stroke-width: 1.5; stroke-linecap: square"/>
    </g>
    <g id="text_16">
     <!-- Moving Avg (100) -->
     <g transform="translate(65.942188 289.958125) scale(0.1 -0.1)">
      <defs>
       <path id="DejaVuSans-4d" d="M 628 4666 
L 1569 4666 
L 2759 1491 
L 3956 4666 
L 4897 4666 
L 4897 0 
L 4281 0 
L 4281 4097 
L 3078 897 
L 2444 897 
L 1241 4097 
L 1241 0 
L 628 0 
L 628 4666 
z
" transform="scale(0.015625)"/>
       <path id="DejaVuSans-6f" d="M 1959 3097 
Q 1497 3097 1228 2736 
Q 959 2375 959 1747 
Q 959 1119 1226 758 
Q 1494 397 1959 397 
Q 2419 397 2687 759 
Q 2956 1122 2956 1747 
Q 2956 2369 2687 2733 
Q 2419 3097 1959 3097 
z
M 1959 3584 
Q 2709 3584 3137 3096 
Q 3566 2609 3566 1747 
Q 3566 888 3137 398 
Q 2709 -91 1959 -91 
Q 1206 -91 779 398 
Q 353 888 353 1747 
Q 353 2609 779 3096 
Q 1206 3584 1959 3584 
z
" transform="scale(0.015625)"/>
       <path id="DejaVuSans-76" d="M 191 3500 
L 800 3500 
L 1894 563 
L 2988 3500 
L 3597 3500 
L 2284 0 
L 1503 0 
L 191 3500 
z
" transform="scale(0.015625)"/>
       <path id="DejaVuSans-41" d="M 2188 4044 
L 1331 1722 
L 3047 1722 
L 2188 4044 
z
M 1831 4666 
L 2547 4666 
L 4325 0 
L 3669 0 
L 3244 1197 
L 1141 1197 
L 716 0 
L 50 0 
L 1831 4666 
z
" transform="scale(0.015625)"/>
       <path id="DejaVuSans-28" d="M 1984 4856 
Q 1566 4138 1362 3434 
Q 1159 2731 1159 2009 
Q 1159 1288 1364 580 
Q 1569 -128 1984 -844 
L 1484 -844 
Q 1016 -109 783 600 
Q 550 1309 550 2009 
Q 550 2706 781 3412 
Q 1013 4119 1484 4856 
L 1984 4856 
z
" transform="scale(0.015625)"/>
       <path id="DejaVuSans-29" d="M 513 4856 
L 1013 4856 
Q 1481 4119 1714 3412 
Q 1947 2706 1947 2009 
Q 1947 1309 1714 600 
Q 1481 -109 1013 -844 
L 513 -844 
Q 928 -128 1133 580 
Q 1338 1288 1338 2009 
Q 1338 2731 1133 3434 
Q 928 4138 513 4856 
z
" transform="scale(0.015625)"/>
      </defs>
      <use xlink:href="#DejaVuSans-4d"/>
      <use xlink:href="#DejaVuSans-6f" transform="translate(86.279297 0)"/>
      <use xlink:href="#DejaVuSans-76" transform="translate(147.460938 0)"/>
      <use xlink:href="#DejaVuSans-69" transform="translate(206.640625 0)"/>
      <use xlink:href="#DejaVuSans-6e" transform="translate(234.423828 0)"/>
      <use xlink:href="#DejaVuSans-67" transform="translate(297.802734 0)"/>
      <use xlink:href="#DejaVuSans-20" transform="translate(361.279297 0)"/>
      <use xlink:href="#DejaVuSans-41" transform="translate(393.066406 0)"/>
      <use xlink:href="#DejaVuSans-76" transform="translate(455.599609 0)"/>
      <use xlink:href="#DejaVuSans-67" transform="translate(514.779297 0)"/>
      <use xlink:href="#DejaVuSans-20" transform="translate(578.255859 0)"/>
      <use xlink:href="#DejaVuSans-28" transform="translate(610.042969 0)"/>
      <use xlink:href="#DejaVuSans-31" transform="translate(649.056641 0)"/>
      <use xlink:href="#DejaVuSans-30" transform="translate(712.679688 0)"/>
      <use xlink:href="#DejaVuSans-30" transform="translate(776.302734 0)"/>
      <use xlink:href="#DejaVuSans-29" transform="translate(839.925781 0)"/>
     </g>
    </g>
   </g>
  </g>
 </g>
 <defs>
  <clipPath id="p2c76818435">
   <rect x="28.942188" y="23.837813" width="446.4" height="277.2"/>
  </clipPath>
 </defs>
</svg>
