<?xml version="1.0" encoding="utf-8" standalone="no"?>
<!DOCTYPE svg PUBLIC "-//W3C//DTD SVG 1.1//EN"
  "http://www.w3.org/Graphics/SVG/1.1/DTD/svg11.dtd">
<svg xmlns:xlink="http://www.w3.org/1999/xlink" width="482.542187pt" height="324.915938pt" viewBox="0 0 482.542187 324.915938" xmlns="http://www.w3.org/2000/svg" version="1.1">
 <metadata>
  <rdf:RDF xmlns:dc="http://purl.org/dc/elements/1.1/" xmlns:cc="http://creativecommons.org/ns#" xmlns:rdf="http://www.w3.org/1999/02/22-rdf-syntax-ns#">
   <cc:Work>
    <dc:type rdf:resource="http://purl.org/dc/dcmitype/StillImage"/>
    <dc:date>2026-06-19T19:22:22.093059</dc:date>
    <dc:format>image/svg+xml</dc:format>
    <dc:creator>
     <cc:Agent>
      <dc:title>Matplotlib v3.10.3, https://matplotlib.org/</dc:title>
     </cc:Agent>
    </dc:creator>
   </cc:Work>
  </rdf:RDF>
 </metadata>
 <defs>
  <style type="text/css">*{stroke-linejoin: round; stroke-linecap: butt}</style>
 </defs>
 <g id="figure_1">
  <g id="patch_1">
   <path d="M 0 324.915938 
L 482.542187 324.915938 
L 482.542187 0 
L 0 0 
z
" style="fill: #ffffff"/>
  </g>
  <g id="axes_1">
   <g id="patch_2">
    <path d="M 28.942188 301.037813 
L 475.342187 301.037813 
L 475.342187 23.837813 
L 28.942188 23.837813 
z
" style="fill: #ffffff"/>
   </g>
   <g id="matplotlib.axis_1">
    <g id="xtick_1">
     <g id="line2d_1">
      <path d="M 49.233097 301.037813 
L 49.233097 23.837813 
" clip-path="url(#pa1fbbb950f)" style="fill: none; stroke: #b0b0b0; stroke-opacity: 0.3; stroke-width: 0.8; stroke-linecap: square"/>
     </g>
     <g id="line2d_2">
      <defs>
       <path id="mcdd254f2e0" d="M 0 0 
L 0 3.5 
" style="stroke: #000000; stroke-width: 0.8"/>
      </defs>
      <g>
       <use xlink:href="#mcdd254f2e0" x="49.233097" y="301.037813" style="stroke: #000000; stroke-width: 0.8"/>
      </g>
     </g>
     <g id="text_1">
      <!-- 0 -->
      <g transform="translate(46.051847 315.63625) scale(0.1 -0.1)">
       <defs>
        <path id="DejaVuSans-30" d="M 2034 4250 
Q 1547 4250 1301 3770 
Q 1056 3291 1056 2328 
Q 1056 1369 1301 889 
Q 1547 409 2034 409 
Q 2525 409 2770 889 
Q 3016 1369 3016 2328 
Q 3016 3291 2770 3770 
Q 2525 4250 2034 4250 
z
M 2034 4750 
Q 2819 4750 3233 4129 
Q 3647 3509 3647 2328 
Q 3647 1150 3233 529 
Q 2819 -91 2034 -91 
Q 1250 -91 836 529 
Q 422 1150 422 2328 
Q 422 3509 836 4129 
Q 1250 4750 2034 4750 
z
" transform="scale(0.015625)"/>
       </defs>
       <use xlink:href="#DejaVuSans-30"/>
      </g>
     </g>
    </g>
    <g id="xtick_2">
     <g id="line2d_3">
      <path d="M 139.414915 301.037813 
L 139.414915 23.837813 
" clip-path="url(#pa1fbbb950f)" style="fill: none; stroke: #b0b0b0; stroke-opacity: 0.3; stroke-width: 0.8; stroke-linecap: square"/>
     </g>
     <g id="line2d_4">
      <g>
       <use xlink:href="#mcdd254f2e0" x="139.414915" y="301.037813" style="stroke: #000000; stroke-width: 0.8"/>
      </g>
     </g>
     <g id="text_2">
      <!-- 200 -->
      <g transform="translate(129.871165 315.63625) scale(0.1 -0.1)">
       <defs>
        <path id="DejaVuSans-32" d="M 1228 531 
L 3431 531 
L 3431 0 
L 469 0 
L 469 531 
Q 828 903 1448 1529 
Q 2069 2156 2228 2338 
Q 2531 2678 2651 2914 
Q 2772 3150 2772 3378 
Q 2772 3750 2511 3984 
Q 2250 4219 1831 4219 
Q 1534 4219 1204 4116 
Q 875 4013 500 3803 
L 500 4441 
Q 881 4594 1212 4672 
Q 1544 4750 1819 4750 
Q 2544 4750 2975 4387 
Q 3406 4025 3406 3419 
Q 3406 3131 3298 2873 
Q 3191 2616 2906 2266 
Q 2828 2175 2409 1742 
Q 1991 1309 1228 531 
z
" transform="scale(0.015625)"/>
       </defs>
       <use xlink:href="#DejaVuSans-32"/>
       <use xlink:href="#DejaVuSans-30" transform="translate(63.623047 0)"/>
       <use xlink:href="#DejaVuSans-30" transform="translate(127.246094 0)"/>
      </g>
     </g>
    </g>
    <g id="xtick_3">
     <g id="line2d_5">
      <path d="M 229.596733 301.037813 
L 229.596733 23.837813 
" clip-path="url(#pa1fbbb950f)" style="fill: none; stroke: #b0b0b0; stroke-opacity: 0.3; stroke-width: 0.8; stroke-linecap: square"/>
     </g>
     <g id="line2d_6">
      <g>
       <use xlink:href="#mcdd254f2e0" x="229.596733" y="301.037813" style="stroke: #000000; stroke-width: 0.8"/>
      </g>
     </g>
     <g id="text_3">
      <!-- 400 -->
      <g transform="translate(220.052983 315.63625) scale(0.1 -0.1)">
       <defs>
        <path id="DejaVuSans-34" d="M 2419 4116 
L 825 1625 
L 2419 1625 
L 2419 4116 
z
M 2253 4666 
L 3047 4666 
L 3047 1625 
L 3713 1625 
L 3713 1100 
L 3047 1100 
L 3047 0 
L 2419 0 
L 2419 1100 
L 313 1100 
L 313 1709 
L 2253 4666 
z
" transform="scale(0.015625)"/>
       </defs>
       <use xlink:href="#DejaVuSans-34"/>
       <use xlink:href="#DejaVuSans-30" transform="translate(63.623047 0)"/>
       <use xlink:href="#DejaVuSans-30" transform="translate(127.246094 0)"/>
      </g>
     </g>
    </g>
    <g id="xtick_4">
     <g id="line2d_7">
      <path d="M 319.778551 301.037813 
L 319.778551 23.837813 
" clip-path="url(#pa1fbbb950f)" style="fill: none; stroke: #b0b0b0; stroke-opacity: 0.3; stroke-width: 0.8; stroke-linecap: square"/>
     </g>
     <g id="line2d_8">
      <g>
       <use xlink:href="#mcdd254f2e0" x="319.778551" y="301.037813" style="stroke: #000000; stroke-width: 0.8"/>
      </g>
     </g>
     <g id="text_4">
      <!-- 600 -->
      <g transform="translate(310.234801 315.63625) scale(0.1 -0.1)">
       <defs>
        <path id="DejaVuSans-36" d="M 2113 2584 
Q 1688 2584 1439 2293 
Q 1191 2003 1191 1497 
Q 1191 994 1439 701 
Q 1688 409 2113 409 
Q 2538 409 2786 701 
Q 3034 994 3034 1497 
Q 3034 2003 2786 2293 
Q 2538 2584 2113 2584 
z
M 3366 4563 
L 3366 3988 
Q 3128 4100 2886 4159 
Q 2644 4219 2406 4219 
Q 1781 4219 1451 3797 
Q 1122 3375 1075 2522 
Q 1259 2794 1537 2939 
Q 1816 3084 2150 3084 
Q 2853 3084 3261 2657 
Q 3669 2231 3669 1497 
Q 3669 778 3244 343 
Q 2819 -91 2113 -91 
Q 1303 -91 875 529 
Q 447 1150 447 2328 
Q 447 3434 972 4092 
Q 1497 4750 2381 4750 
Q 2619 4750 2861 4703 
Q 3103 4656 3366 4563 
z
" transform="scale(0.015625)"/>
       </defs>
       <use xlink:href="#DejaVuSans-36"/>
       <use xlink:href="#DejaVuSans-30" transform="translate(63.623047 0)"/>
       <use xlink:href="#DejaVuSans-30" transform="translate(127.246094 0)"/>
      </g>
     </g>
    </g>
    <g id="xtick_5">
     <g id="line2d_9">
      <path d="M 409.960369 301.037813 
L 409.960369 23.837813 
" clip-path="url(#pa1fbbb950f)" style="fill: none; stroke: #b0b0b0; stroke-opacity: 0.3; stroke-width: 0.8; stroke-linecap: square"/>
     </g>
     <g id="line2d_10">
      <g>
       <use xlink:href="#mcdd254f2e0" x="409.960369" y="301.037813" style="stroke: #000000; stroke-width: 0.8"/>
      </g>
     </g>
     <g id="text_5">
      <!-- 800 -->
      <g transform="translate(400.416619 315.63625) scale(0.1 -0.1)">
       <defs>
        <path id="DejaVuSans-38" d="M 2034 2216 
Q 1584 2216 1326 1975 
Q 1069 1734 1069 1313 
Q 1069 891 1326 650 
Q 1584 409 2034 409 
Q 2484 409 2743 651 
Q 3003 894 3003 1313 
Q 3003 1734 2745 1975 
Q 2488 2216 2034 2216 
z
M 1403 2484 
Q 997 2584 770 2862 
Q 544 3141 544 3541 
Q 544 4100 942 4425 
Q 1341 4750 2034 4750 
Q 2731 4750 3128 4425 
Q 3525 4100 3525 3541 
Q 3525 3141 3298 2862 
Q 3072 2584 2669 2484 
Q 3125 2378 3379 2068 
Q 3634 1759 3634 1313 
Q 3634 634 3220 271 
Q 2806 -91 2034 -91 
Q 1263 -91 848 271 
Q 434 634 434 1313 
Q 434 1759 690 2068 
Q 947 2378 1403 2484 
z
M 1172 3481 
Q 1172 3119 1398 2916 
Q 1625 2713 2034 2713 
Q 2441 2713 2670 2916 
Q 2900 3119 2900 3481 
Q 2900 3844 2670 4047 
Q 2441 4250 2034 4250 
Q 1625 4250 1398 4047 
Q 1172 3844 1172 3481 
z
" transform="scale(0.015625)"/>
       </defs>
       <use xlink:href="#DejaVuSans-38"/>
       <use xlink:href="#DejaVuSans-30" transform="translate(63.623047 0)"/>
       <use xlink:href="#DejaVuSans-30" transform="translate(127.246094 0)"/>
      </g>
     </g>
    </g>
   </g>
   <g id="matplotlib.axis_2">
    <g id="ytick_1">
     <g id="line2d_11">
      <path d="M 28.942188 268.967595 
L 475.342187 268.967595 
" clip-path="url(#pa1fbbb950f)" style="fill: none; stroke: #b0b0b0; stroke-opacity: 0.3; stroke-width: 0.8; stroke-linecap: square"/>
     </g>
     <g id="line2d_12">
      <defs>
       <path id="m573719ec17" d="M 0 0 
L -3.5 0 
" style="stroke: #000000; stroke-width: 0.8"/>
      </defs>
      <g>
       <use xlink:href="#m573719ec17" x="28.942188" y="268.967595" style="stroke: #000000; stroke-width: 0.8"/>
      </g>
     </g>
     <g id="text_6">
      <!-- −6 -->
      <g transform="translate(7.2 272.766814) scale(0.1 -0.1)">
       <defs>
        <path id="DejaVuSans-2212" d="M 678 2272 
L 4684 2272 
L 4684 1741 
L 678 1741 
L 678 2272 
z
" transform="scale(0.015625)"/>
       </defs>
       <use xlink:href="#DejaVuSans-2212"/>
       <use xlink:href="#DejaVuSans-36" transform="translate(83.789062 0)"/>
      </g>
     </g>
    </g>
    <g id="ytick_2">
     <g id="line2d_13">
      <path d="M 28.942188 235.749055 
L 475.342187 235.749055 
" clip-path="url(#pa1fbbb950f)" style="fill: none; stroke: #b0b0b0; stroke-opacity: 0.3; stroke-width: 0.8; stroke-linecap: square"/>
     </g>
     <g id="line2d_14">
      <g>
       <use xlink:href="#m573719ec17" x="28.942188" y="235.749055" style="stroke: #000000; stroke-width: 0.8"/>
      </g>
     </g>
     <g id="text_7">
      <!-- −5 -->
      <g transform="translate(7.2 239.548274) scale(0.1 -0.1)">
       <defs>
        <path id="DejaVuSans-35" d="M 691 4666 
L 3169 4666 
L 3169 4134 
L 1269 4134 
L 1269 2991 
Q 1406 3038 1543 3061 
Q 1681 3084 1819 3084 
Q 2600 3084 3056 2656 
Q 3513 2228 3513 1497 
Q 3513 744 3044 326 
Q 2575 -91 1722 -91 
Q 1428 -91 1123 -41 
Q 819 9 494 109 
L 494 744 
Q 775 591 1075 516 
Q 1375 441 1709 441 
Q 2250 441 2565 725 
Q 2881 1009 2881 1497 
Q 2881 1984 2565 2268 
Q 2250 2553 1709 2553 
Q 1456 2553 1204 2497 
Q 953 2441 691 2322 
L 691 4666 
z
" transform="scale(0.015625)"/>
       </defs>
       <use xlink:href="#DejaVuSans-2212"/>
       <use xlink:href="#DejaVuSans-35" transform="translate(83.789062 0)"/>
      </g>
     </g>
    </g>
    <g id="ytick_3">
     <g id="line2d_15">
      <path d="M 28.942188 202.530515 
L 475.342187 202.530515 
" clip-path="url(#pa1fbbb950f)" style="fill: none; stroke: #b0b0b0; stroke-opacity: 0.3; stroke-width: 0.8; stroke-linecap: square"/>
     </g>
     <g id="line2d_16">
      <g>
       <use xlink:href="#m573719ec17" x="28.942188" y="202.530515" style="stroke: #000000; stroke-width: 0.8"/>
      </g>
     </g>
     <g id="text_8">
      <!-- −4 -->
      <g transform="translate(7.2 206.329733) scale(0.1 -0.1)">
       <use xlink:href="#DejaVuSans-2212"/>
       <use xlink:href="#DejaVuSans-34" transform="translate(83.789062 0)"/>
      </g>
     </g>
    </g>
    <g id="ytick_4">
     <g id="line2d_17">
      <path d="M 28.942188 169.311974 
L 475.342187 169.311974 
" clip-path="url(#pa1fbbb950f)" style="fill: none; stroke: #b0b0b0; stroke-opacity: 0.3; stroke-width: 0.8; stroke-linecap: square"/>
     </g>
     <g id="line2d_18">
      <g>
       <use xlink:href="#m573719ec17" x="28.942188" y="169.311974" style="stroke: #000000; stroke-width: 0.8"/>
      </g>
     </g>
     <g id="text_9">
      <!-- −3 -->
      <g transform="translate(7.2 173.111193) scale(0.1 -0.1)">
       <defs>
        <path id="DejaVuSans-33" d="M 2597 2516 
Q 3050 2419 3304 2112 
Q 3559 1806 3559 1356 
Q 3559 666 3084 287 
Q 2609 -91 1734 -91 
Q 1441 -91 1130 -33 
Q 819 25 488 141 
L 488 750 
Q 750 597 1062 519 
Q 1375 441 1716 441 
Q 2309 441 2620 675 
Q 2931 909 2931 1356 
Q 2931 1769 2642 2001 
Q 2353 2234 1838 2234 
L 1294 2234 
L 1294 2753 
L 1863 2753 
Q 2328 2753 2575 2939 
Q 2822 3125 2822 3475 
Q 2822 3834 2567 4026 
Q 2313 4219 1838 4219 
Q 1578 4219 1281 4162 
Q 984 4106 628 3988 
L 628 4550 
Q 988 4650 1302 4700 
Q 1616 4750 1894 4750 
Q 2613 4750 3031 4423 
Q 3450 4097 3450 3541 
Q 3450 3153 3228 2886 
Q 3006 2619 2597 2516 
z
" transform="scale(0.015625)"/>
       </defs>
       <use xlink:href="#DejaVuSans-2212"/>
       <use xlink:href="#DejaVuSans-33" transform="translate(83.789062 0)"/>
      </g>
     </g>
    </g>
    <g id="ytick_5">
     <g id="line2d_19">
      <path d="M 28.942188 136.093434 
L 475.342187 136.093434 
" clip-path="url(#pa1fbbb950f)" style="fill: none; stroke: #b0b0b0; stroke-opacity: 0.3; stroke-width: 0.8; stroke-linecap: square"/>
     </g>
     <g id="line2d_20">
      <g>
       <use xlink:href="#m573719ec17" x="28.942188" y="136.093434" style="stroke: #000000; stroke-width: 0.8"/>
      </g>
     </g>
     <g id="text_10">
      <!-- −2 -->
      <g transform="translate(7.2 139.892653) scale(0.1 -0.1)">
       <use xlink:href="#DejaVuSans-2212"/>
       <use xlink:href="#DejaVuSans-32" transform="translate(83.789062 0)"/>
      </g>
     </g>
    </g>
    <g id="ytick_6">
     <g id="line2d_21">
      <path d="M 28.942188 102.874893 
L 475.342187 102.874893 
" clip-path="url(#pa1fbbb950f)" style="fill: none; stroke: #b0b0b0; stroke-opacity: 0.3; stroke-width: 0.8; stroke-linecap: square"/>
     </g>
     <g id="line2d_22">
      <g>
       <use xlink:href="#m573719ec17" x="28.942188" y="102.874893" style="stroke: #000000; stroke-width: 0.8"/>
      </g>
     </g>
     <g id="text_11">
      <!-- −1 -->
      <g transform="translate(7.2 106.674112) scale(0.1 -0.1)">
       <defs>
        <path id="DejaVuSans-31" d="M 794 531 
L 1825 531 
L 1825 4091 
L 703 3866 
L 703 4441 
L 1819 4666 
L 2450 4666 
L 2450 531 
L 3481 531 
L 3481 0 
L 794 0 
L 794 531 
z
" transform="scale(0.015625)"/>
       </defs>
       <use xlink:href="#DejaVuSans-2212"/>
       <use xlink:href="#DejaVuSans-31" transform="translate(83.789062 0)"/>
      </g>
     </g>
    </g>
    <g id="ytick_7">
     <g id="line2d_23">
      <path d="M 28.942188 69.656353 
L 475.342187 69.656353 
" clip-path="url(#pa1fbbb950f)" style="fill: none; stroke: #b0b0b0; stroke-opacity: 0.3; stroke-width: 0.8; stroke-linecap: square"/>
     </g>
     <g id="line2d_24">
      <g>
       <use xlink:href="#m573719ec17" x="28.942188" y="69.656353" style="stroke: #000000; stroke-width: 0.8"/>
      </g>
     </g>
     <g id="text_12">
      <!-- 0 -->
      <g transform="translate(15.579688 73.455572) scale(0.1 -0.1)">
       <use xlink:href="#DejaVuSans-30"/>
      </g>
     </g>
    </g>
    <g id="ytick_8">
     <g id="line2d_25">
      <path d="M 28.942188 36.437813 
L 475.342187 36.437813 
" clip-path="url(#pa1fbbb950f)" style="fill: none; stroke: #b0b0b0; stroke-opacity: 0.3; stroke-width: 0.8; stroke-linecap: square"/>
     </g>
     <g id="line2d_26">
      <g>
       <use xlink:href="#m573719ec17" x="28.942188" y="36.437813" style="stroke: #000000; stroke-width: 0.8"/>
      </g>
     </g>
     <g id="text_13">
      <!-- 1 -->
      <g transform="translate(15.579688 40.237031) scale(0.1 -0.1)">
       <use xlink:href="#DejaVuSans-31"/>
      </g>
     </g>
    </g>
   </g>
   <g id="line2d_27">
    <path d="M 49.233097 169.540352 
L 49.684006 176.032785 
L 50.134915 176.882087 
L 50.585824 164.684216 
L 51.036733 168.47113 
L 51.487642 164.447534 
L 51.938551 177.46505 
L 52.38946 161.592124 
L 52.840369 223.823599 
L 53.291278 263.498993 
L 53.742188 251.994875 
L 54.193097 164.787806 
L 54.644006 177.701732 
L 55.094915 172.613067 
L 55.545824 36.437813 
L 55.996733 165.039239 
L 56.447642 164.447534 
L 56.898551 165.985968 
L 57.34946 142.727453 
L 57.800369 276.346264 
L 58.251278 177.46505 
L 58.702188 176.873344 
L 59.153097 152.694399 
L 59.604006 165.985968 
L 60.054915 285.613271 
L 60.505824 287.316846 
L 60.956733 247.079655 
L 61.407642 266.52188 
L 61.858551 247.079655 
L 62.30946 164.565875 
L 62.760369 36.437813 
L 63.211278 247.461799 
L 63.662188 142.455476 
L 64.113097 284.295716 
L 64.564006 247.105832 
L 65.014915 164.447534 
L 65.465824 178.293437 
L 65.916733 224.957182 
L 66.367642 254.052471 
L 66.818551 177.346709 
L 67.26946 221.556434 
L 67.720369 216.842169 
L 68.171278 249.51814 
L 68.622187 177.765825 
L 69.073097 274.456959 
L 69.524006 239.707894 
L 69.974915 172.849749 
L 70.425824 251.771497 
L 70.876733 162.149226 
L 71.327642 177.46505 
L 71.778551 153.569846 
L 72.22946 284.659204 
L 72.680369 176.947274 
L 73.131278 175.433636 
L 73.582188 175.66559 
L 74.033097 239.09687 
L 74.484006 282.979903 
L 74.934915 221.556434 
L 75.385824 210.706428 
L 75.836733 278.046638 
L 76.287642 164.922519 
L 76.738551 271.147539 
L 77.18946 288.437813 
L 77.640369 175.843246 
L 78.091278 159.461293 
L 78.542187 224.494495 
L 78.993097 147.915082 
L 79.444006 178.056755 
L 79.894915 177.701732 
L 80.345824 253.453782 
L 80.796733 287.115299 
L 81.247642 178.766801 
L 81.698551 37.66044 
L 82.14946 287.913994 
L 82.600369 176.442682 
L 83.051278 176.189526 
L 83.502187 165.743749 
L 83.953097 254.241401 
L 84.404006 37.257981 
L 84.854915 36.437813 
L 85.305824 165.039239 
L 85.756733 176.442682 
L 86.207642 276.704199 
L 86.658551 242.149853 
L 87.10946 277.281919 
L 87.560369 36.85046 
L 88.011278 173.679194 
L 88.462187 176.35522 
L 88.913097 144.865205 
L 89.364006 144.389886 
L 89.814915 249.32921 
L 90.265824 176.101893 
L 90.716733 276.675864 
L 91.167642 266.710811 
L 91.618551 222.312155 
L 92.06946 265.341037 
L 92.971278 175.935755 
L 93.422188 267.277602 
L 93.873097 36.437813 
L 94.324006 38.838068 
L 94.774915 264.248398 
L 95.225824 278.80236 
L 95.676733 240.689935 
L 96.127642 167.642743 
L 96.578551 165.394263 
L 97.02946 174.964993 
L 97.931278 177.728865 
L 98.382187 270.081684 
L 98.833097 168.116107 
L 99.284006 254.312287 
L 99.734915 177.003199 
L 100.185824 165.985968 
L 100.636733 249.180054 
L 101.087642 271.954397 
L 101.538551 147.915082 
L 101.98946 243.218829 
L 102.440369 261.609689 
L 102.891278 176.938397 
L 103.342187 208.457256 
L 103.793097 278.228931 
L 104.244006 147.915082 
L 104.694915 287.682091 
L 105.145824 179.003483 
L 105.596733 37.257981 
L 106.498551 287.316846 
L 106.94946 165.039239 
L 107.400369 164.565875 
L 107.851278 175.761103 
L 108.302188 254.32403 
L 108.753097 175.972669 
L 109.204006 177.825382 
L 109.654915 264.160079 
L 110.105824 245.739531 
L 110.556733 177.825382 
L 111.007642 166.104309 
L 111.458551 250.198816 
L 111.90946 173.533991 
L 112.360369 176.032183 
L 112.811278 164.684216 
L 113.262187 245.278403 
L 113.713097 286.938288 
L 114.164006 176.783471 
L 114.614915 252.541027 
L 115.065824 256.107689 
L 115.516733 288.0886 
L 115.967642 177.608034 
L 116.418551 240.586641 
L 116.86946 274.456959 
L 117.320369 245.927567 
L 117.771278 266.33295 
L 118.222187 177.575086 
L 118.673097 288.263206 
L 119.124006 172.849749 
L 119.574915 249.32921 
L 120.025824 176.639709 
L 120.476733 288.059952 
L 120.927642 174.034099 
L 121.378551 285.045375 
L 122.280369 160.674036 
L 122.731278 36.85046 
L 123.182187 177.970401 
L 123.633097 38.0579 
L 124.084006 167.761084 
L 124.534915 175.628738 
L 124.985824 43.785728 
L 125.436733 246.063412 
L 125.887642 279.741855 
L 126.338551 36.437813 
L 126.78946 176.397113 
L 127.240369 174.362264 
L 127.691278 284.524568 
L 128.142188 287.682091 
L 128.593097 175.180401 
L 129.044006 164.041865 
L 129.494915 272.356068 
L 129.945824 179.003483 
L 130.396733 156.88824 
L 130.847642 224.012529 
L 131.298551 176.359762 
L 131.74946 287.330152 
L 132.200369 167.997766 
L 132.651278 283.714551 
L 133.102187 177.110027 
L 133.553097 283.932229 
L 134.004006 283.984924 
L 134.454915 251.414394 
L 134.905824 151.550436 
L 135.356733 284.864755 
L 135.807642 281.832698 
L 136.258551 138.179973 
L 136.70946 145.33234 
L 137.160369 285.25424 
L 137.611278 150.796494 
L 138.062187 175.433636 
L 138.513097 273.173432 
L 138.964006 261.997762 
L 139.414915 142.455476 
L 139.865824 166.577673 
L 140.316733 160.354326 
L 140.767642 37.257981 
L 141.218551 225.658923 
L 141.66946 178.694069 
L 142.120369 38.450422 
L 142.571278 177.146996 
L 143.022188 176.873344 
L 143.473097 247.817766 
L 143.924006 36.437813 
L 144.374915 178.766801 
L 144.825824 265.374367 
L 145.276733 255.36947 
L 145.727642 235.985836 
L 146.178551 253.86354 
L 146.62946 36.85046 
L 147.080369 285.414925 
L 147.531278 36.85046 
L 147.982187 275.882123 
L 148.433097 265.400281 
L 148.884006 175.91122 
L 149.334915 178.694069 
L 149.785824 177.701732 
L 150.236733 177.346709 
L 150.687642 36.85046 
L 151.138551 192.928972 
L 151.58946 174.9312 
L 152.040369 222.898225 
L 152.491278 242.430804 
L 152.942187 178.075239 
L 153.393097 136.435407 
L 153.844006 36.437813 
L 154.294915 177.89343 
L 154.745824 268.771942 
L 155.196733 265.602477 
L 155.647642 240.071618 
L 156.098551 175.150685 
L 156.54946 175.001126 
L 157.000369 244.258097 
L 157.451278 148.110241 
L 157.902187 156.363216 
L 158.353097 146.385441 
L 158.804006 176.281639 
L 159.254915 175.323443 
L 159.705824 276.100465 
L 160.156733 206.918822 
L 160.607642 162.997938 
L 161.058551 168.47113 
L 161.50946 244.400866 
L 161.960369 178.384654 
L 162.411278 204.407747 
L 162.862188 285.037064 
L 163.313097 161.165204 
L 163.764006 237.207496 
L 164.214915 157.929318 
L 164.665824 267.655463 
L 165.116733 280.501465 
L 165.567642 164.684216 
L 166.018551 260.31321 
L 166.46946 175.364515 
L 166.920369 275.896429 
L 167.371278 176.695254 
L 167.822187 176.639709 
L 168.273097 174.799961 
L 168.724006 176.837581 
L 169.174915 176.695254 
L 169.625824 252.878481 
L 170.076733 246.758803 
L 170.527642 286.817268 
L 170.978551 175.761103 
L 171.42946 165.771588 
L 171.880369 276.69569 
L 172.331278 265.864831 
L 172.782187 247.817766 
L 173.233097 153.483142 
L 173.684006 287.913994 
L 174.134915 177.970401 
L 174.585824 252.163166 
L 175.036733 166.138157 
L 175.487642 288.263206 
L 175.938551 178.384654 
L 176.38946 171.330842 
L 176.840369 171.671632 
L 177.291278 170.839949 
L 177.742188 179.003483 
L 178.193097 176.873344 
L 178.644006 246.873114 
L 179.094915 246.137279 
L 179.545824 218.317626 
L 179.996733 173.46319 
L 180.447642 287.024274 
L 181.34946 39.598975 
L 181.800369 172.947863 
L 182.251278 251.457569 
L 182.702188 257.746821 
L 183.153097 278.228931 
L 183.604006 246.393899 
L 184.054915 153.883346 
L 184.505824 247.461799 
L 184.956733 178.139189 
L 185.407642 176.663652 
L 185.858551 265.602477 
L 186.30946 178.452995 
L 186.760369 247.848612 
L 187.211278 253.438334 
L 187.662187 256.035953 
L 188.113097 196.250134 
L 188.564006 251.657716 
L 189.014915 176.620053 
L 189.465824 175.629159 
L 189.916733 36.85046 
L 190.367642 39.972353 
L 190.818551 36.437813 
L 191.720369 284.011051 
L 192.171278 172.693999 
L 192.622187 234.305558 
L 193.073097 174.389005 
L 193.524006 252.574882 
L 193.974915 173.318282 
L 194.425824 266.971134 
L 194.876733 253.154438 
L 195.327642 284.874177 
L 195.778551 265.400281 
L 196.22946 285.792786 
L 196.680369 40.341094 
L 197.131278 177.001292 
L 197.582188 163.291114 
L 198.033097 206.918822 
L 198.484006 226.571445 
L 198.934915 265.211875 
L 199.385824 165.039239 
L 199.836733 175.628738 
L 200.287642 148.500559 
L 200.738551 280.880172 
L 201.18946 177.701732 
L 201.640369 261.101876 
L 202.091278 162.135385 
L 202.542187 37.257981 
L 202.993097 173.118265 
L 203.444006 266.780089 
L 203.894915 252.039529 
L 204.345824 36.85046 
L 204.796733 262.979121 
L 205.247642 170.239325 
L 205.698551 243.40639 
L 206.14946 36.85046 
L 206.600369 171.904666 
L 207.051278 244.215001 
L 207.502187 172.06401 
L 207.953097 265.720422 
L 208.404006 285.699205 
L 208.854915 281.764897 
L 209.756733 173.891882 
L 210.207642 36.85046 
L 210.658551 177.146996 
L 211.10946 162.673803 
L 211.560369 40.341094 
L 212.462187 283.700338 
L 213.364006 152.330212 
L 213.814915 282.398688 
L 214.265824 176.882087 
L 214.716733 257.200444 
L 215.167642 168.873247 
L 215.618551 284.715694 
L 216.06946 247.969339 
L 216.520369 265.178387 
L 216.971278 258.462957 
L 217.422188 36.85046 
L 217.873097 252.794095 
L 218.324006 176.639709 
L 218.774915 39.220899 
L 219.225824 222.316509 
L 219.676733 193.540747 
L 220.127642 254.41199 
L 220.578551 254.511012 
L 221.02946 244.557902 
L 221.480369 178.530119 
L 221.931278 261.059725 
L 222.382187 171.330813 
L 222.833097 258.962682 
L 223.284006 276.468825 
L 223.734915 269.166907 
L 224.185824 165.275922 
L 224.636733 266.359501 
L 225.087642 151.301431 
L 225.538551 239.041843 
L 225.98946 266.818552 
L 226.891278 36.85046 
L 227.342187 231.362824 
L 227.793097 280.162428 
L 228.244006 166.650729 
L 228.694915 265.54013 
L 229.145824 176.163533 
L 229.596733 174.449966 
L 230.047642 169.243667 
L 230.498551 276.886065 
L 230.94946 172.481577 
L 231.400369 36.437813 
L 231.851278 248.288718 
L 232.302188 230.97211 
L 232.753097 263.549491 
L 233.204006 165.315971 
L 233.654915 174.9312 
L 234.105824 170.826186 
L 234.556733 239.567803 
L 235.458551 261.231828 
L 235.90946 170.863604 
L 236.360369 36.437813 
L 236.811278 284.89521 
L 237.262187 265.577228 
L 237.713097 176.883964 
L 238.164006 170.524858 
L 238.614915 277.63449 
L 239.065824 177.146996 
L 239.516733 171.3416 
L 239.967642 255.655623 
L 240.418551 251.056886 
L 240.86946 262.320818 
L 241.320369 59.898151 
L 241.771278 243.094505 
L 242.222187 169.065421 
L 242.673097 244.215001 
L 243.124006 47.665905 
L 243.574915 283.163565 
L 244.025824 39.220899 
L 244.927642 267.579891 
L 245.378551 263.897207 
L 245.82946 148.636201 
L 246.280369 287.506122 
L 246.731278 36.85046 
L 247.182187 171.904666 
L 247.633097 162.740932 
L 248.084006 40.341094 
L 248.985824 259.853754 
L 249.436733 158.785849 
L 249.887642 268.389193 
L 250.338551 246.120494 
L 250.78946 257.293278 
L 251.240369 213.003037 
L 251.691278 149.671512 
L 252.142187 247.848612 
L 252.593097 280.786325 
L 253.044006 258.77158 
L 253.494915 171.466184 
L 253.945824 36.85046 
L 254.396733 43.13081 
L 254.847642 165.512604 
L 255.298551 168.3431 
L 255.74946 249.009852 
L 256.200369 39.972353 
L 256.651278 166.900581 
L 257.102187 262.049494 
L 257.553097 39.598975 
L 258.004006 239.867693 
L 258.454915 252.837012 
L 259.356733 42.459312 
L 259.807642 42.797159 
L 260.258551 284.693928 
L 260.70946 156.88824 
L 261.160369 282.936142 
L 261.611278 254.425108 
L 262.062187 205.956177 
L 262.513097 277.098107 
L 262.964006 236.745523 
L 263.414915 282.414462 
L 263.865824 173.466296 
L 264.316733 254.500306 
L 264.767642 36.85046 
L 265.218551 39.972353 
L 265.66946 38.838068 
L 266.120369 279.009082 
L 266.571278 281.372878 
L 267.022187 164.565875 
L 267.473097 274.974817 
L 267.924006 200.171306 
L 268.374915 42.117216 
L 268.825824 36.437813 
L 269.276733 38.450422 
L 269.727642 246.893213 
L 270.178551 170.127982 
L 270.62946 246.393899 
L 271.080369 157.942155 
L 271.531278 165.186943 
L 271.982187 177.366239 
L 272.433097 175.761103 
L 272.884006 283.805043 
L 273.334915 40.341094 
L 273.785824 176.518439 
L 274.236733 260.418305 
L 274.687642 233.098367 
L 275.138551 242.078697 
L 275.58946 226.261702 
L 276.040369 279.741855 
L 276.491278 176.316179 
L 276.942187 285.956546 
L 277.393097 269.94183 
L 277.844006 236.24674 
L 278.294915 233.762531 
L 278.745824 185.448869 
L 279.196733 163.43377 
L 279.647642 272.765582 
L 280.098551 152.694399 
L 280.54946 173.716367 
L 281.000369 38.838068 
L 281.902187 258.81119 
L 282.353097 189.600198 
L 282.804006 151.19782 
L 283.254915 174.598629 
L 283.705824 146.184426 
L 284.156733 156.328864 
L 284.607642 281.171233 
L 285.058551 36.85046 
L 285.50946 270.948251 
L 285.960369 176.189526 
L 286.411278 271.08655 
L 286.862187 248.798405 
L 287.313097 280.056719 
L 287.764006 267.074633 
L 288.214915 36.85046 
L 288.665824 43.460315 
L 289.116733 59.898151 
L 289.567642 50.005747 
L 290.018551 176.639709 
L 290.46946 174.879825 
L 290.920369 163.842166 
L 291.371278 255.468588 
L 291.822187 39.598975 
L 292.273097 41.06489 
L 292.724006 264.064726 
L 293.174915 36.437813 
L 293.625824 278.56287 
L 294.076733 171.000433 
L 294.527642 254.032713 
L 294.978551 287.682091 
L 295.42946 169.056077 
L 295.880369 168.06005 
L 296.331278 284.874177 
L 296.782187 37.257981 
L 297.233097 264.038795 
L 297.684006 39.972353 
L 298.585824 240.841432 
L 299.036733 248.299455 
L 299.487642 38.450422 
L 299.938551 41.770816 
L 300.38946 222.619427 
L 300.840369 137.651937 
L 301.291278 209.572845 
L 301.742188 255.589572 
L 302.193097 150.329125 
L 302.644006 259.162466 
L 303.094915 281.628174 
L 303.545824 265.577228 
L 303.996733 164.447534 
L 304.447642 263.843088 
L 304.898551 278.60793 
L 305.34946 238.5469 
L 305.800369 160.253918 
L 306.251278 160.354326 
L 306.702187 169.980225 
L 307.153097 36.437813 
L 307.604006 250.460339 
L 308.054915 36.437813 
L 308.505824 39.220899 
L 308.956733 198.97196 
L 309.407642 164.062452 
L 309.858551 247.102038 
L 310.30946 256.490851 
L 310.760369 168.661444 
L 311.211278 148.739621 
L 311.662187 241.583061 
L 312.113097 271.970776 
L 312.564006 284.164805 
L 313.014915 37.257981 
L 313.916733 52.314754 
L 314.367642 263.451504 
L 314.818551 39.972353 
L 315.26946 175.713618 
L 315.720369 205.744112 
L 316.171278 247.717294 
L 316.622187 208.377243 
L 317.073097 39.598975 
L 317.524006 40.705254 
L 317.974915 278.488053 
L 318.425824 160.969809 
L 318.876733 153.569846 
L 319.327642 266.129976 
L 319.778551 42.117216 
L 320.22946 161.812889 
L 321.131278 284.356664 
L 321.582187 173.533991 
L 322.033097 170.294031 
L 322.484006 240.290976 
L 322.934915 41.06489 
L 323.385824 260.588857 
L 323.836733 266.299323 
L 324.287642 249.988587 
L 324.738551 165.079825 
L 325.18946 254.123497 
L 325.640369 174.965552 
L 326.091278 56.647786 
L 326.542188 49.254858 
L 326.993097 244.354041 
L 327.444006 174.709987 
L 327.894915 39.220899 
L 328.345824 39.220899 
L 328.796733 258.211086 
L 329.247642 154.426882 
L 329.698551 246.120494 
L 330.14946 53.160514 
L 330.600369 263.355137 
L 331.051278 161.447952 
L 331.502187 174.011314 
L 331.953097 247.584582 
L 332.404006 255.96123 
L 332.854915 278.092313 
L 333.305824 245.693428 
L 333.756733 47.109214 
L 334.658551 277.653634 
L 335.10946 177.608034 
L 335.560369 285.792786 
L 336.011278 260.997914 
L 336.462187 51.652097 
L 336.913097 56.318472 
L 337.364006 166.118516 
L 337.814915 247.705429 
L 338.265824 283.458832 
L 338.716733 237.659885 
L 339.167642 171.00808 
L 339.618551 279.059604 
L 340.06946 203.845811 
L 340.520369 285.09989 
L 340.971278 190.193979 
L 341.422188 38.0579 
L 341.873097 172.693999 
L 342.324006 138.179973 
L 342.774915 243.001904 
L 343.225824 38.450422 
L 343.676733 264.690039 
L 344.127642 175.353284 
L 344.578551 39.972353 
L 345.02946 174.034099 
L 345.480369 175.290508 
L 345.931278 171.85055 
L 346.382187 146.721679 
L 346.833097 172.155749 
L 347.284006 277.251095 
L 347.734915 56.968968 
L 348.185824 283.961657 
L 348.636733 258.77158 
L 349.087642 258.962682 
L 349.538551 38.450422 
L 349.98946 165.516364 
L 350.440369 41.770816 
L 350.891278 270.860348 
L 351.342187 38.838068 
L 351.793097 256.282191 
L 352.244006 280.755144 
L 352.694915 38.0579 
L 353.145824 174.738735 
L 353.596733 243.546164 
L 354.047642 149.560784 
L 354.498551 156.481313 
L 354.94946 271.163275 
L 355.400369 282.501205 
L 355.851278 266.580805 
L 356.302188 284.011051 
L 356.753097 286.641643 
L 357.204006 239.857657 
L 357.654915 148.500168 
L 358.105824 250.871282 
L 358.556733 167.645798 
L 359.007642 288.263206 
L 359.458551 276.45799 
L 359.90946 36.85046 
L 360.360369 173.034789 
L 360.811278 275.390273 
L 361.713097 174.011314 
L 362.164006 170.656388 
L 362.614915 246.405286 
L 363.065824 273.596293 
L 363.516733 250.34915 
L 363.967642 37.257981 
L 364.418551 39.972353 
L 364.86946 254.293315 
L 365.320369 55.808805 
L 365.771278 152.613995 
L 366.222187 278.41307 
L 366.673097 44.737911 
L 367.124006 236.973485 
L 367.574915 254.619262 
L 368.025824 154.847376 
L 368.476733 264.933946 
L 368.927642 164.565875 
L 369.378551 254.133744 
L 369.82946 168.225077 
L 370.280369 246.057531 
L 370.731278 57.885714 
L 371.182187 170.649288 
L 371.633097 163.316953 
L 372.084006 281.853873 
L 372.534915 159.767511 
L 372.985824 165.304988 
L 373.436733 175.713618 
L 373.887642 239.857657 
L 374.338551 176.163533 
L 374.78946 45.35315 
L 375.240369 264.160079 
L 375.691278 38.450422 
L 376.142187 282.336079 
L 376.593097 286.450307 
L 377.044006 195.200371 
L 377.494915 234.818936 
L 377.945824 164.508633 
L 378.396733 168.571357 
L 378.847642 199.695767 
L 379.298551 275.364252 
L 379.74946 47.389299 
L 380.200369 47.109214 
L 380.651278 283.81077 
L 381.102187 36.85046 
L 381.553097 243.05252 
L 382.004006 267.19134 
L 382.454915 150.883484 
L 382.905824 167.310205 
L 383.356733 153.804478 
L 383.807642 166.830964 
L 384.258551 254.741745 
L 384.70946 175.105746 
L 385.160369 279.587511 
L 385.611278 224.594473 
L 386.062187 252.656592 
L 386.513097 155.242538 
L 386.964006 161.612402 
L 387.414915 47.665905 
L 387.865824 220.764285 
L 388.316733 178.075239 
L 388.767642 279.295762 
L 389.218551 201.423616 
L 389.66946 278.116429 
L 390.120369 266.710811 
L 390.571278 276.115531 
L 391.022187 245.99471 
L 391.473097 250.55533 
L 391.924006 162.939551 
L 392.374915 234.99372 
L 392.825824 259.419973 
L 393.276733 151.19782 
L 393.727642 171.85055 
L 394.178551 161.504705 
L 394.62946 164.787806 
L 395.080369 272.361911 
L 395.531278 247.875602 
L 395.982187 154.869142 
L 396.433097 158.776371 
L 396.884006 264.430039 
L 397.334915 287.21557 
L 397.785824 44.424476 
L 398.236733 286.098369 
L 398.687642 231.038469 
L 399.138551 287.564782 
L 399.58946 52.530175 
L 400.040369 49.254858 
L 400.491278 176.616894 
L 400.942187 178.507281 
L 401.393097 171.50704 
L 401.844006 242.58812 
L 402.745824 45.35315 
L 403.196733 259.072623 
L 403.647642 174.417002 
L 404.098551 178.452995 
L 404.54946 47.109214 
L 405.000369 166.080404 
L 405.451278 238.5469 
L 405.902187 164.565875 
L 406.353097 40.341094 
L 406.804006 251.778893 
L 407.254915 282.561511 
L 407.705824 37.66044 
L 408.156733 176.281639 
L 408.607642 266.103756 
L 409.50946 46.538431 
L 410.411278 274.118587 
L 410.862188 276.306413 
L 411.313097 42.797159 
L 411.764006 151.926976 
L 412.214915 172.815191 
L 412.665824 39.220899 
L 413.567642 271.889102 
L 414.018551 36.437813 
L 414.46946 236.411151 
L 414.920369 156.992641 
L 415.371278 42.459312 
L 415.822187 174.417002 
L 416.273097 227.255193 
L 416.724006 266.058696 
L 417.174915 43.785728 
L 417.625824 50.490922 
L 418.076733 38.838068 
L 418.527642 267.451707 
L 418.978551 202.754355 
L 419.42946 164.920898 
L 419.880369 268.009015 
L 420.331278 47.665905 
L 420.782187 277.049359 
L 421.233097 168.875838 
L 421.684006 261.723077 
L 422.134915 237.73575 
L 422.585824 283.997633 
L 423.036733 280.580537 
L 423.487642 285.74643 
L 423.938551 160.084795 
L 424.38946 243.948892 
L 424.840369 203.011468 
L 425.291278 251.268706 
L 425.742188 38.450422 
L 426.644006 273.551809 
L 427.094915 272.942855 
L 427.545824 54.915715 
L 427.996733 38.0579 
L 428.447642 39.598975 
L 428.898551 206.552799 
L 429.34946 272.548656 
L 429.800369 173.765563 
L 430.251278 40.705254 
L 430.702187 145.341722 
L 431.153097 44.737911 
L 431.604006 178.211775 
L 432.054915 36.85046 
L 432.505824 238.43422 
L 432.956733 236.056524 
L 433.407642 238.639557 
L 433.858551 222.02805 
L 434.30946 151.01917 
L 434.760369 222.551654 
L 435.211278 166.664133 
L 435.662187 172.380442 
L 436.113097 231.362824 
L 436.564006 148.371435 
L 437.014915 243.036669 
L 437.465824 38.0579 
L 437.916733 36.85046 
L 438.367642 266.057027 
L 438.818551 174.607662 
L 439.26946 139.980517 
L 439.720369 272.454394 
L 440.171278 269.958615 
L 440.622187 36.437813 
L 441.073097 278.485264 
L 441.524006 154.250313 
L 441.974915 147.386172 
L 442.425824 215.762567 
L 442.876733 175.364515 
L 443.327642 166.987169 
L 443.778551 65.160712 
L 444.22946 286.482398 
L 444.680369 287.682091 
L 445.131278 177.511576 
L 445.582187 221.118911 
L 446.033097 39.598975 
L 446.934915 252.677151 
L 447.385824 230.112912 
L 447.836733 156.088131 
L 448.287642 46.247643 
L 448.738551 253.740779 
L 449.18946 266.446308 
L 449.640369 242.036792 
L 450.091278 38.0579 
L 450.993097 276.704199 
L 451.444006 263.843088 
L 451.894915 263.204315 
L 452.345824 37.257981 
L 452.796733 150.796494 
L 453.247642 164.447534 
L 453.698551 45.047453 
L 454.14946 163.032025 
L 454.600369 174.073298 
L 455.051278 241.677072 
L 455.051278 241.677072 
" clip-path="url(#pa1fbbb950f)" style="fill: none; stroke: #808080; stroke-opacity: 0.3; stroke-width: 1.5; stroke-linecap: square"/>
   </g>
   <g id="line2d_28">
    <path d="M 49.233097 196.864618 
L 49.684006 195.557595 
L 51.036733 198.219011 
L 52.38946 198.195194 
L 52.840369 198.343273 
L 53.291278 197.882325 
L 53.742188 197.948152 
L 54.193097 197.109365 
L 54.644006 198.004609 
L 55.545824 197.931353 
L 55.996733 200.058775 
L 56.447642 201.127927 
L 56.898551 200.962602 
L 57.34946 201.734931 
L 57.800369 202.923753 
L 58.251278 201.929675 
L 58.702188 202.239597 
L 59.153097 203.253153 
L 59.604006 203.20536 
L 60.054915 204.422321 
L 60.505824 203.356223 
L 60.956733 200.855634 
L 61.407642 200.025887 
L 61.858551 200.233837 
L 62.30946 199.413433 
L 62.760369 199.413433 
L 63.211278 200.806666 
L 63.662188 200.875288 
L 64.113097 201.21046 
L 64.564006 200.145757 
L 65.014915 200.316299 
L 65.465824 201.129219 
L 65.916733 201.124539 
L 66.367642 200.53601 
L 67.26946 200.459346 
L 68.171278 199.482524 
L 68.622187 199.440127 
L 69.073097 200.531851 
L 69.524006 199.555116 
L 69.974915 199.683448 
L 70.425824 200.516027 
L 70.876733 200.879198 
L 71.327642 201.033786 
L 71.778551 201.665002 
L 72.22946 202.873873 
L 72.680369 202.486557 
L 73.131278 203.380414 
L 73.582188 203.401828 
L 74.033097 204.527804 
L 74.484006 203.865333 
L 75.385824 203.079659 
L 75.836733 203.853194 
L 76.287642 202.813069 
L 76.738551 204.014297 
L 77.18946 203.460448 
L 78.091278 200.792882 
L 78.542187 200.977973 
L 78.993097 199.113607 
L 79.444006 199.312067 
L 79.894915 199.287787 
L 80.345824 197.948627 
L 81.247642 197.800989 
L 81.698551 196.377699 
L 82.14946 197.765066 
L 82.600369 196.629548 
L 83.502187 198.825293 
L 83.953097 198.919659 
L 84.404006 198.017664 
L 84.854915 200.368645 
L 85.305824 201.794302 
L 85.756733 201.712792 
L 86.207642 202.18849 
L 86.658551 201.185046 
L 87.10946 201.636849 
L 87.560369 200.544007 
L 88.011278 203.012648 
L 88.462187 203.046956 
L 88.913097 204.122727 
L 89.814915 206.584169 
L 90.265824 205.606381 
L 90.716733 206.69401 
L 91.167642 206.745578 
L 91.618551 205.46027 
L 92.06946 204.690472 
L 92.520369 204.889604 
L 92.971278 204.176933 
L 93.873097 204.23087 
L 94.324006 206.486469 
L 94.774915 207.522644 
L 95.676733 205.361456 
L 96.127642 203.327136 
L 96.578551 203.907298 
L 97.02946 204.040296 
L 97.480369 202.675151 
L 98.382187 202.674066 
L 98.833097 202.451426 
L 99.284006 201.134643 
L 99.734915 200.379189 
L 100.636733 202.156735 
L 101.538551 201.843884 
L 101.98946 200.733238 
L 102.440369 201.155199 
L 102.891278 198.907607 
L 103.342187 199.897044 
L 103.793097 200.466474 
L 104.244006 199.443297 
L 104.694915 199.751087 
L 105.145824 198.651284 
L 106.047642 198.630641 
L 106.498551 198.918881 
L 106.94946 197.795024 
L 107.400369 198.373614 
L 107.851278 199.152263 
L 108.302188 199.175405 
L 109.204006 196.60117 
L 110.105824 196.647969 
L 110.556733 196.846599 
L 111.007642 197.469061 
L 111.458551 197.559525 
L 111.90946 196.807548 
L 112.360369 197.514789 
L 112.811278 197.235569 
L 113.262187 197.152359 
L 114.164006 195.056863 
L 114.614915 195.042263 
L 115.065824 195.277857 
L 115.516733 194.785969 
L 115.967642 193.535062 
L 116.418551 193.443693 
L 116.86946 193.481835 
L 117.320369 192.521112 
L 117.771278 192.105914 
L 118.222187 192.292955 
L 118.673097 192.128856 
L 119.124006 191.618299 
L 119.574915 191.469095 
L 120.025824 191.652357 
L 120.476733 192.690975 
L 120.927642 191.457218 
L 121.378551 192.320009 
L 121.82946 191.2232 
L 122.280369 191.824539 
L 122.731278 191.984751 
L 123.182187 193.382643 
L 123.633097 193.350939 
L 124.084006 194.738736 
L 124.534915 194.828078 
L 124.985824 195.600575 
L 125.436733 197.630306 
L 125.887642 198.037844 
L 126.338551 196.998037 
L 127.240369 199.29436 
L 127.691278 200.209386 
L 128.142188 199.842318 
L 128.593097 198.500329 
L 129.044006 199.627664 
L 129.494915 199.76695 
L 130.396733 199.436368 
L 130.847642 200.750117 
L 131.298551 200.293838 
L 131.74946 200.243549 
L 132.200369 199.086964 
L 132.651278 199.115386 
L 133.102187 198.068275 
L 133.553097 198.065908 
L 134.905824 196.985873 
L 135.356733 197.205001 
L 135.807642 197.226596 
L 136.70946 195.050498 
L 137.160369 195.326653 
L 137.611278 194.988686 
L 138.513097 197.086143 
L 138.964006 196.818347 
L 139.414915 195.737203 
L 139.865824 196.787266 
L 140.767642 197.065975 
L 141.218551 199.34942 
L 141.66946 198.87736 
L 142.120369 199.568906 
L 142.571278 201.718785 
L 143.022188 202.507675 
L 143.473097 202.701443 
L 143.924006 202.739842 
L 144.374915 204.141664 
L 144.825824 204.110288 
L 146.178551 197.675598 
L 146.62946 196.672661 
L 147.080369 199.144266 
L 147.531278 198.017057 
L 147.982187 199.991608 
L 148.433097 198.976677 
L 149.334915 198.822494 
L 150.687642 201.535066 
L 151.138551 203.820564 
L 151.58946 204.749202 
L 152.040369 203.403301 
L 152.491278 202.944332 
L 152.942187 202.152935 
L 153.393097 202.441371 
L 153.844006 203.342731 
L 154.294915 205.630472 
L 154.745824 205.50193 
L 155.647642 203.399479 
L 156.098551 203.807564 
L 156.54946 203.833075 
L 157.000369 204.694082 
L 157.451278 203.872855 
L 157.902187 202.764333 
L 158.353097 202.931883 
L 158.804006 204.13583 
L 159.254915 204.893408 
L 159.705824 203.508679 
L 160.156733 203.377465 
L 160.607642 203.01067 
L 161.058551 203.814755 
L 161.50946 202.498548 
L 161.960369 201.773586 
L 162.411278 202.43189 
L 163.313097 201.915286 
L 163.764006 203.160626 
L 164.214915 203.6062 
L 164.665824 204.334865 
L 165.116733 203.39723 
L 165.567642 200.96072 
L 166.018551 201.085347 
L 166.46946 200.108953 
L 167.371278 197.679732 
L 167.822187 198.749783 
L 168.273097 199.193283 
L 168.724006 198.968585 
L 169.174915 200.024196 
L 170.076733 200.069284 
L 170.527642 199.290429 
L 170.978551 199.269413 
L 171.42946 199.991495 
L 171.880369 200.985563 
L 172.331278 200.803236 
L 172.782187 198.513092 
L 173.233097 198.562855 
L 173.684006 198.794421 
L 174.134915 196.30749 
L 174.585824 196.750951 
L 175.036733 196.164727 
L 175.487642 197.047465 
L 175.938551 196.709943 
L 176.38946 197.371676 
L 176.840369 197.443669 
L 177.291278 198.33755 
L 177.742188 198.342458 
L 178.644006 200.138005 
L 179.094915 200.360943 
L 179.545824 199.552329 
L 179.996733 200.032748 
L 180.447642 199.811131 
L 180.898551 199.331306 
L 181.800369 201.460469 
L 182.251278 200.099495 
L 182.702188 199.898547 
L 183.153097 200.122703 
L 183.604006 199.006921 
L 184.505824 199.421185 
L 184.956733 198.691067 
L 185.407642 198.602112 
L 185.858551 199.604336 
L 186.30946 198.673127 
L 186.760369 197.252975 
L 187.211278 197.257376 
L 187.662187 197.032714 
L 188.113097 197.107849 
L 188.564006 196.798508 
L 189.014915 196.031242 
L 189.465824 195.973304 
L 189.916733 196.61269 
L 190.818551 200.965115 
L 191.26946 202.309372 
L 191.720369 201.138052 
L 192.171278 201.146894 
L 192.622187 202.075726 
L 193.073097 201.50151 
L 193.524006 201.462869 
L 193.974915 201.713465 
L 194.425824 201.751752 
L 194.876733 200.795456 
L 195.327642 200.820468 
L 195.778551 200.482295 
L 196.22946 200.451501 
L 196.680369 198.192554 
L 197.131278 200.220088 
L 197.582188 200.14073 
L 198.033097 200.949969 
L 198.484006 199.357439 
L 198.934915 199.923361 
L 199.385824 197.663451 
L 199.836733 197.527694 
L 200.738551 199.601172 
L 201.18946 198.278732 
L 201.640369 199.376776 
L 202.091278 197.134262 
L 202.542187 197.231955 
L 202.993097 198.486784 
L 203.894915 195.972314 
L 204.345824 196.050456 
L 204.796733 197.26981 
L 205.247642 197.323911 
L 205.698551 198.082722 
L 206.14946 198.221591 
L 206.600369 199.983117 
L 207.051278 199.760786 
L 207.502187 199.797122 
L 207.953097 200.884345 
L 208.404006 200.814856 
L 208.854915 199.672526 
L 209.756733 195.346731 
L 210.207642 195.262938 
L 210.658551 196.577865 
L 211.10946 197.296493 
L 211.560369 196.069479 
L 212.462187 198.275591 
L 212.913097 195.834577 
L 213.364006 196.023358 
L 213.814915 197.028426 
L 214.716733 194.393221 
L 215.167642 192.249188 
L 215.618551 193.407395 
L 216.06946 192.129121 
L 216.520369 192.478789 
L 216.971278 192.371256 
L 217.422188 191.846188 
L 217.873097 194.248665 
L 218.324006 194.088179 
L 218.774915 195.145926 
L 219.225824 196.48838 
L 219.676733 196.810218 
L 220.127642 195.243316 
L 221.02946 190.94219 
L 221.480369 191.286702 
L 221.931278 192.315129 
L 222.382187 191.350191 
L 222.833097 192.386631 
L 223.284006 191.798717 
L 224.185824 187.12791 
L 224.636733 185.859655 
L 225.087642 185.664992 
L 225.98946 185.926778 
L 226.440369 184.838014 
L 226.891278 185.004878 
L 227.342187 186.410036 
L 227.793097 185.854019 
L 228.244006 185.890445 
L 228.694915 184.627348 
L 229.145824 183.737131 
L 229.596733 184.579679 
L 230.498551 185.894513 
L 230.94946 185.38827 
L 231.400369 186.460873 
L 231.851278 187.859656 
L 232.753097 188.626032 
L 233.204006 188.353004 
L 233.654915 189.03747 
L 234.105824 189.142646 
L 234.556733 189.068722 
L 235.007642 189.4007 
L 236.360369 186.2239 
L 236.811278 187.319617 
L 237.262187 187.058776 
L 237.713097 186.299006 
L 238.164006 186.042145 
L 238.614915 186.082882 
L 239.065824 184.768382 
L 239.516733 184.5602 
L 239.967642 185.658497 
L 240.418551 183.470445 
L 240.86946 183.669359 
L 241.320369 182.808046 
L 241.771278 184.91993 
L 242.222187 184.976969 
L 242.673097 186.086882 
L 243.124006 186.315478 
L 243.574915 186.207324 
L 244.025824 183.810291 
L 244.476733 184.017064 
L 245.82946 181.20291 
L 246.280369 181.35497 
L 246.731278 181.034595 
L 247.182187 181.06208 
L 247.633097 179.753682 
L 248.084006 180.76692 
L 248.534915 180.727887 
L 248.985824 182.032413 
L 249.436733 181.14388 
L 249.887642 182.096349 
L 250.338551 182.289278 
L 251.240369 180.626301 
L 251.691278 181.345013 
L 252.142187 180.220877 
L 252.593097 180.382779 
L 253.044006 177.97464 
L 253.494915 176.811478 
L 253.945824 177.505231 
L 254.396733 179.619721 
L 254.847642 179.572917 
L 255.298551 178.335499 
L 255.74946 178.878262 
L 256.200369 177.764683 
L 256.651278 179.460688 
L 257.102187 180.347578 
L 257.553097 179.230374 
L 258.004006 181.426009 
L 258.454915 181.843614 
L 259.356733 182.082481 
L 260.258551 186.654427 
L 260.70946 186.192957 
L 261.160369 186.226613 
L 261.611278 185.000795 
L 262.062187 184.156346 
L 262.513097 182.461163 
L 262.964006 182.194785 
L 263.865824 177.759772 
L 264.316733 178.014829 
L 264.767642 177.110451 
L 265.66946 181.378151 
L 266.120369 182.676385 
L 266.571278 181.37369 
L 267.022187 180.975792 
L 267.473097 182.049841 
L 267.924006 182.141741 
L 268.374915 180.512608 
L 268.825824 180.532507 
L 269.276733 180.691276 
L 269.727642 182.941287 
L 270.178551 180.872078 
L 270.62946 180.927935 
L 271.080369 180.521437 
L 271.531278 181.419188 
L 271.982187 181.851091 
L 272.884006 179.12286 
L 273.334915 179.06969 
L 273.785824 180.275977 
L 274.236733 180.046491 
L 274.687642 180.103608 
L 275.138551 178.193797 
L 275.58946 177.391139 
L 276.942187 177.429692 
L 277.393097 176.273067 
L 277.844006 175.976558 
L 278.294915 174.02474 
L 278.745824 174.293003 
L 279.647642 175.967055 
L 280.098551 174.890198 
L 280.54946 175.904489 
L 281.000369 175.916981 
L 281.451278 176.095078 
L 281.902187 175.127532 
L 282.804006 174.834058 
L 283.705824 172.360512 
L 284.156733 173.480778 
L 284.607642 173.461759 
L 285.058551 173.111251 
L 285.50946 173.274352 
L 286.411278 173.051005 
L 286.862187 172.080252 
L 287.313097 172.068114 
L 287.764006 171.827159 
L 288.214915 171.937336 
L 288.665824 174.025766 
L 289.116733 174.062255 
L 289.567642 175.19692 
L 290.018551 177.473399 
L 290.46946 177.483082 
L 291.371278 179.563769 
L 291.822187 177.525604 
L 292.273097 177.692799 
L 292.724006 178.943335 
L 293.174915 178.779742 
L 293.625824 181.249952 
L 294.076733 180.840923 
L 294.527642 180.840999 
L 294.978551 181.091268 
L 295.42946 180.252905 
L 295.880369 181.413343 
L 296.331278 181.634683 
L 296.782187 179.16652 
L 297.233097 180.52088 
L 297.684006 179.262292 
L 298.134915 181.292587 
L 298.585824 180.252537 
L 299.036733 180.491023 
L 299.487642 179.761561 
L 299.938551 179.77678 
L 300.38946 181.099413 
L 300.840369 180.626124 
L 301.291278 180.96811 
L 301.742188 180.339598 
L 302.193097 179.50526 
L 302.644006 180.77448 
L 303.094915 178.752545 
L 303.996733 178.707823 
L 304.447642 179.652975 
L 304.898551 177.399048 
L 305.34946 176.268132 
L 305.800369 174.300372 
L 306.251278 175.406436 
L 306.702187 174.191273 
L 307.153097 175.054293 
L 307.604006 177.497466 
L 308.054915 175.373442 
L 308.505824 176.756451 
L 308.956733 178.799704 
L 309.407642 178.305592 
L 309.858551 178.229781 
L 310.760369 178.730497 
L 311.211278 179.70969 
L 311.662187 181.062404 
L 312.113097 181.51299 
L 312.564006 181.191859 
L 313.014915 179.835213 
L 313.465824 181.971346 
L 313.916733 183.206733 
L 314.367642 185.566217 
L 314.818551 185.696282 
L 315.720369 185.638275 
L 316.171278 186.334736 
L 316.622187 186.120826 
L 317.073097 185.777167 
L 317.524006 187.087741 
L 317.974915 189.144741 
L 318.425824 189.095824 
L 318.876733 189.989617 
L 319.327642 188.826498 
L 319.778551 186.564922 
L 320.22946 188.686683 
L 320.680369 187.626642 
L 321.131278 186.869938 
L 321.582187 186.810502 
L 322.033097 185.522541 
L 322.484006 186.189336 
L 322.934915 186.332619 
L 323.385824 187.470444 
L 323.836733 187.513895 
L 324.287642 186.49656 
L 325.18946 186.569464 
L 325.640369 186.488805 
L 326.091278 185.318006 
L 326.993097 187.598642 
L 327.444006 187.973641 
L 327.894915 187.824216 
L 328.796733 190.449984 
L 329.247642 190.26645 
L 329.698551 190.483816 
L 330.14946 188.476143 
L 330.600369 190.586138 
L 331.051278 188.337091 
L 331.953097 190.670362 
L 332.404006 190.14652 
L 332.854915 189.935097 
L 333.305824 188.79926 
L 333.756733 188.02804 
L 334.207642 189.553905 
L 334.658551 190.573901 
L 335.10946 188.271258 
L 335.560369 186.96627 
L 336.011278 186.94645 
L 336.462187 184.704975 
L 337.364006 188.727708 
L 337.814915 188.575358 
L 338.265824 187.771406 
L 338.716733 186.474862 
L 339.167642 185.766573 
L 339.618551 186.603909 
L 340.06946 185.564371 
L 340.520369 186.321788 
L 340.971278 185.716734 
L 341.422188 186.34136 
L 341.873097 187.513206 
L 342.324006 187.40239 
L 342.774915 186.49725 
L 343.225824 186.274873 
L 343.676733 187.671122 
L 344.578551 188.077882 
L 345.02946 190.459323 
L 346.833097 194.174118 
L 347.284006 194.081956 
L 347.734915 193.659383 
L 348.185824 195.683893 
L 348.636733 194.356254 
L 349.538551 192.512464 
L 350.440369 194.844293 
L 350.891278 196.905341 
L 351.342187 195.745429 
L 351.793097 196.944812 
L 353.145824 197.154561 
L 353.596733 198.268157 
L 354.047642 198.14308 
L 354.498551 199.52312 
L 354.94946 198.483609 
L 355.400369 196.264525 
L 356.753097 193.199906 
L 357.204006 192.759371 
L 358.105824 190.748582 
L 359.007642 190.898307 
L 359.458551 189.800205 
L 359.90946 187.506717 
L 360.360369 188.799017 
L 360.811278 189.454138 
L 361.262187 188.345894 
L 361.713097 186.486043 
L 362.164006 187.263718 
L 362.614915 188.38277 
L 363.065824 186.295321 
L 363.516733 185.322175 
L 363.967642 185.479721 
L 364.418551 186.738693 
L 364.86946 186.804353 
L 365.320369 185.931632 
L 365.771278 188.11473 
L 366.222187 189.351654 
L 366.673097 186.995495 
L 367.124006 188.067385 
L 367.574915 187.425802 
L 368.025824 185.271819 
L 368.927642 185.385239 
L 369.378551 184.103959 
L 370.280369 183.814409 
L 370.731278 181.778426 
L 371.182187 182.943739 
L 371.633097 183.509798 
L 372.084006 184.537216 
L 372.534915 182.156534 
L 373.436733 179.799099 
L 373.887642 180.71648 
L 374.338551 180.345447 
L 374.78946 180.233021 
L 375.240369 182.459579 
L 375.691278 180.294638 
L 376.142187 182.680627 
L 376.593097 181.546025 
L 377.044006 181.298752 
L 377.945824 182.215893 
L 378.847642 184.548363 
L 379.74946 183.838099 
L 380.200369 185.394321 
L 380.651278 187.435916 
L 381.102187 184.982313 
L 381.553097 186.073903 
L 382.004006 186.378896 
L 382.454915 186.436411 
L 382.905824 185.476733 
L 383.807642 183.042155 
L 384.258551 183.439373 
L 384.70946 183.617442 
L 385.160369 183.604041 
L 385.611278 181.215218 
L 386.062187 180.42269 
L 386.513097 178.343504 
L 386.964006 178.573196 
L 387.414915 177.325577 
L 387.865824 179.23326 
L 388.316733 179.386182 
L 388.767642 179.991825 
L 390.120369 178.359456 
L 391.022187 176.321638 
L 391.473097 176.175319 
L 391.924006 175.15348 
L 392.374915 175.954452 
L 393.276733 171.759398 
L 393.727642 172.90799 
L 394.178551 172.935562 
L 394.62946 172.72032 
L 395.080369 173.796986 
L 395.531278 173.772953 
L 395.982187 171.658575 
L 396.433097 172.894736 
L 396.884006 172.849475 
L 397.334915 171.679037 
L 397.785824 170.964507 
L 398.236733 172.273907 
L 398.687642 171.082795 
L 399.138551 169.424017 
L 399.58946 169.413194 
L 400.040369 171.764713 
L 400.491278 173.04728 
L 400.942187 173.4923 
L 401.393097 172.103217 
L 401.844006 171.755898 
L 402.294915 171.856788 
L 403.196733 173.846009 
L 403.647642 171.717759 
L 404.54946 173.39093 
L 405.000369 175.340206 
L 405.451278 174.059981 
L 405.902187 173.408852 
L 406.353097 174.530236 
L 406.804006 176.765255 
L 407.254915 176.87951 
L 407.705824 174.426474 
L 408.156733 175.557835 
L 408.607642 175.439494 
L 409.058551 173.228931 
L 409.50946 173.227699 
L 409.960369 174.503048 
L 410.411278 175.249607 
L 410.411278 175.249607 
" clip-path="url(#pa1fbbb950f)" style="fill: none; stroke: #0000ff; stroke-width: 1.5; stroke-linecap: square"/>
   </g>
   <g id="patch_3">
    <path d="M 28.942188 301.037812 
L 28.942188 23.837813 
" style="fill: none; stroke: #000000; stroke-width: 0.8; stroke-linejoin: miter; stroke-linecap: square"/>
   </g>
   <g id="patch_4">
    <path d="M 475.342187 301.037812 
L 475.342187 23.837813 
" style="fill: none; stroke: #000000; stroke-width: 0.8; stroke-linejoin: miter; stroke-linecap: square"/>
   </g>
   <g id="patch_5">
    <path d="M 28.942188 301.037813 
L 475.342187 301.037813 
" style="fill: none; stroke: #000000; stroke-width: 0.8; stroke-linejoin: miter; stroke-linecap: square"/>
   </g>
   <g id="patch_6">
    <path d="M 28.942188 23.837813 
L 475.342187 23.837813 
" style="fill: none; stroke: #000000; stroke-width: 0.8; stroke-linejoin: miter; stroke-linecap: square"/>
   </g>
   <g id="text_14">
    <!-- Training Rewards -->
    <g transform="translate(192.585312 17.837813) scale(0.14 -0.14)">
     <defs>
      <path id="DejaVuSans-54" d="M -19 4666 
L 3928 4666 
L 3928 4134 
L 2272 4134 
L 2272 0 
L 1638 0 
L 1638 4134 
L -19 4134 
L -19 4666 
z
" transform="scale(0.015625)"/>
      <path id="DejaVuSans-72" d="M 2631 2963 
Q 2534 3019 2420 3045 
Q 2306 3072 2169 3072 
Q 1681 3072 1420 2755 
Q 1159 2438 1159 1844 
L 1159 0 
L 581 0 
L 581 3500 
L 1159 3500 
L 1159 2956 
Q 1341 3275 1631 3429 
Q 1922 3584 2338 3584 
Q 2397 3584 2469 3576 
Q 2541 3569 2628 3553 
L 2631 2963 
z
" transform="scale(0.015625)"/>
      <path id="DejaVuSans-61" d="M 2194 1759 
Q 1497 1759 1228 1600 
Q 959 1441 959 1056 
Q 959 750 1161 570 
Q 1363 391 1709 391 
Q 2188 391 2477 730 
Q 2766 1069 2766 1631 
L 2766 1759 
L 2194 1759 
z
M 3341 1997 
L 3341 0 
L 2766 0 
L 2766 531 
Q 2569 213 2275 61 
Q 1981 -91 1556 -91 
Q 1019 -91 701 211 
Q 384 513 384 1019 
Q 384 1609 779 1909 
Q 1175 2209 1959 2209 
L 2766 2209 
L 2766 2266 
Q 2766 2663 2505 2880 
Q 2244 3097 1772 3097 
Q 1472 3097 1187 3025 
Q 903 2953 641 2809 
L 641 3341 
Q 956 3463 1253 3523 
Q 1550 3584 1831 3584 
Q 2591 3584 2966 3190 
Q 3341 2797 3341 1997 
z
" transform="scale(0.015625)"/>
      <path id="DejaVuSans-69" d="M 603 3500 
L 1178 3500 
L 1178 0 
L 603 0 
L 603 3500 
z
M 603 4863 
L 1178 4863 
L 1178 4134 
L 603 4134 
L 603 4863 
z
" transform="scale(0.015625)"/>
      <path id="DejaVuSans-6e" d="M 3513 2113 
L 3513 0 
L 2938 0 
L 2938 2094 
Q 2938 2591 2744 2837 
Q 2550 3084 2163 3084 
Q 1697 3084 1428 2787 
Q 1159 2491 1159 1978 
L 1159 0 
L 581 0 
L 581 3500 
L 1159 3500 
L 1159 2956 
Q 1366 3272 1645 3428 
Q 1925 3584 2291 3584 
Q 2894 3584 3203 3211 
Q 3513 2838 3513 2113 
z
" transform="scale(0.015625)"/>
      <path id="DejaVuSans-67" d="M 2906 1791 
Q 2906 2416 2648 2759 
Q 2391 3103 1925 3103 
Q 1463 3103 1205 2759 
Q 947 2416 947 1791 
Q 947 1169 1205 825 
Q 1463 481 1925 481 
Q 2391 481 2648 825 
Q 2906 1169 2906 1791 
z
M 3481 434 
Q 3481 -459 3084 -895 
Q 2688 -1331 1869 -1331 
Q 1566 -1331 1297 -1286 
Q 1028 -1241 775 -1147 
L 775 -588 
Q 1028 -725 1275 -790 
Q 1522 -856 1778 -856 
Q 2344 -856 2625 -561 
Q 2906 -266 2906 331 
L 2906 616 
Q 2728 306 2450 153 
Q 2172 0 1784 0 
Q 1141 0 747 490 
Q 353 981 353 1791 
Q 353 2603 747 3093 
Q 1141 3584 1784 3584 
Q 2172 3584 2450 3431 
Q 2728 3278 2906 2969 
L 2906 3500 
L 3481 3500 
L 3481 434 
z
" transform="scale(0.015625)"/>
      <path id="DejaVuSans-20" transform="scale(0.015625)"/>
      <path id="DejaVuSans-52" d="M 2841 2188 
Q 3044 2119 3236 1894 
Q 3428 1669 3622 1275 
L 4263 0 
L 3584 0 
L 2988 1197 
Q 2756 1666 2539 1819 
Q 2322 1972 1947 1972 
L 1259 1972 
L 1259 0 
L 628 0 
L 628 4666 
L 2053 4666 
Q 2853 4666 3247 4331 
Q 3641 3997 3641 3322 
Q 3641 2881 3436 2590 
Q 3231 2300 2841 2188 
z
M 1259 4147 
L 1259 2491 
L 2053 2491 
Q 2509 2491 2742 2702 
Q 2975 2913 2975 3322 
Q 2975 3731 2742 3939 
Q 2509 4147 2053 4147 
L 1259 4147 
z
" transform="scale(0.015625)"/>
      <path id="DejaVuSans-65" d="M 3597 1894 
L 3597 1613 
L 953 1613 
Q 991 1019 1311 708 
Q 1631 397 2203 397 
Q 2534 397 2845 478 
Q 3156 559 3463 722 
L 3463 178 
Q 3153 47 2828 -22 
Q 2503 -91 2169 -91 
Q 1331 -91 842 396 
Q 353 884 353 1716 
Q 353 2575 817 3079 
Q 1281 3584 2069 3584 
Q 2775 3584 3186 3129 
Q 3597 2675 3597 1894 
z
M 3022 2063 
Q 3016 2534 2758 2815 
Q 2500 3097 2075 3097 
Q 1594 3097 1305 2825 
Q 1016 2553 972 2059 
L 3022 2063 
z
" transform="scale(0.015625)"/>
      <path id="DejaVuSans-77" d="M 269 3500 
L 844 3500 
L 1563 769 
L 2278 3500 
L 2956 3500 
L 3675 769 
L 4391 3500 
L 4966 3500 
L 4050 0 
L 3372 0 
L 2619 2869 
L 1863 0 
L 1184 0 
L 269 3500 
z
" transform="scale(0.015625)"/>
      <path id="DejaVuSans-64" d="M 2906 2969 
L 2906 4863 
L 3481 4863 
L 3481 0 
L 2906 0 
L 2906 525 
Q 2725 213 2448 61 
Q 2172 -91 1784 -91 
Q 1150 -91 751 415 
Q 353 922 353 1747 
Q 353 2572 751 3078 
Q 1150 3584 1784 3584 
Q 2172 3584 2448 3432 
Q 2725 3281 2906 2969 
z
M 947 1747 
Q 947 1113 1208 752 
Q 1469 391 1925 391 
Q 2381 391 2643 752 
Q 2906 1113 2906 1747 
Q 2906 2381 2643 2742 
Q 2381 3103 1925 3103 
Q 1469 3103 1208 2742 
Q 947 2381 947 1747 
z
" transform="scale(0.015625)"/>
      <path id="DejaVuSans-73" d="M 2834 3397 
L 2834 2853 
Q 2591 2978 2328 3040 
Q 2066 3103 1784 3103 
Q 1356 3103 1142 2972 
Q 928 2841 928 2578 
Q 928 2378 1081 2264 
Q 1234 2150 1697 2047 
L 1894 2003 
Q 2506 1872 2764 1633 
Q 3022 1394 3022 966 
Q 3022 478 2636 193 
Q 2250 -91 1575 -91 
Q 1294 -91 989 -36 
Q 684 19 347 128 
L 347 722 
Q 666 556 975 473 
Q 1284 391 1588 391 
Q 1994 391 2212 530 
Q 2431 669 2431 922 
Q 2431 1156 2273 1281 
Q 2116 1406 1581 1522 
L 1381 1569 
Q 847 1681 609 1914 
Q 372 2147 372 2553 
Q 372 3047 722 3315 
Q 1072 3584 1716 3584 
Q 2034 3584 2315 3537 
Q 2597 3491 2834 3397 
z
" transform="scale(0.015625)"/>
     </defs>
     <use xlink:href="#DejaVuSans-54"/>
     <use xlink:href="#DejaVuSans-72" transform="translate(46.333984 0)"/>
     <use xlink:href="#DejaVuSans-61" transform="translate(87.447266 0)"/>
     <use xlink:href="#DejaVuSans-69" transform="translate(148.726562 0)"/>
     <use xlink:href="#DejaVuSans-6e" transform="translate(176.509766 0)"/>
     <use xlink:href="#DejaVuSans-69" transform="translate(239.888672 0)"/>
     <use xlink:href="#DejaVuSans-6e" transform="translate(267.671875 0)"/>
     <use xlink:href="#DejaVuSans-67" transform="translate(331.050781 0)"/>
     <use xlink:href="#DejaVuSans-20" transform="translate(394.527344 0)"/>
     <use xlink:href="#DejaVuSans-52" transform="translate(426.314453 0)"/>
     <use xlink:href="#DejaVuSans-65" transform="translate(491.296875 0)"/>
     <use xlink:href="#DejaVuSans-77" transform="translate(552.820312 0)"/>
     <use xlink:href="#DejaVuSans-61" transform="translate(634.607422 0)"/>
     <use xlink:href="#DejaVuSans-72" transform="translate(695.886719 0)"/>
     <use xlink:href="#DejaVuSans-64" transform="translate(735.25 0)"/>
     <use xlink:href="#DejaVuSans-73" transform="translate(798.726562 0)"/>
    </g>
   </g>
   <g id="legend_1">
    <g id="patch_7">
     <path d="M 35.942188 61.194063 
L 155.839063 61.194063 
Q 157.839063 61.194063 157.839063 59.194063 
L 157.839063 30.837813 
Q 157.839063 28.837813 155.839063 28.837813 
L 35.942188 28.837813 
Q 33.942188 28.837813 33.942188 30.837813 
L 33.942188 59.194063 
Q 33.942188 61.194063 35.942188 61.194063 
z
" style="fill: #ffffff; opacity: 0.8; stroke: #cccccc; stroke-linejoin: miter"/>
    </g>
    <g id="line2d_29">
     <path d="M 37.942188 36.93625 
L 47.942188 36.93625 
L 57.942188 36.93625 
" style="fill: none; stroke: #808080; stroke-opacity: 0.3; stroke-width: 1.5; stroke-linecap: square"/>
    </g>
    <g id="text_15">
     <!-- Raw -->
     <g transform="translate(65.942188 40.43625) scale(0.1 -0.1)">
      <use xlink:href="#DejaVuSans-52"/>
      <use xlink:href="#DejaVuSans-61" transform="translate(67.232422 0)"/>
      <use xlink:href="#DejaVuSans-77" transform="translate(128.511719 0)"/>
     </g>
    </g>
    <g id="line2d_30">
     <path d="M 37.942188 51.614375 
L 47.942188 51.614375 
L 57.942188 51.614375 
" style="fill: none; stroke: #0000ff; stroke-width: 1.5; stroke-linecap: square"/>
    </g>
    <g id="text_16">
     <!-- Moving Avg (100) -->
     <g transform="translate(65.942188 55.114375) scale(0.1 -0.1)">
      <defs>
       <path id="DejaVuSans-4d" d="M 628 4666 
L 1569 4666 
L 2759 1491 
L 3956 4666 
L 4897 4666 
L 4897 0 
L 4281 0 
L 4281 4097 
L 3078 897 
L 2444 897 
L 1241 4097 
L 1241 0 
L 628 0 
L 628 4666 
z
" transform="scale(0.015625)"/>
       <path id="DejaVuSans-6f" d="M 1959 3097 
Q 1497 3097 1228 2736 
Q 959 2375 959 1747 
Q 959 1119 1226 758 
Q 1494 397 1959 397 
Q 2419 397 2687 759 
Q 2956 1122 2956 1747 
Q 2956 2369 2687 2733 
Q 2419 3097 1959 3097 
z
M 1959 3584 
Q 2709 3584 3137 3096 
Q 3566 2609 3566 1747 
Q 3566 888 3137 398 
Q 2709 -91 1959 -91 
Q 1206 -91 779 398 
Q 353 888 353 1747 
Q 353 2609 779 3096 
Q 1206 3584 1959 3584 
z
" transform="scale(0.015625)"/>
       <path id="DejaVuSans-76" d="M 191 3500 
L 800 3500 
L 1894 563 
L 2988 3500 
L 3597 3500 
L 2284 0 
L 1503 0 
L 191 3500 
z
" transform="scale(0.015625)"/>
       <path id="DejaVuSans-41" d="M 2188 4044 
L 1331 1722 
L 3047 1722 
L 2188 4044 
z
M 1831 4666 
L 2547 4666 
L 4325 0 
L 3669 0 
L 3244 1197 
L 1141 1197 
L 716 0 
L 50 0 
L 1831 4666 
z
" transform="scale(0.015625)"/>
       <path id="DejaVuSans-28" d="M 1984 4856 
Q 1566 4138 1362 3434 
Q 1159 2731 1159 2009 
Q 1159 1288 1364 580 
Q 1569 -128 1984 -844 
L 1484 -844 
Q 1016 -109 783 600 
Q 550 1309 550 2009 
Q 550 2706 781 3412 
Q 1013 4119 1484 4856 
L 1984 4856 
z
" transform="scale(0.015625)"/>
       <path id="DejaVuSans-29" d="M 513 4856 
L 1013 4856 
Q 1481 4119 1714 3412 
Q 1947 2706 1947 2009 
Q 1947 1309 1714 600 
Q 1481 -109 1013 -844 
L 513 -844 
Q 928 -128 1133 580 
Q 1338 1288 1338 2009 
Q 1338 2731 1133 3434 
Q 928 4138 513 4856 
z
" transform="scale(0.015625)"/>
      </defs>
      <use xlink:href="#DejaVuSans-4d"/>
      <use xlink:href="#DejaVuSans-6f" transform="translate(86.279297 0)"/>
      <use xlink:href="#DejaVuSans-76" transform="translate(147.460938 0)"/>
      <use xlink:href="#DejaVuSans-69" transform="translate(206.640625 0)"/>
      <use xlink:href="#DejaVuSans-6e" transform="translate(234.423828 0)"/>
      <use xlink:href="#DejaVuSans-67" transform="translate(297.802734 0)"/>
      <use xlink:href="#DejaVuSans-20" transform="translate(361.279297 0)"/>
      <use xlink:href="#DejaVuSans-41" transform="translate(393.066406 0)"/>
      <use xlink:href="#DejaVuSans-76" transform="translate(455.599609 0)"/>
      <use xlink:href="#DejaVuSans-67" transform="translate(514.779297 0)"/>
      <use xlink:href="#DejaVuSans-20" transform="translate(578.255859 0)"/>
      <use xlink:href="#DejaVuSans-28" transform="translate(610.042969 0)"/>
      <use xlink:href="#DejaVuSans-31" transform="translate(649.056641 0)"/>
      <use xlink:href="#DejaVuSans-30" transform="translate(712.679688 0)"/>
      <use xlink:href="#DejaVuSans-30" transform="translate(776.302734 0)"/>
      <use xlink:href="#DejaVuSans-29" transform="translate(839.925781 0)"/>
     </g>
    </g>
   </g>
  </g>
 </g>
 <defs>
  <clipPath id="pa1fbbb950f">
   <rect x="28.942188" y="23.837813" width="446.4" height="277.2"/>
  </clipPath>
 </defs>
</svg>
